<mxfile host="Electron" agent="Mozilla/5.0 (Windows NT 10.0; Win64; x64) AppleWebKit/537.36 (KHTML, like Gecko) draw.io/26.0.16 Chrome/132.0.6834.196 Electron/34.2.0 Safari/537.36" version="26.0.16">
  <diagram name="Page-1" id="ERRwZ-NiJFU2NDT36PE9">
    <mxGraphModel dx="1050" dy="621" grid="1" gridSize="10" guides="1" tooltips="1" connect="1" arrows="1" fold="1" page="1" pageScale="1" pageWidth="827" pageHeight="1169" math="0" shadow="0">
      <root>
        <mxCell id="0" />
        <mxCell id="1" parent="0" />
        <mxCell id="BD8oxNHUnit-K7tUw3Ro-1" value="" style="rounded=0;whiteSpace=wrap;html=1;sketch=1;hachureGap=4;jiggle=2;curveFitting=1;fontFamily=Architects Daughter;fontSource=https%3A%2F%2Ffonts.googleapis.com%2Fcss%3Ffamily%3DArchitects%2BDaughter;fillColor=none;dashed=1;dashPattern=1 2;glass=0;strokeColor=light-dark(#787878, #ededed);" vertex="1" parent="1">
          <mxGeometry x="40" y="140" width="170" height="560" as="geometry" />
        </mxCell>
        <mxCell id="BD8oxNHUnit-K7tUw3Ro-5" value="Sources" style="rounded=0;whiteSpace=wrap;html=1;sketch=1;hachureGap=4;jiggle=2;curveFitting=1;fontFamily=Architects Daughter;fontSource=https%3A%2F%2Ffonts.googleapis.com%2Fcss%3Ffamily%3DArchitects%2BDaughter;fontSize=24;strokeColor=none;" vertex="1" parent="1">
          <mxGeometry x="65" y="120" width="120" height="30" as="geometry" />
        </mxCell>
        <mxCell id="BD8oxNHUnit-K7tUw3Ro-6" value="" style="rounded=0;whiteSpace=wrap;html=1;sketch=1;hachureGap=4;jiggle=2;curveFitting=1;fontFamily=Architects Daughter;fontSource=https%3A%2F%2Ffonts.googleapis.com%2Fcss%3Ffamily%3DArchitects%2BDaughter;fillColor=none;dashed=1;dashPattern=1 2;glass=0;strokeColor=light-dark(#787878, #ededed);" vertex="1" parent="1">
          <mxGeometry x="260" y="130" width="750" height="570" as="geometry" />
        </mxCell>
        <mxCell id="BD8oxNHUnit-K7tUw3Ro-7" value="Data Warehouse" style="rounded=0;whiteSpace=wrap;html=1;sketch=1;hachureGap=4;jiggle=2;curveFitting=1;fontFamily=Architects Daughter;fontSource=https%3A%2F%2Ffonts.googleapis.com%2Fcss%3Ffamily%3DArchitects%2BDaughter;fontSize=24;strokeColor=none;" vertex="1" parent="1">
          <mxGeometry x="539" y="120" width="235" height="30" as="geometry" />
        </mxCell>
        <mxCell id="BD8oxNHUnit-K7tUw3Ro-8" value="" style="rounded=0;whiteSpace=wrap;html=1;sketch=1;hachureGap=4;jiggle=2;curveFitting=1;fontFamily=Architects Daughter;fontSource=https%3A%2F%2Ffonts.googleapis.com%2Fcss%3Ffamily%3DArchitects%2BDaughter;fillColor=none;dashed=1;dashPattern=1 2;glass=0;strokeColor=light-dark(#787878, #ededed);" vertex="1" parent="1">
          <mxGeometry x="1071" y="130" width="199" height="570" as="geometry" />
        </mxCell>
        <mxCell id="BD8oxNHUnit-K7tUw3Ro-9" value="Consume" style="rounded=0;whiteSpace=wrap;html=1;sketch=1;hachureGap=4;jiggle=2;curveFitting=1;fontFamily=Architects Daughter;fontSource=https%3A%2F%2Ffonts.googleapis.com%2Fcss%3Ffamily%3DArchitects%2BDaughter;fontSize=24;strokeColor=none;" vertex="1" parent="1">
          <mxGeometry x="1096" y="120" width="120" height="30" as="geometry" />
        </mxCell>
        <mxCell id="BD8oxNHUnit-K7tUw3Ro-10" value="Bronze Layer" style="rounded=0;whiteSpace=wrap;html=1;sketch=1;hachureGap=4;jiggle=2;curveFitting=1;fontFamily=Architects Daughter;fontSource=https%3A%2F%2Ffonts.googleapis.com%2Fcss%3Ffamily%3DArchitects%2BDaughter;fontSize=20;fillColor=#ffe6cc;strokeColor=#d79b00;fillStyle=solid;" vertex="1" parent="1">
          <mxGeometry x="290" y="170" width="170" height="30" as="geometry" />
        </mxCell>
        <mxCell id="BD8oxNHUnit-K7tUw3Ro-11" value="" style="rounded=0;whiteSpace=wrap;html=1;sketch=1;hachureGap=4;jiggle=2;curveFitting=1;fontFamily=Architects Daughter;fontSource=https%3A%2F%2Ffonts.googleapis.com%2Fcss%3Ffamily%3DArchitects%2BDaughter;fillColor=none;" vertex="1" parent="1">
          <mxGeometry x="290" y="210" width="180" height="470" as="geometry" />
        </mxCell>
        <mxCell id="BD8oxNHUnit-K7tUw3Ro-12" value="SilverLayer" style="rounded=0;whiteSpace=wrap;html=1;sketch=1;hachureGap=4;jiggle=2;curveFitting=1;fontFamily=Architects Daughter;fontSource=https%3A%2F%2Ffonts.googleapis.com%2Fcss%3Ffamily%3DArchitects%2BDaughter;fontSize=20;fillColor=#f5f5f5;strokeColor=default;fontColor=#333333;fillStyle=solid;" vertex="1" parent="1">
          <mxGeometry x="530" y="165" width="170" height="30" as="geometry" />
        </mxCell>
        <mxCell id="BD8oxNHUnit-K7tUw3Ro-13" value="" style="rounded=0;whiteSpace=wrap;html=1;sketch=1;hachureGap=4;jiggle=2;curveFitting=1;fontFamily=Architects Daughter;fontSource=https%3A%2F%2Ffonts.googleapis.com%2Fcss%3Ffamily%3DArchitects%2BDaughter;fillColor=none;" vertex="1" parent="1">
          <mxGeometry x="510" y="205" width="210" height="475" as="geometry" />
        </mxCell>
        <mxCell id="BD8oxNHUnit-K7tUw3Ro-14" value="GoldLayer" style="rounded=0;whiteSpace=wrap;html=1;sketch=1;hachureGap=4;jiggle=2;curveFitting=1;fontFamily=Architects Daughter;fontSource=https%3A%2F%2Ffonts.googleapis.com%2Fcss%3Ffamily%3DArchitects%2BDaughter;fontSize=20;fillColor=#fff2cc;strokeColor=default;fillStyle=solid;" vertex="1" parent="1">
          <mxGeometry x="783.25" y="165" width="170" height="30" as="geometry" />
        </mxCell>
        <mxCell id="BD8oxNHUnit-K7tUw3Ro-15" value="" style="rounded=0;whiteSpace=wrap;html=1;sketch=1;hachureGap=4;jiggle=2;curveFitting=1;fontFamily=Architects Daughter;fontSource=https%3A%2F%2Ffonts.googleapis.com%2Fcss%3Ffamily%3DArchitects%2BDaughter;fillColor=none;" vertex="1" parent="1">
          <mxGeometry x="780.75" y="205" width="199.25" height="475" as="geometry" />
        </mxCell>
        <mxCell id="BD8oxNHUnit-K7tUw3Ro-16" value="CRM" style="image;aspect=fixed;html=1;points=[];align=center;fontSize=12;image=img/lib/azure2/general/Folder_Blank.svg;sketch=1;hachureGap=4;jiggle=2;curveFitting=1;fontFamily=Architects Daughter;fontSource=https%3A%2F%2Ffonts.googleapis.com%2Fcss%3Ffamily%3DArchitects%2BDaughter;" vertex="1" parent="1">
          <mxGeometry x="85.5" y="244" width="69" height="56.00000000000001" as="geometry" />
        </mxCell>
        <mxCell id="BD8oxNHUnit-K7tUw3Ro-17" value="" style="image;aspect=fixed;html=1;points=[];align=center;fontSize=12;image=img/lib/azure2/general/File.svg;sketch=1;hachureGap=4;jiggle=2;curveFitting=1;fontFamily=Architects Daughter;fontSource=https%3A%2F%2Ffonts.googleapis.com%2Fcss%3Ffamily%3DArchitects%2BDaughter;" vertex="1" parent="1">
          <mxGeometry x="132.97" y="280" width="24.35" height="30" as="geometry" />
        </mxCell>
        <mxCell id="BD8oxNHUnit-K7tUw3Ro-18" value="ERP" style="image;aspect=fixed;html=1;points=[];align=center;fontSize=12;image=img/lib/azure2/general/Folder_Blank.svg;sketch=1;hachureGap=4;jiggle=2;curveFitting=1;fontFamily=Architects Daughter;fontSource=https%3A%2F%2Ffonts.googleapis.com%2Fcss%3Ffamily%3DArchitects%2BDaughter;" vertex="1" parent="1">
          <mxGeometry x="84.67" y="355.5" width="69" height="56.00000000000001" as="geometry" />
        </mxCell>
        <mxCell id="BD8oxNHUnit-K7tUw3Ro-19" value="" style="image;aspect=fixed;html=1;points=[];align=center;fontSize=12;image=img/lib/azure2/general/File.svg;sketch=1;hachureGap=4;jiggle=2;curveFitting=1;fontFamily=Architects Daughter;fontSource=https%3A%2F%2Ffonts.googleapis.com%2Fcss%3Ffamily%3DArchitects%2BDaughter;" vertex="1" parent="1">
          <mxGeometry x="129.32" y="385.5" width="28" height="34.5" as="geometry" />
        </mxCell>
        <mxCell id="BD8oxNHUnit-K7tUw3Ro-23" value="&lt;b&gt;Object Type&lt;/b&gt;: CSV Files&lt;div&gt;&lt;b&gt;Interface&lt;/b&gt;: Files in Folder&lt;/div&gt;" style="text;html=1;align=center;verticalAlign=middle;whiteSpace=wrap;rounded=0;fontFamily=Architects Daughter;fontSource=https%3A%2F%2Ffonts.googleapis.com%2Fcss%3Ffamily%3DArchitects%2BDaughter;" vertex="1" parent="1">
          <mxGeometry x="45" y="460" width="160" height="50" as="geometry" />
        </mxCell>
        <mxCell id="BD8oxNHUnit-K7tUw3Ro-24" value="" style="html=1;verticalLabelPosition=bottom;align=center;labelBackgroundColor=#ffffff;verticalAlign=top;strokeWidth=2;strokeColor=#d79b00;shadow=0;dashed=0;shape=mxgraph.ios7.icons.data;sketch=1;hachureGap=4;jiggle=2;curveFitting=1;fontFamily=Architects Daughter;fontSource=https%3A%2F%2Ffonts.googleapis.com%2Fcss%3Ffamily%3DArchitects%2BDaughter;fillColor=#ffe6cc;" vertex="1" parent="1">
          <mxGeometry x="359" y="295" width="32" height="40" as="geometry" />
        </mxCell>
        <mxCell id="BD8oxNHUnit-K7tUw3Ro-25" value="" style="html=1;verticalLabelPosition=bottom;align=center;labelBackgroundColor=#ffffff;verticalAlign=top;strokeWidth=2;strokeColor=#666666;shadow=0;dashed=0;shape=mxgraph.ios7.icons.data;sketch=1;hachureGap=4;jiggle=2;curveFitting=1;fontFamily=Architects Daughter;fontSource=https%3A%2F%2Ffonts.googleapis.com%2Fcss%3Ffamily%3DArchitects%2BDaughter;fillColor=#f5f5f5;fontColor=#333333;" vertex="1" parent="1">
          <mxGeometry x="609" y="295" width="32" height="40" as="geometry" />
        </mxCell>
        <mxCell id="BD8oxNHUnit-K7tUw3Ro-26" value="" style="html=1;verticalLabelPosition=bottom;align=center;labelBackgroundColor=#ffffff;verticalAlign=top;strokeWidth=2;strokeColor=#d6b656;shadow=0;dashed=0;shape=mxgraph.ios7.icons.data;sketch=1;hachureGap=4;jiggle=2;curveFitting=1;fontFamily=Architects Daughter;fontSource=https%3A%2F%2Ffonts.googleapis.com%2Fcss%3Ffamily%3DArchitects%2BDaughter;fillColor=#fff2cc;" vertex="1" parent="1">
          <mxGeometry x="852.25" y="295" width="32" height="40" as="geometry" />
        </mxCell>
        <mxCell id="BD8oxNHUnit-K7tUw3Ro-31" value="" style="html=1;shadow=0;dashed=0;align=center;verticalAlign=middle;shape=mxgraph.arrows2.arrow;dy=0.65;dx=37.6;notch=0;sketch=1;hachureGap=4;jiggle=2;curveFitting=1;fontFamily=Architects Daughter;fontSource=https%3A%2F%2Ffonts.googleapis.com%2Fcss%3Ffamily%3DArchitects%2BDaughter;fillColor=#b1ddf0;strokeColor=#10739e;fillStyle=solid;" vertex="1" parent="1">
          <mxGeometry x="690" y="295" width="100" height="50" as="geometry" />
        </mxCell>
        <mxCell id="BD8oxNHUnit-K7tUw3Ro-33" value="&lt;font style=&quot;font-size: 13px;&quot;&gt;Raw Data&lt;/font&gt;" style="text;html=1;align=center;verticalAlign=middle;whiteSpace=wrap;rounded=0;fontFamily=Architects Daughter;fontSource=https%3A%2F%2Ffonts.googleapis.com%2Fcss%3Ffamily%3DArchitects%2BDaughter;" vertex="1" parent="1">
          <mxGeometry x="340" y="340" width="76" height="30" as="geometry" />
        </mxCell>
        <mxCell id="BD8oxNHUnit-K7tUw3Ro-34" value="&lt;font style=&quot;font-size: 13px;&quot;&gt;Cleaned, Standardized Data&lt;/font&gt;" style="text;html=1;align=center;verticalAlign=middle;whiteSpace=wrap;rounded=0;fontFamily=Architects Daughter;fontSource=https%3A%2F%2Ffonts.googleapis.com%2Fcss%3Ffamily%3DArchitects%2BDaughter;" vertex="1" parent="1">
          <mxGeometry x="550" y="350.5" width="140" height="30" as="geometry" />
        </mxCell>
        <mxCell id="BD8oxNHUnit-K7tUw3Ro-35" value="&lt;font style=&quot;font-size: 13px;&quot;&gt;Business-Ready Data&lt;/font&gt;" style="text;html=1;align=center;verticalAlign=middle;whiteSpace=wrap;rounded=0;fontFamily=Architects Daughter;fontSource=https%3A%2F%2Ffonts.googleapis.com%2Fcss%3Ffamily%3DArchitects%2BDaughter;" vertex="1" parent="1">
          <mxGeometry x="783.25" y="350.5" width="170" height="30" as="geometry" />
        </mxCell>
        <mxCell id="BD8oxNHUnit-K7tUw3Ro-40" value="" style="endArrow=none;html=1;rounded=0;sketch=1;hachureGap=4;jiggle=2;curveFitting=1;fontFamily=Architects Daughter;fontSource=https%3A%2F%2Ffonts.googleapis.com%2Fcss%3Ffamily%3DArchitects%2BDaughter;" edge="1" parent="1">
          <mxGeometry width="50" height="50" relative="1" as="geometry">
            <mxPoint x="560" y="395" as="sourcePoint" />
            <mxPoint x="680" y="395" as="targetPoint" />
            <Array as="points">
              <mxPoint x="650" y="395" />
            </Array>
          </mxGeometry>
        </mxCell>
        <mxCell id="BD8oxNHUnit-K7tUw3Ro-41" value="" style="endArrow=none;html=1;rounded=0;sketch=1;hachureGap=4;jiggle=2;curveFitting=1;fontFamily=Architects Daughter;fontSource=https%3A%2F%2Ffonts.googleapis.com%2Fcss%3Ffamily%3DArchitects%2BDaughter;" edge="1" parent="1">
          <mxGeometry width="50" height="50" relative="1" as="geometry">
            <mxPoint x="300" y="402.25" as="sourcePoint" />
            <mxPoint x="420" y="402.25" as="targetPoint" />
            <Array as="points">
              <mxPoint x="390" y="402.25" />
            </Array>
          </mxGeometry>
        </mxCell>
        <mxCell id="BD8oxNHUnit-K7tUw3Ro-42" value="" style="endArrow=none;html=1;rounded=0;sketch=1;hachureGap=4;jiggle=2;curveFitting=1;fontFamily=Architects Daughter;fontSource=https%3A%2F%2Ffonts.googleapis.com%2Fcss%3Ffamily%3DArchitects%2BDaughter;" edge="1" parent="1">
          <mxGeometry width="50" height="50" relative="1" as="geometry">
            <mxPoint x="793.25" y="395" as="sourcePoint" />
            <mxPoint x="893.25" y="395" as="targetPoint" />
            <Array as="points">
              <mxPoint x="933.25" y="395" />
            </Array>
          </mxGeometry>
        </mxCell>
        <mxCell id="BD8oxNHUnit-K7tUw3Ro-43" value="" style="endArrow=none;html=1;rounded=0;sketch=1;hachureGap=4;jiggle=2;curveFitting=1;fontFamily=Architects Daughter;fontSource=https%3A%2F%2Ffonts.googleapis.com%2Fcss%3Ffamily%3DArchitects%2BDaughter;" edge="1" parent="1">
          <mxGeometry width="50" height="50" relative="1" as="geometry">
            <mxPoint x="65" y="450" as="sourcePoint" />
            <mxPoint x="185" y="450" as="targetPoint" />
            <Array as="points">
              <mxPoint x="155" y="450" />
            </Array>
          </mxGeometry>
        </mxCell>
        <mxCell id="BD8oxNHUnit-K7tUw3Ro-44" value="&lt;div style=&quot;text-align: left;&quot;&gt;&lt;b style=&quot;font-size: 15px; background-color: transparent; color: light-dark(rgb(0, 0, 0), rgb(255, 255, 255));&quot;&gt;Object Type&lt;/b&gt;&lt;span style=&quot;font-size: 15px; background-color: transparent; color: light-dark(rgb(0, 0, 0), rgb(255, 255, 255));&quot;&gt;: Table&lt;/span&gt;&lt;/div&gt;&lt;div style=&quot;text-align: left;&quot;&gt;&lt;font style=&quot;font-size: 15px;&quot;&gt;&lt;b&gt;Load:&lt;/b&gt;&lt;/font&gt;&lt;/div&gt;&lt;div style=&quot;text-align: left;&quot;&gt;&lt;ul&gt;&lt;li&gt;&lt;font style=&quot;font-size: 15px;&quot;&gt;Batch Processing&lt;/font&gt;&lt;/li&gt;&lt;li&gt;&lt;font style=&quot;font-size: 15px;&quot;&gt;Full Load (Tranc &amp;amp; Insert)&lt;/font&gt;&lt;/li&gt;&lt;/ul&gt;&lt;div&gt;&lt;span style=&quot;font-size: 15px;&quot;&gt;&lt;b&gt;No Transformatios&lt;/b&gt;&lt;/span&gt;&lt;/div&gt;&lt;div&gt;&lt;span style=&quot;font-size: 15px;&quot;&gt;&lt;b&gt;Data Model: &lt;/b&gt;None (as-is)&lt;b&gt;&amp;nbsp;&lt;/b&gt;&lt;/span&gt;&lt;/div&gt;&lt;/div&gt;" style="text;html=1;align=center;verticalAlign=middle;whiteSpace=wrap;rounded=0;fontFamily=Architects Daughter;fontSource=https%3A%2F%2Ffonts.googleapis.com%2Fcss%3Ffamily%3DArchitects%2BDaughter;" vertex="1" parent="1">
          <mxGeometry x="290" y="385.5" width="180" height="210" as="geometry" />
        </mxCell>
        <mxCell id="BD8oxNHUnit-K7tUw3Ro-46" value="&lt;div style=&quot;text-align: left;&quot;&gt;&lt;b style=&quot;font-size: 15px; background-color: transparent; color: light-dark(rgb(0, 0, 0), rgb(255, 255, 255));&quot;&gt;Object Type&lt;/b&gt;&lt;span style=&quot;font-size: 15px; background-color: transparent; color: light-dark(rgb(0, 0, 0), rgb(255, 255, 255));&quot;&gt;: Table&lt;/span&gt;&lt;/div&gt;&lt;div style=&quot;text-align: left;&quot;&gt;&lt;font style=&quot;font-size: 15px;&quot;&gt;&lt;b&gt;Load:&lt;/b&gt;&lt;/font&gt;&lt;/div&gt;&lt;div style=&quot;text-align: left;&quot;&gt;&lt;ul&gt;&lt;li&gt;&lt;font style=&quot;font-size: 15px;&quot;&gt;Batch Processing&lt;/font&gt;&lt;/li&gt;&lt;li&gt;&lt;font style=&quot;font-size: 15px;&quot;&gt;Full Load (Tranc &amp;amp; Insert)&lt;/font&gt;&lt;/li&gt;&lt;/ul&gt;&lt;div&gt;&lt;span style=&quot;font-size: 15px;&quot;&gt;&lt;b&gt;Transformatios:&lt;/b&gt;&lt;/span&gt;&lt;/div&gt;&lt;div&gt;&lt;ul&gt;&lt;li&gt;&lt;span style=&quot;font-size: 15px;&quot;&gt;Data Cleansing&lt;/span&gt;&lt;/li&gt;&lt;li&gt;&lt;span style=&quot;font-size: 15px;&quot;&gt;Data Standardization&lt;/span&gt;&lt;/li&gt;&lt;li&gt;&lt;span style=&quot;font-size: 15px;&quot;&gt;Derived Columns&lt;/span&gt;&lt;/li&gt;&lt;li&gt;&lt;span style=&quot;font-size: 15px;&quot;&gt;Data Enrichement&lt;/span&gt;&lt;/li&gt;&lt;/ul&gt;&lt;/div&gt;&lt;div&gt;&lt;span style=&quot;font-size: 15px;&quot;&gt;&lt;b&gt;Data Model: &lt;/b&gt;None (as-is)&lt;b&gt;&amp;nbsp;&lt;/b&gt;&lt;/span&gt;&lt;/div&gt;&lt;/div&gt;" style="text;html=1;align=center;verticalAlign=middle;whiteSpace=wrap;rounded=0;fontFamily=Architects Daughter;fontSource=https%3A%2F%2Ffonts.googleapis.com%2Fcss%3Ffamily%3DArchitects%2BDaughter;" vertex="1" parent="1">
          <mxGeometry x="520" y="470" width="190" height="120" as="geometry" />
        </mxCell>
        <mxCell id="BD8oxNHUnit-K7tUw3Ro-48" value="&lt;div style=&quot;text-align: left;&quot;&gt;&lt;b style=&quot;font-size: 15px; background-color: transparent; color: light-dark(rgb(0, 0, 0), rgb(255, 255, 255));&quot;&gt;Object Type&lt;/b&gt;&lt;span style=&quot;font-size: 15px; background-color: transparent; color: light-dark(rgb(0, 0, 0), rgb(255, 255, 255));&quot;&gt;: Views&lt;/span&gt;&lt;/div&gt;&lt;div style=&quot;text-align: left;&quot;&gt;&lt;font style=&quot;font-size: 15px;&quot;&gt;&lt;b&gt;No Load:&lt;/b&gt;&lt;/font&gt;&lt;/div&gt;&lt;div style=&quot;&quot;&gt;&lt;div&gt;&lt;span style=&quot;font-size: 15px;&quot;&gt;&lt;b&gt;Transformatios:&lt;/b&gt;&lt;/span&gt;&lt;/div&gt;&lt;div&gt;&lt;ul&gt;&lt;li&gt;&lt;span style=&quot;font-size: 15px;&quot;&gt;Data Integration&lt;/span&gt;&lt;/li&gt;&lt;li&gt;&lt;span style=&quot;font-size: 15px;&quot;&gt;Aggregation&lt;/span&gt;&lt;/li&gt;&lt;li&gt;&lt;span style=&quot;font-size: 15px;&quot;&gt;Business Logic&lt;/span&gt;&lt;/li&gt;&lt;/ul&gt;&lt;/div&gt;&lt;div style=&quot;text-align: left;&quot;&gt;&lt;span style=&quot;font-size: 15px;&quot;&gt;&lt;b&gt;Data Model:&lt;/b&gt;&lt;/span&gt;&lt;/div&gt;&lt;div&gt;&lt;ul&gt;&lt;li style=&quot;text-align: left;&quot;&gt;&lt;span style=&quot;font-size: 15px;&quot;&gt;Start Schema&lt;/span&gt;&lt;/li&gt;&lt;li style=&quot;text-align: left;&quot;&gt;&lt;span style=&quot;font-size: 15px;&quot;&gt;Flat Table&lt;/span&gt;&lt;/li&gt;&lt;li style=&quot;text-align: left;&quot;&gt;&lt;span style=&quot;font-size: 15px;&quot;&gt;Aggregation Table&lt;b&gt;&amp;nbsp;&lt;/b&gt;&lt;/span&gt;&lt;/li&gt;&lt;/ul&gt;&lt;/div&gt;&lt;/div&gt;" style="text;html=1;align=center;verticalAlign=middle;whiteSpace=wrap;rounded=0;fontFamily=Architects Daughter;fontSource=https%3A%2F%2Ffonts.googleapis.com%2Fcss%3Ffamily%3DArchitects%2BDaughter;" vertex="1" parent="1">
          <mxGeometry x="783.25" y="460" width="190" height="120" as="geometry" />
        </mxCell>
        <mxCell id="BD8oxNHUnit-K7tUw3Ro-49" value="" style="html=1;shadow=0;dashed=0;align=center;verticalAlign=middle;shape=mxgraph.arrows2.arrow;dy=0.65;dx=37.6;notch=0;sketch=1;hachureGap=4;jiggle=2;curveFitting=1;fontFamily=Architects Daughter;fontSource=https%3A%2F%2Ffonts.googleapis.com%2Fcss%3Ffamily%3DArchitects%2BDaughter;fillColor=#b1ddf0;strokeColor=#10739e;fillStyle=solid;" vertex="1" parent="1">
          <mxGeometry x="439" y="290" width="100" height="50" as="geometry" />
        </mxCell>
        <mxCell id="BD8oxNHUnit-K7tUw3Ro-50" value="" style="html=1;shadow=0;dashed=0;align=center;verticalAlign=middle;shape=mxgraph.arrows2.arrow;dy=0.65;dx=37.6;notch=0;sketch=1;hachureGap=4;jiggle=2;curveFitting=1;fontFamily=Architects Daughter;fontSource=https%3A%2F%2Ffonts.googleapis.com%2Fcss%3Ffamily%3DArchitects%2BDaughter;fillColor=#b1ddf0;strokeColor=#10739e;fillStyle=solid;" vertex="1" parent="1">
          <mxGeometry x="973.25" y="295" width="126.75" height="50" as="geometry" />
        </mxCell>
        <mxCell id="BD8oxNHUnit-K7tUw3Ro-52" value="" style="html=1;shadow=0;dashed=0;align=center;verticalAlign=middle;shape=mxgraph.arrows2.arrow;dy=0.65;dx=37.6;notch=0;sketch=1;hachureGap=4;jiggle=2;curveFitting=1;fontFamily=Architects Daughter;fontSource=https%3A%2F%2Ffonts.googleapis.com%2Fcss%3Ffamily%3DArchitects%2BDaughter;fillColor=#b1ddf0;strokeColor=#10739e;fillStyle=solid;" vertex="1" parent="1">
          <mxGeometry x="180" y="290" width="120" height="50" as="geometry" />
        </mxCell>
        <mxCell id="BD8oxNHUnit-K7tUw3Ro-53" value="&lt;font style=&quot;font-size: 17px;&quot;&gt;BI &amp;amp; Report&lt;/font&gt;" style="image;aspect=fixed;html=1;points=[];align=center;fontSize=12;image=img/lib/azure2/analytics/Power_BI_Embedded.svg;sketch=1;hachureGap=4;jiggle=2;curveFitting=1;fontFamily=Architects Daughter;fontSource=https%3A%2F%2Ffonts.googleapis.com%2Fcss%3Ffamily%3DArchitects%2BDaughter;" vertex="1" parent="1">
          <mxGeometry x="1145" y="190" width="51" height="68" as="geometry" />
        </mxCell>
        <mxCell id="BD8oxNHUnit-K7tUw3Ro-54" value="&lt;font style=&quot;font-size: 17px;&quot;&gt;Ad-Hoc&lt;/font&gt;&lt;div&gt;&lt;font style=&quot;font-size: 17px;&quot;&gt;SQL Queries&lt;/font&gt;&lt;/div&gt;" style="sketch=0;pointerEvents=1;shadow=0;dashed=0;html=1;strokeColor=none;labelPosition=center;verticalLabelPosition=bottom;verticalAlign=top;align=center;fillColor=#505050;shape=mxgraph.mscae.oms.log_search;hachureGap=4;jiggle=2;curveFitting=1;fontFamily=Architects Daughter;fontSource=https%3A%2F%2Ffonts.googleapis.com%2Fcss%3Ffamily%3DArchitects%2BDaughter;" vertex="1" parent="1">
          <mxGeometry x="1129" y="350.5" width="83" height="77.75" as="geometry" />
        </mxCell>
        <mxCell id="BD8oxNHUnit-K7tUw3Ro-55" value="&lt;font style=&quot;font-size: 17px;&quot;&gt;MaChine Learning&lt;/font&gt;" style="editableCssRules=.*;html=1;shape=image;verticalLabelPosition=bottom;labelBackgroundColor=#ffffff;verticalAlign=top;aspect=fixed;imageAspect=0;image=data:image/svg+xml,PHN2ZyB4bWxucz0iaHR0cDovL3d3dy53My5vcmcvMjAwMC9zdmciIHhtbG5zOnY9Imh0dHBzOi8vdmVjdGEuaW8vbmFubyIgd2lkdGg9IjIwIiBoZWlnaHQ9IjE3LjUiIGZpbGwtcnVsZT0iZXZlbm9kZCIgdmlld0JveD0iMCAwIDIwIDE3LjUiPiYjeGE7CTxzdHlsZSB0eXBlPSJ0ZXh0L2NzcyI+JiN4YTsJLnN0MHtmaWxsOiM0Mjg1ZjQ7fSYjeGE7CS5zdDF7ZmlsbDojNjY5ZGY2O30mI3hhOwk8L3N0eWxlPiYjeGE7CTxwYXRoIGNsYXNzPSJzdDAiIGQ9Ik0xOC45MSAxMC42M0wyMCA4Ljc1IDE3LjgyIDVoLTMuMDdsLTEuMDYtMS44NkgxMi41VjEuODhoMS45NGwxLjA2IDEuODdoMS41OUwxNC45IDBoLTQuMjd2NWgxLjczbC43MyAxLjI1aC0yLjQ2djIuNWgyLjI2bDEuMDUtMS44N2gyLjgxbC43MiAxLjI1aC0yLjhMMTMuNjIgMTBoLTIuOTl2NC4zOGgzLjRsLS43MiAxLjI1aC0yLjY4djEuODdoNC4yN2wzLjI4LTUuNjJoLTIuMDlsLS43MyAxLjI1SDEyLjV2LTEuMjVoMi4xNGwuNzQtMS4yNXoiLz4mI3hhOwk8cGF0aCBjbGFzcz0ic3QxIiBkPSJNMS4wOSAxMC42M0wwIDguNzUgMi4xOCA1aDMuMDdsMS4wNi0xLjg2SDcuNVYxLjg4SDUuNTZMNC41IDMuNzVIMi45MUw1LjEgMGg0LjI4djVINy42NGwtLjczIDEuMjVoMi40N3YyLjVINy4xMUw2LjA2IDYuODhIMy4yNWwtLjcyIDEuMjVoMi44TDYuMzggMTBoM3Y0LjM4SDUuOTdsLjcyIDEuMjVoMi42OXYxLjg3SDUuMWwtMy4yOC01LjYyaDIuMDlsLjczIDEuMjVINy41di0xLjI1SDUuMzZsLS43NC0xLjI1eiIvPiYjeGE7PC9zdmc+;sketch=1;hachureGap=4;jiggle=2;curveFitting=1;fontFamily=Architects Daughter;fontSource=https%3A%2F%2Ffonts.googleapis.com%2Fcss%3Ffamily%3DArchitects%2BDaughter;" vertex="1" parent="1">
          <mxGeometry x="1126" y="499" width="90" height="81" as="geometry" />
        </mxCell>
        <mxCell id="BD8oxNHUnit-K7tUw3Ro-56" value="" style="shape=image;verticalLabelPosition=bottom;labelBackgroundColor=default;verticalAlign=top;aspect=fixed;imageAspect=0;image=data:image/png,iVBORw0KGgoAAAANSUhEUgAAAgAAAAIACAYAAAD0eNT6AAAgAElEQVR4XuydBZzU1RbHz3Yv3bl0d3eDSKqoqCBi13vKswPRp2J3oCIqdqIo0i3d3d0Ny3a+3xl2ebvMzM4/7n/ynM9nPrOwN793du7533siiESEgBDwegK5ublRqamppXJyckrh51IY8OVX/r+DgoJi8HME3sPx+wgtP6NcDsqloE6ys3f8LgW/Sy7qHeNKDgkJScnOzub3C9HR0cdRPtfrwcoAhUAAEwgK4LnL1IWAxwlgYw1PT0+vkpWVlYBNtDo2zQQMqjpe5a/Y5KM8PlgdA8A8MjC3g3jfj2q2F34+gDnuDw0N3R8VFXUU/87R0aQUFQJCQDEBUQAUA5XmhEBBAtgEg9PS0qpig7dt7vh3dbwS8DNv8rzZV+QygUYN88/MUxAO4J2VA9uLFYSwsLADkZGRR/Dv7EDjIvMVAu4kIAqAO2lLX35NIDExsTQ2rSZ4NcZG1gST5Z8b8vG9X0/cgsmBWxa4HWKlgBUEdLEzODh4VUxMzGr83wULupQmhUDAERAFIOCWXCZslgAf2ycnJ9fnDZ43et7w+Wf8fwWzbUv9ogmwXQFkF95XoeRK2BuswnXCOvw7TdgJASGgj4AoAPp4SekAJIAj/Jo4wu+IjacTpt8er3r4OTQAUXjllPm0AAPbzAoB1mVV3knBZrlC8MrlkkF5EQFRALxoMWQonifAG3tKSkpzvOdv+PzOBnkiPkQAm38qhrsWr1V8WgDDw1URERG7xTPBhxZRhmo5AVEALEcsHXgzAWzu8TjOb88bPsbJT/ht8XO0N49ZxmaYwDkoAKtZKcApwXK4Ks5j90fDrUlFIeDjBEQB8PEFlOHrI8AW9/CnbwN/9avwcz9sAK0C0QpfHzX/LI21T8fMFuI1DZ4H0+B5sMc/ZyqzEgKOCYgCIJ8MvyeQlJTER/h9ecPHqw9+Lun3k5YJGiGwA5X+gmIwLTY29h92VTTSiNQRAr5CQBQAX1kpGadmAnyPj02/A77AecPvh4rN8C6fdc0EpSAIJOLzM4uVAXx2/o6LizspVISAvxGQL0V/W9EAnQ++pIvhLn8I3gfh1QsY4gMUhUxbMYE810M2JpwG24FpsB1YK8aEiiFLcx4hIAqAR7BLpyoIYKOPw6Y/CL74N+ALmY/4OQa+iBCwlAA+a8f5VCDvqmA23i9a2qE0LgQsIiAKgEVgpVlrCOCLNwbH+wPQ+g14sSFfpDU9SatCwDUBbP4ZKLUIr19hN/C9RCl0zUxKeA8BUQC8Zy1kJE4IYJOPwqbfP2/Tv1rc9OSj4o0E8mIP/IaxfQ5lYIFcE3jjKsmYChIQBUA+D15JgF3zcLzfB+8j8RqIQcZ65UBlUELAMYG9UAC+QKjiL2EzcFggCQFvJCAKgDeuSgCPCVH4KsNHfzQQ3I6Nv2oAo5Cp+wEBKAE5+ByzN8EknAr8kXdl4Aczkyn4AwFRAPxhFX18DviCDMHGfzU2/jvxBcn3+iE+PiUZvhCwI4DP9mn85zd5ysAmQSQEPE1AFABPr0AA94+IfAlIsnM7ENyGTb9iAKOQqQceAXYr5FMBMRwMvLX3mhmLAuA1SxEYA8FGHwaDvsGY7V149ZIAPYGx7jJLxwTYcBB/A7/inQ0HF4rhoHxS3ElAFAB30g7gvhITE0vjy+0+ILgfX3hlAxiFTF0IOCPAhoOTEGxoUkxMzDHBJASsJiAKgNWEA7z9tLS02pmZmWOA4VZ25wtwHDJ9IeCSQF6Soi+Qwvi1qKiofS4rSAEhYJCAKAAGwUm1ogngib8Tvsj+g1IcmjdYeAkBIaCPAP5+svC3wzYC45GLYJu+2lJaCLgmIAqAa0ZSQiMBtt7H/f5QvD+CKm01VpNiQkAIFEEgzy5gCq4GXsbVwBqBJQRUERAFQBXJAG4nLzzvaLw/BAw1AhiFTF0IWEoAysBM/J29FB8fv9jSjqTxgCAgCkBALLM1k8QXUTye+B/K2/hLWNOLtCoEhMCVBKAI/IPXS/AcmCF0hIBRAqIAGCUXwPX4if/ixYsPAMFjeJUMYBQydSHgUQJQAtZiAC9DEZjCUQc9Ohjp3OcIiALgc0vmuQFz5j3E578X70+IK5/n1kF6FgIOTgS2s7EgbAS+Y+NBISQEtBAQBUALpQAvg80+HEf9dwDD0xKxL8A/DDJ9byewHwrAazgR+ALvad4+WBmfZwmIAuBZ/l7dOzb7UBz1j8IXybOSmMerl0oGJwQKEcDf7HG8XsGJwEd4zxQ8QsARAVEA5HNhRyAvFe/NOTk5z+GXNQWREBACPktgB1ISPwxFYLrPzkAGbhkBUQAsQ+ubDeOJvxtG/g6UgKa+OQMZtRAQAg4ITAsPDx8TGRm5U+gIgXwCogDIZ8FGIC8z3xvY+K8RJEJACPgfAb4KwN/3u4gq+F/8nOh/M5QZ6SUgCoBeYn5WHl8IsbDsfwrvY/CK8LPpyXSEgBC4ggA2/xOIKvhUdHT0l+I6GNgfD1EAAnT9OQ0vNn5O0DMer/IBikGmLQQClgA2/zWwD/gXFIGlAQshwCcuCkAAfgCQqKcjpv0OXq0CcPoyZSEgBAoQgCLwHRSBx6EIHBYwgUVAFIAAWm/c81fNysp6FU/8NwbQtGWqQkAIuCAAJSAFRcYjfsAbEj8gcD4uogAEwFpzlj4c9z+M9+fxig6AKcsUhYAQMEaAAwk9AkPBX41Vl1q+REAUAF9aLQNjRQS/Ztj0J+LV0kB1qSIEhEAAEoASMB+vh3AisDEApx8wUxYFwE+XOi9u/zi8/4cj+vnpNGVaQsAjBM4np9Hxc0kUERZCMRHhFBMZTtGRYeRPX6hQALIB9xMoAU+K26BHPmaWd+pPn1fLYflKBxzMB5v+pxhvbV8Zs4xTCHg7ga0HT9HcDfto59EzlJiSbjdcbJIUHRFG8VHhVLdyaWpWozw1rFqGwkNDvH1qrsZ3AHMbhWuBBa4Kyu99i4AoAL61XkWOFpt+cRz5v45Ct7Obnx9NTaYiBDxGYO/xc/T5rHV0+Iz+2Dlh2PwbVLmkDDRLKE8l46I8Ng8zHUMBwFdK7ttQAp4WI0EzJL2rrmwS3rUehkeDp36O4PcB/kgrGG5EKgoBIVCIwMqdR+izmWspI4tPw81LnUqlqF/LWtQCCgGfGPiaYMxbEURoBHILrPW1sct47Qn43idQVrEQATzxl8em/xFeQwWNEBAC6ghMXbGDflu6jXLVNXm5pXLFY6lfi5rUqWFVn7siyMsu+AJsA8bn2QlYQEiadAcBUQDcQdmiPuDaNwgZ+z7H5l/aoi6kWSEQkAT4yH/RlgOWzz0WxoM9myZQr2Y1KD7a5yJxr0CCoRFIMLTLclDSgSUERAGwBKu1jbIvP57838L73db2JK0LgcAjsP3waRr/8z9unTh7EwxqWxenArUoNCTYrX2b6SwvgNCjsA34yEw7UtczBEQB8Ax3w73iqb9Fdnb2d2igruFGpKIQEAJOCbzyyz+07dBpjxAqXyKWRnRvQo2qlfVI/0Y7hSIwC+GERyOc8BGjbUg99xMQBcD9zA31iKf9YBj6PYI/tBfxc5ihRqSSEBACRRLYceQMvfzTYqdl+Em9c4Nqtg26fIkYSkzNoItwCTx46gKt3HWUjp29qIRwq1oV6aZujamUb3kNnIOB4P2wDfheCQRpxHICogBYjth8BykpKZXx1D8ZG393861JC0JACDgj8P6fK2n17qMOfx0H//4xQ9pTjfIlnAI8fDqR2HNAhTLA8QMGtqlD/VvV9rVrgR+hBNyHh5Wz8knzbgKiAHj3+hCe+odh4/8Ew3T+rePlc5DhCQFfIfDctwto/8nzDof76DUddB3N5ysDS7cfolMXONeOMSlXPIZuwbVAk+rljDXggVrY/I/idTsUgRke6F661EhAFACNoNxdDJt+LDb/99HvKHf3Lf0JgUAl8PDEmXT2Yqrd9DmAz1u39zHku5+dk0uLNh+g31dsp/NJaYbRtqhZgW7GtUDpeN/J5wUlYAKUAL66TDY8caloGQFRACxDa7zhtLS0upmZmVOgBNQ33orUFAJCQC+BO97/kzIdBP3hkL6PXdtRb3OFynMwoTnr99Jfq3ZRclqGobb4WuD6zg2pN9wGfUWw+W8JCwsbDHfBPb4y5kAZpygAXrbSiYmJQzCkr/CK97KhyXCEgF8T4I2fFQBHUqlUHL08sqeS+admZNH01bto5to9lJaZZahNDi18R5/mFBflM7ED2EDwBpwGzDY0YalkCQFRACzBqr9RtvKHix9b+D8hcfz185MaQkAFgYc/wxVAkv0VAD95f3hvf6VR+y6mptPUFTtp3sZ9lJWdo3v4xWMi6a5+LW0Jh3xBOGogXo9BCXjLF8YbCGMUBcALVhkbfikE9vkO7328YDgyBCEQsATe+3MFrdl9zOH87+3fitrVraycDbsQTpi+mo6c0e9CyF/gDeGSGBUeitTEoRQON8UIKCu2n23vIbYERFXLFPMm24GvETjoLkkqpPyjpLtBUQB0I1NbIS+wz29otZralqU1ISAE9BL4a+VO+nnJVofVmiaUs7kBWiFsH/Djoi00Z8NeK5q3tRmFVMVVS8dTFSgDrBBUwc+V8fJQuuJVoaGhQyVwkGXLralhUQA0YbKmEJ76R+Gp/2O8Iq3pQVoVAkJAD4EtB0/Ra78ucViFvyyfvL4z1UVGP6tkw74TNHHWWkpEcCF3SEhwEOZTmlrULE/N4WXgTg8DnAAcR/TAa6EELHXHXKUPewKiAHjgU4ENPxyb/zt4v9cD3UuXQkAIOCHAhoAPwQ4gyYmVPhsDvnBzd0sD8/DmPxHJiDbsO+72deKTAXY3bA6FoHrZ4pb3DyUgA9+D98fHx0+0vDPpwI6AKABu/lBg4y+HDH5T0K01Z4luno90JwT8jcBP/2yhaXDVcybXdqhvS9xjtczbsI94LOw14Alh24G2dSrZshWWKRZj6RCgCHwI48CH8O6ZyVo6O+9tXBQAN64NAvvUh7b7N7qs7sZupSshIAR0EDidmEKPTppNObm5DmuFwbjupRE9iCP0WS18GvDzP1tpMVITOx6N1SMgW/Ajtn/g2ANscGjVpoF+FmI2w2AgeMr6WUkPTMCqtRS6VxDA5t8dmz8b+1l/rib0hYAQMEXg3akraO0ex94A3LCKwEB6BrjvxHn6Zv5G2n3Ms+H1KyBbYS8oAp0aVKVIeB5YIAcQL2AITgPWW9C2NHkFAVEA3PCRwLH/SGz+EyWLnxtgSxdCQAGBXUfP0os/Liqypbvhg9+hfhUFvWlrgk8A1u85TjuOnCZWCA7AfTA1PVNbZcWlePPvDCVgQOs6VDxWrQ0zTgI4ccJonAT8qHjY0pwoAO79DODJfxw2/ufc26v0JgSEgFkC7Ju/bPthp82wW90LN3Wjsm64CnA0CFYITp5Pov0nLtA5BC9iW4EUKAT8YsUgJSPTlnvg5IVk4nwEVgi7EPZpXpOubl2bosFDpeAkYHxMTMwzUAj0R0lSORA/bktOACxaXLb0x+bPlq0jLOpCmhUCQsBCAueweT7+5WxKz8x22gtbzY+9sQuxXYC3CkcZPA5F4SgCDXGwoSNnEuno2Yt0/BwrBmr21pjIcFvq4l4wGFTMYhpOAm6QZELWfLpEAbCAKzb/4jj252Q+3SxoXpoUAkLATQT+WoXAQDDCK0q6NKxGtyMuv68JBx/afOCkzdZh/d4TxKGJzUrJ2Cga2qGezUYgGMaDimQplID+UAIuKGpPmskjoGyFhOglAqmpqQlZWVnTJJOffCKEgO8T4KdntgXgO/eihBUAVgR8VfB9RWz3wMrAWtgZnMCJgRnheAk3d2uiLE8BNv+1GGNfxAs4bWZcUrcwAVEAFH4iENa3JXz8/8YHtazCZqUpISAEPEiAkwON+24hXUhOczoKPvbmqwC+EvAH4auC5TsO01zEIjCaupg58EnA8K6NKBZXBGYFSsBW2AX0gl2Ac/cMs50EWH1RABQtONL4dkJT0/CSNL6KmEozQsBbCPDT8Su//FNk1j42BmSjQDYO9Bdh+4cFm/bTjDW7HWZJ1DJPTll8c7fG1L6ekkRKe8LCwnpGRUUd0NK3lCmagCgACj4huO/vjaf+3/GKVtCcNCEEhIAXEli4+QBNmr2uyJFxGN1/D2rrhaM3NyQ2Fpyzfh/9tmwbpRmMTNikejm6tWdT0/kGcBJwmJWAyMjIneZmJbVFATD5GcCT/2B8IH/E5h9hsimpLgSEgJcT+HreRpcZ+27r1Yy6Na7u5TMxNjz2jPhmwUZaveuooQY4PfG1HRrAdbCGLcKgUUHdE3j1QcCgjUbbkHoSCdDUZwBP/sOx8U/Gy5KQWKYGJ5WFgBBQToD96Tlb4PbDzm3RohAk5+VbexJbxPurcKKiSXPW2+IMGJF6lUvTPVe1ohLmggidQ0rhfsgmuNLIGKSOKACGPwN48r8DGugn2PyDDTciFYWAEPA5AhdTM+j57xfQqQscsM6xcOz8MUP8O98XGwd+NW8DrdhxxNAaxkWF0519WyDPQHlD9fMqXcT38EC4CXIeARGdBIyfwejsyJ+K48n/IWz8b+El/PxpYWUuQkAjAbaSf+GHhUXeh7s7VLDGoSsvxt4Ck6EIJKfpD0vMX6B9WtSk6zs1NJxiGQpAKl7X4DpghvLJ+XmDsoHpXGBE93sGG/9/dVaT4kJACPgZAT4Gf/uPFcQ+9I6Eo+ONx1VAsWj/Nw9i24CJs9baAgsZkYRyxem+/q0Nh1WGApCBfofjJIATroloJCAKgEZQXAxP/q/Cz/8xHVWkqBAQAn5MYDrc435YtNnpDFvXrkgPDGjjxwQKT23Ohr3046ItxFEG9QrbToyCAWW7usbcBaEEZON1G04Cvtbbd6CWFwVA48rL5q8RlBQTAgFGgJ98F2856HTWD0IBaAVFIFDk+Lkk+nTGGtpz/JyhKV/Vshbd0LmhIS8BKAB8HHM/TgI+NtR5gFUSBUDDgsuxvwZIUkQIBCgBDhf8zNfz6Bg2PkfCVwCv3tab+AnXKuFMgJzsJx59lSnm+XAkObgW+XPlTvpj+Q5DCYfYiPJeXAkYZYaIgY/hJOB1q3j7S7uiALhYSTb4w7H/2/6y4DIPISAE1BPYeugUvfrLEqcN39S1MfWFsZtq+WnxFoTsPUJnLv7fI4HD7tYoX4I6Igxvu7qVVHepq739yKHwCU4DOPugXuF8Ag8PbgeFJkZv1fzyTyF3wHijlQOhnigARaxynqvfp2LtHwh/CjJHIWCOwITpa2jZ9kMOGymHMMF8CqD6C3fDvhP0zh/LiZ+4HUmHelXoDrjahQSr7lk7q0zYA/yEjIqz1u3RXimvJCszDw5sQxw3wKDcASXgc4N1/b6a5z4VXo42L8jPN+Ln7+ULJcMTAl5C4EJKOj3x5RxKSXfsDjdmSDuzPu8OZzpn/V76er7zgHgDWtehYZ0aeJzSGmQanDhzrVM+zgYYEhxMI3s0MRRdkQ0DcR0wFAmE/vQ4AC8cgCgADhYlL7zvLxLhzws/sTIkIeDFBOZt3Edfzd3gcISNqpWlR6/pYMnoWQFgRcCR8Jf849d1pPpVyljSt55GT11Ipg+mrSK+GtArV7eubYsXoFc4TkBISEhPRAxcpreuv5cXBeCKFc5L7POnxPb394++zE8IqCfAMQHGfruADp66YNc4f9lyXIAKJeOUd8xXAHwVwFcCjqQhlI/HLFI+9E6GjSa/XbiJ5iHVsF7p3bymLbOggY3rLBSBTvAO2Ka3T38ub4Cj/+LglL74kMyUrH7+u8YyMyFgNYEl2w7Z3OAcSc+mCTjObmrJENIys+jpyfPodKLjEMWsfFS0QPkwOhmOIPjF7PXE49YjnGiJ4wXo3bzw3X4QJwEdcBJgLHaxnkH6SFm9DH1kWvqHmZyc3DI7O3seasbrry01hIAQEAKXCPAT7pjPZ9GFZPtEOZFhofTOnX0pKiLMElzb8rwRHJkEjkIq3u5NEizp12ij7Dr5/p8riEMr65FO8HC4vU9zCtaZURBKwGa4B3bGu/47CD0D9JGyogBgoVJTUxOysrKW48m/rI+smwxTCAgBLybwx4od9NtSx6fNVrkE5uP4GnH55zg4Xr+6Fe7QEWDH24RjGLASsOXgKV1D44iBd/VrqdvDAZv/YigBffBuLJWhrlF6d+GAVwCw6RfHvf9SvNf37qWS0QkBIeArBBLhEfDwxJm204Arhf3bXx7Z07KpcBhevgo4CYO7gjK8SyPqhyh73ijZOTn0BdILFxVR0dG4W9aqYMshEBqiLykrNv8pUAKuw7v9AnkjIIvGFNAKADb9cGz+fOffzSK+0qwQEAIBSqCouAAvjehBlUtbd9vIT9Ov/Vo4MNHYG7tSzQolvHo1fl++naYs265rjBw1kMMth4WG6KqHzX8CjALv1VXJzwoHtAIAo7/JWM8RframMh0hIAS8gMCCTfttT7WOZGCbOnRdR2t989kb4cDJS1fdvDlOuO9q3U/KnsD4z9aDNAnGgXwqoFUaVi1DDyFqYLh+JeA5KAEvaO3H38oFrAKA+P7j8OT/nL8tqMxHCAgB7yCwH5vvc9iEHQmHt31jdG9LB7pw8wFspOtsfXRtVI1G925uaX8qG9+KE4z3/lpJqU6CKjnqq26lUjRmSHuK1J9z4S5EC/xM5fh9pa2AVABw7D8S8f2/8pVFknEKASHgewT4CfauD/5yaAfAsxk7HEfyiNlvlbAtwEOfzST2PHhpZA/DiXWsGp+rdg+fSaQ3pyyjsxdTXRW9/PuaFUrSo0Pb6/Ky4GiBeBi8FkrAH5o78pOCAacA4Mm/O9aO7/2t8cPxkw+GTEMICAHzBF74YRHtOXbWYUOcHIg9AqwUzsjXAMfjVioaVo7/1IUUevnnxbqUgOrlituCHsUgj4BW4WiB2BN6QwlwntFJa2M+VC6gFABs/vWxyEuxPsV9aI1kqEJACPgoATZoY8M2R1I8JtIWEwCbj4/Ozj3DPnE+2aYEnE/S7rVXBQaWT1/fWddJAGZzLi9a4Fb3zMzzvQTMJw/H/uVw7L8cyKt7HruMQAgIgUAgsOf4OXrh+4VOp/rEdZ0Qo99wprtAQGib4zGkEx7/8z/ECZe0ChsG/mdoB11xAjhaINwDW+D9jNZ+fLlcQCgA7O6Hp/8FWKj2vrxYMnYhIAR8iwDnBnhgwnRKSstwOHAOa3sbwtqKuCbA0QLH4yTgYqpjlo5aMMKXw8FDCegfCDECAkIBwOb/Ef4QA9rf0/Wfl5QQAkLACgITpq+mZdsPO2ya76nfv7sfnlL1BbKxYpy+0CYnWXrllyWU7EShcjSHGxD9sD+iIOoRbP7Pwz1wnJ46vljW7xUAHP2PwtH/F764ODJmISAEfJ/AUiQH+sRJciCe3Zgh7ahpQnnfn6ibZsCphF9BkCOtLoK8yT0wsA21qlVR8wj56R+vq3ESMENzJR8s6NcKABL8tMDmvwRP/5E+uDYyZCEgBPyAwMXUdHrwkxnE1wGOpH29KnTPVS39YKbumwJ7Vrz221JKQx4BLcIBgp6CUWACPAR0yJmwsLAWUVFRB3XU8amifqsA4I+tFI7+OSdnNZ9aERmsEBACfkfg5Z8W044jju3K2E///Xuu0h3Fzu8g6ZwQ8+Rwx47yLThqqhi8Lp5D7IVScVF6elqFqwBOE6/d8EBP6x4u65cKADb/YBz9T8d7Hw/zle6FgBAQArRy5xH6cNoqpyTuv7o1talTSUjpJFAw2qGWqpx/4dkbuuiKFojN/2MoAfdpad/XyvilAoDN/2Uc/T/pa4sh4xUCQsA/CWTn5NIjn8+is0mOo9pxVrt/DWzrn5O3eFbfzN9Is9fv1dxLk+rl6GHYXQTriL8QHBx8C+wBvtXciY8U9DsFAAl+hkBj+w1P/343Nx/5TMkwhYAQcEDgL0Tl+3mJ4xgznM72g3v6+1y4Xm9YaFau3piylDh/gFbp2TSBRvZoqrU4B2tKQeG2OAnYrLmSDxT0q00yLS2tbkZGxkpwty7Ppg8sqgxRCAgB7yPA/usPT5xJmYjR70ju7NuCOjWo6n0D94ERsVvgc98tpFMXkjWP9uZujalP85qay6PgDigAraEMXNRTyZvL+o0CgCf+WBz9r8R7fW8GLmMTAkIgcAlMnLWWFm9xbFTeuFpZegQx7EWMEeBAQS/8sFCzZwCHYGYXTL4S0Cqo8wuUgGFay3t7Ob9RAHD0z77+o7wduIxPCAiBwCXAgWye/Wa+QwAhwUH07l39KC4qInABmZz5uj3H6d2py8mxw6V94/HREfTSiB7E71oF9gBjYA/wttby3lzOLxQAuPsNw5P/T94MWsYmBISAEGACRbkE8r0030+LGCcwdcUO+nXpNs0NNKtRnh4e3E5zeZwCZGG/6eYPmQN9XgFISUmpnJWVtRGrZ11ibc0fDSkoBISAECiawKpdR+mDv9hUyV4qlYqjl0f2FIQmCXz09ypaseOI5lZG9WxG3ZtU11weSsBRFG6O64CTmit5YUGfVgDy/P3n4L27F7KVIQkBISAE7AjYXAInwSXwomOXwEdhB9AI9gAixglkwNDyeWRhPHw6UVMjHCnwv7d0p/IlYjWV50JQAubjKqA33h1bdWpuyXMFfVoBwL3/Y0D3qufwSc9CQAgIAf0EinIJbAyjtEeGSuJS/VQL12B7i3HwDMjOydHUVEK5EvTsjV10pQ+GPcArUAJ8NuaMzyoAeXH+l+PpP0zT6kohISAEhICXEOD0wBwYKNVBLHv+Un4J1wB8HSBijsDvy7fTlGXbNTcyuG1duqaDdkcyPP2zvWF3XAUs1NyJFxX0SQUAm340DP/WgmNdL2IpQxECQkAIaCZQlLFaxwZV6K6+kiBIM0wnBfm6hV0DOYOgFuHogE/f0JlqVSippXh+md1QAJpAGXB8p6OnJTeX9UkFAJv/BCgBd7uZlXQnBISAEFBGgO+pH5k0m1AL6B4AACAASURBVC4kp9m1yV/MY5G4pkZ5sW02C5zjA4z9dr7mpEFlisXQiyO6Eydp0iFvwivgER3lvaKozykAOPoflJ2d/YdX0JNBCAEhIARMEJi/cT99OXe9wxZ482clwOe+pE3wsKrqtFW76Kd/tmhuvkvDanR7n+aay7MhYEhISIfo6GjH7h2aW3JvQZ/6bCHSX3k8+W/Cq7R7MUlvQkAICAH1BPiI+qnJc+n4uSSHjd/RpwV1bijhgc2Sz8nNpRd/XEx7jp3V3NRDg9pR85rlNZeHErAFBoEtfCl1sE8pADj65yQ/QzWviBQUAkJACHg5gdWIC/C+k7gAMZHhNA6nAGWLx3j5LLx/eMegZI1FFEa+etEiFUpyTIYeurIGYvN/AfYAz2lp3xvK+IwCgM3/Gmz+v3oDNBmDEBACQkAlgRfgs77n+DmHTfJGNBbuadER4vBklvnMtXvou4WbNDfDhphskKlVoABk4tUSJwHaO9HauAXlfEIBwMZfHMf/W/FewQIG0qQQEAJCwKMEth8+TeN//sfpGDgw0Jgh7XX5qHt0Ql7aOfYQG+cdR85oGiEbBL46qpde7qtxCtDOFwIE+YQCgKf/z7Bwd2haMSkkBISAEPBBAm/9vow27DvhdOR6c9j7IAK3DPnk+WR65pt5lJ6p7Srgtl7NqFvj6nrH9ji8Al7TW8nd5b1eAcDm3w1Q5kEB8PqxunvxpD8hIAT8hwCHrX0Gd9T8lOpMRnRvQr2a1fCfSXtoJrPX76Vv5nMKGddSMi6KXr+tN4WGBLsunFcCT/9pYWFhTSMjI3dqruSBgl69qeIPIRIKAK9SbQ+wkS6FgBAQAm4l8OnMNbRk6yGnfXKgmkev7UANqpRx67j8rTP2Cnjm63nEMQK0iBHFC0rAYtgCdM2LFqilG7eX8WoFAPf+r+Tk5DzudirSoRAQAkLAAwQ4KNDT2JgupmY47T0uKoJeuLkb8ZOpiHECfN3C1y5apHhMJL0+ujdx0iA9gs3/AdgDfKinjjvLeq0CgM2/GU4AVuGlKxyTO+FJX0JACAgB1QTW7jlG705dUWSzDaqWocev7ai664Br77Vfl9CWg6c0zXt4l0bUr2UtTWULFErCVUCjqKioA3oruqO8VyoA2PRDoACswLsEw3bHp0D6EAJCwKsITJq9jhZuLnrPYOt0PelrvWqCXjIYzhg49tsFRdpd5A+VT1zeGN1Hr0cApw2ehVOAvl4y5ULD8EoFAJv/Izj6f90bgcmYhIAQEAJWE2AL9WdhEHjivOMIgdz/gNZ1aFinBlYPxe/b/3zWOlq0RdsD+v1Xt6Y2dSrpZoK0wbfBHuBL3RUtruB1CkBqamrVrKysbZzxz+K5S/NCQAgIAa8lcDoxhd6YsoyOnXVsqMaxAR69poPXjt9XBnYedhePfTFbk1tg7Yol6ZkbuhiZ2jkoAQ2gBBw3UtmqOl6nAMDq/3ts/jdaNWFpVwgIASHgKwSS0jLo7d+X024HMeyrlytOz9/UzVem4tXj/H35dpqybLumMY4D8wSw1yu4CpiCq4Br9NazsrxXKQCJiYls1eI8HJaVJKRtISAEhIAXElix4wh99Pcqu5FVKBFLr8AOQMQ8Ac4P8ChOAc4n2admvrL19vWq0D1XGTNPwylAL5wCzDU/YjUteI0CwIF+8PTPqRRbqZmatCIEhIAQ8H0C70xdTuv22J8c810030mLqCGweMtBmjhrrcvGQoKD6a07+hC7BuoVnAKshQLQyltiA3iNAgDDv1Ew/PtCL1ApLwSEgBDwVwJ8BfCvT2ZQdk6O3RRH9mhKHB5YRA0BjsDIHgHsGeBKBrWtS9d2qO+qmMPf4xTgZigB3xmqrLiSVygAAB8LBWAX3rUnX1YMQpoTAkJACHgbgXkb9tFX8zY4HJa4Aapfra2HTtGrvyxx2TAHY3obpwBhOgMD5TW8D7YA9XAK4Dzak8sRqCngFQoANv+X8fT/pJopSStCQAgIAf8g8OKPi2jX0bN2k6lcOp5eGtHDPybpZbN4+4/ltH6va2P92/s0py4NqxkaPU4BHsYpwDuGKius5HEFAG5/CXlufxEK5yVNCQEhIAR8msDZi6n08MSZDudwDY6fB+MYWkQ9AXa7fGryPOJ8AUVJFShhLxpXws7gFKAmTgFc3zeon+LlFj2uAMDw71cc/XuVa4SFvKVpISAEhIAmAvM37qcv5653WPaVW3tShZJxmtqRQvoJTJi+hpZtd56UKb/Fx6/raDgxE04BXsEpgEdPvj2qAHCqX2z+8/Uvj9QQAkJACPg3Ac4HwHkBrpTKpXD8P1KO/61c/cNnkJoZpwBFnwEQNa9Znh4a1M7QUPD0nxoSElI7Ojr6iKEGFFTymAKAjT8Yd/9r8d5UwTykCSEgBISA3xDIys6h+z/+m9Iys+zmNLR9PRrSrp7fzNVbJ+LM/bLgeLGJ02uIxVC2eIzRaUyKj4+/3Whls/U8pgBg8x8Bw7/JZicg9YWAEBAC/kZgKzLUvYpMdY5kPI7/K8rxv+VLvuf4OXrh+4Uu++nTvCbd3K2xy3KOCkCBYP/OprAH2GyoAZOVPKIAcIpfHP9z3MWaJscv1YWAEBACfkfg+0Wbacaa3XbzqlQqjl4e2dPv5uutE2KXQHYNLEoiw0PpnTv7URTeDco0nAIMMFjXVDWPKAAI+XsHRv2ZqZFLZSEgBISAnxJ45ut5dOh0ot3s5PjfvQu+BScxrzk5iSk4kpu6Nqa+LYw/z+IkoBtOAVwfNyievtsVADz9h+cF/amqeC7SnBAQAkLA5wmkZWTRPR9Nc5ijnp/++RRAxH0Exn23kPadOFdkh8VjI+nN0X0oNCTY6MBWQQFo6+4QwW5XAHD0fx+UgA+NUpJ6QkAICAF/JuDs/r9MsRh6Y3Rvf566V85tDTwx3oNHhisxG5oZm/8NUAJ+ctWPyt+7VQHAxh+Jp/89eK+ochLSlhAQAkLAXwhMXbGDfl26zW46LWtVoH8NbOsv0/SZebAr4NOT59KRMxeLHHOpuCh6HQoaJwsyKHugANSHIpBpsL7uam5VALD5PwzL/7d0j1IqCAEhIAQChMBbvy+nDfvsQ9Fy5D+OACjifgJLth2iT2escdnx6N7NqWsjY+GBuXFs/v+CEvC+y44UFXCbAoCn/hgoAHvxXlbR2KUZISAEhIDfEWD/f84CeKVw6l9OASzifgLZObn02Bez6XRiSpGd8zUNJ2kKCTa2tUIBOIXogBwiuOjjBkUIjI3SQOew/H8c1V4xUFWqCAEhIAQCgsDxc0n0+JdzHM5VDAA9+xGYi8yMk51kZiw4srv6tqSODaoYHiw2/+dxCjDOcAM6KrpFAcBTfzyM//ZhXCV1jE2KCgEhIAQCioCzo2a+V/7swQFm7pcDiqMVk83Myqb/fD6LLqSkF9l8hRKxxMGaOEqgQeFEQVVRv+jjBoONF6xmeIR6+sbmPxZKwPN66khZISAEhECgEfhlyVb6c+VOu2lL/H/v+CRMW72Lflq8xeVg7u3fitrVreyynLMC2PzvgxLwseEGNFa0XAHgu38oAJxWqYTGMUkxISAEhEBAEvhw2ipaudM+NwxvJrypiHiWAMdo4BTNKelFG+qzwvYiEjaZ2GB3QQGolxcq2LJJmxiftjFh838QSsB72kpLKSEgBIRA4BJ47rsFtP/EeTsA18L6fxC8AEQ8T4BdNNlV05U8OLANtaplyuN9CEIE/+GqHzO/t1QBwMYfAgVgFwaYYGaQUlcICAEhEAgE7kUEQEdPl/8e1JZa1KwQCAi8fo4XUzNoDE4BMmATUJRUK1uMXri5u+H54Ol/MU4BuhhuQENFSxUAbP7XQQn4WcM4pIgQEAJCIKAJsOsfuwA6ktdv620m5WxAc7Vi8t8u2ESz1u1x2fTDg9tRsxrlXZZzViAkJKRNTEzMKsMNuKhoqQIA17/l6F9CV1m1etKuEBACfkNgL9LPPu8g/Sx/SX/x0GAzVuV+w8hbJnI2KZUenTSbsrI5m69zqVG+BD03vKvhYeMU4AecAgw33ICnFABs/p3Q92KrBi7tCgEhIAT8icCy7YdpwvTVdlMKCw2hiQ8O9Kep+sVcJs1eRws3H3A5l0ev6UCNqhmLfwcFICs0NLRmVFTUQZcdGShg2QkAjv+n4Ph/iIExSRUhIASEQMAR+AOGZb85yAEQFRFGE+67OuB4ePuET5znoE1zHWZtLDj2OpVK0dPXdzYznbdgDPgfMw04q2uJApCWllY7MzNzOxQAw1kRrJistCkEhIAQ8FYCX8xZTws27bcbXnx0BL1/91XeOuyAHpczt80roTw5rBPVq1zaKKtEXANUwWlAotEG3KoA4On/Y2z+96gerLQnBISAEPBXApxshiMBXiklkWXu7Tv6+uu0fXpeB09doGe/me9yDg2qlKHHr+vospyzAsHBwY8gR8CbhhtwUlH5CQDu/ktDUzkIBSBK9WClPSEgBISAvxL44K+VtGrXUbvplSseQ6/BC0DEOwm8OWUZbdx/wuXgnsI1QF1cBxgR3lPzkgRlGanvthMACfurcnmkLSEgBAKFwNt/LKf1e+3TAFcqFUecCMhKuZCcRsViIq3swm/b3n74NI3/+R+X8zNrCwAlYDiuAn5w2ZGOAkpPAPDUH4aUv4cl5a+OFZCiQkAICAEQePXXJbT14Ck7FtXLFqfnb+5mGaOZa/fQur3H6Inr2HFLxAiBpybPpSNnXGfwfWRoe2pcvZyRLrjOahgDtjZa2VE9pQqABP5RuTTSlhAQAoFE4MUfF9Ouo2fsplyrQkl69kZrAsKxGxu7s/FG8Pro3sT57EX0E5iNoEDfIDiQK6leDsrcTcaVOZwCdMUpwCJX/Wj9vWoFYBae/uWySit9KScEhIAQyCPw3LfIA3DSPg8AW4+zFblqOXYuicbCgC0/pC3nGuCcAyL6CXD45n9/OsNleGBu2WSOgKk4BRisf4SOayhTAFJTUxOysrL2QAFQ1qaqSUo7QkAICAFvJ/DkV3Pp6Fn7Y+TGCCLzCILJqJSc3Fx68YdFtAfRB/OlRGwkvQVvg2DjeexVDtHn2po4ay0t3uI6Xg/bdLw0ApkCDXDm7IBhYWH1IiMjOceOaVG2WeP4/0Vs/k+bHpE0IASEgBAIQAKPTJpFpy6k2M2cY8lzTHmV8ufKnfTLkq12TY4Z0p6aJhi+o1Y5RJ9ri5WpFxyEcnY0kbv7taQO9asYmiOUgI9xDXCfocpXVFKiAHDWPxj/seufqdyHKiYkbQgBISAEfJHAQ5/NoHNJaXZDTyhXgsbdZDye/JUNHjqdSOO+W+Awjj2nr+UjahFjBDgmAMcGcCVl4dr5yq29KCTY0BacBAWgHBQBe23RVcdWKADJycmDsrOzLc1brHNeUlwICAEh4FMEnG0ecVER9ME9aiIBZufkYPNf6HSTCgkOpnfu7EscfVBEP4H5G/fTl3PXa6p4W69m1K1xdU1lryyEzf9GKAE/GqpcoJIh9ePKThH850/83wCzg5H6QkAICIFAJeAsDgDz+PSBgRQRFmIazZRl2+n35duLbOfGLo3oqpa1TPcViA2kZWbZjAHTMlzH6ykZG2XzvAgNMRQx/08YAw4yy9i0ApCSklIZT//7+RrA7GCkvhAQAkIgUAnwkyM/QToSDgTExmNmhC3VH5440+XmVLFkHI2/1drAQ2bm4e11v5q7geZt3KdpmDd1bUx9W9TUVLZgIZwAZCIyYHm8n9VduUAF0wqARP4zg1/qCgEhIAQuEZiKbIC/OsgGyL9TYZz3Fwz/fnZg+OeI/zM3dKHaFUvK0hggoDU/ADfNVy1vjO5j6HQHm/89uAb4xMAQL1cxpQBwtj8Y/+3De1Uzg5C6QkAICIFAJ8AuZOxK5khG9mhKPZsmGEaUlZ1DYz6fRRzyV4t0aViNbu/TXEtRKeOAAHsDFHSxLArSdR0b0MA2dXRzhAKwGAqAqQhRphQAbP79cnJypuseuVQQAkJACAiBQgQ2HzhJr/+21CGV/q1q0w2dGxomlh/xT2sDkWGh9O7d/YjfRfQTKEqZu7K1mMgw2ylAdESYro6gAOSGhoZWj4qKch18wEnLphQAHP9/h6f/4bpGLYWFgBAQAkLAjgAHAeJgQI6kTZ1KdP/VxsPAP/31PDoM9z89cnO3xtSnuf77aT19+GtZjq7IxoBsd6FFTERhfALGgK9q6cNRGcMKAKf7hQJwEo3GGu1c6gkBISAEhMAlAqmwHL/nw78c4jATC+DE+SR67Is5ujEXR3bAN2ClHhYq9t264aHCt8gNMAs5ArQIn7S8cXtvYpdPPYJTgE24Bmiip07BsoYVAGz+10IJ+MVox1JPCAgBISAEChO4GwqAIxcyM7EApq3aRT/9s8UQ6ltwCtBbTgEMsSvqRMdRg+wNwF4BegVKQGMoAZv11uPyZhSAn6AADDPSqdQRAkJACAgBewLPfYeEQCfsEwJxyc8eHEjhBp7G9RikXTmi4sgP8MZtcgpg9LPKNh1s26FF+KTldbDmnAx6JDg4+BW4BD6pp05+WUMKADb+GBgAnsR7tJFOpY4QEAJCQAjYEyjq2Pip6ztT3UqldGE7j9DCHGI4V1etwoVHdG9CvZrVMNFC4Fbdc+wsvYCkS1qle5PqNKpnM63F88sdwAlAAhsF6q1oSAHA8f8N2Px/0NuZlBcCQkAICAHnBFbtOkof/LXSYYEh7erR0Pb1dOGbu2EfTZ63QVedKwvzEylbqRuMWGeqb3+o/Nbvy2jDvhOapsKhmF8d1ZPKFIvRVL5Aoc4wBvxHbyWjCsBvUACG6u1MygsBISAEhIBzAuyn/y9YjzuS2hVL0TM3dNaF770/V9Ca3cdc1ikGg7/o8FA6di7JYdkRPXAK0FROAVyCdFCAr3T4akersPFl+3qVbdkCq5Yppqkanv4n4BTgXk2FCxTSrQBg44/LO/7Xd1Ghd2RSXggIASEQgAQe/WI2nTyfbDdzzhz30b1XUyQ2aq3C1v/sBeBKhiEYTeli0fTx36sdFjUZt95V937/+w+nraKVO4/onieHf+5Qrwq1g0JQOr7IG/czUAAqcIhgPZ3oVgCw+d+M4D/f6OlEygoBISAEhIA2At/AfWy2E/exMUPaUdOE8poaYl/0uz74i/DQVmR5Ptp//+6rKAqKBccLOHLmosPyZqMRahq0nxZiz44Xf1xEnIrZiPBGXQf2H+2hDLStW8lh0KCQkJCBMTExjv1InXSqWwFA5r+paGugkUlIHSEgBISAECiawK6jZ22bhSPhwDwcoEeLHDh5gcZ+O99l0XqVS9OTwzrZyhVlg1AyDtnrYKUutgAukToscDYplZ5HiGA2zDQjnBWya6PqtiRCBU8F8PT/PU4BbtLTti4FAJpksbzj/3A9nUhZISAEhIAQ0EaAn9fHIGvf2YupdhU4HsA7d/bVtAkv2XaIPp2xxmWnbFjIBoYs3PezOAVw9qR6a8+m1KOJ8ZwELgfj5wU4UdBLPy4mThtsVvhKiCNEcphothWAApACd8ByeHd955PXuS4FAJv/rTj+/9LswKW+EBACQkAIOCfww6LNNH3NbocF7urbkjo2qOIS30+Lt9C01btclrvSvXDtnmP07tQVDuvxKcCro3oZikfgciABUmDHkTOwtVhF50yeBBTE1ahaWZsi0Lh6uRFQAjRf0etSAOD+9ytOAa4JkHWSaQoBISAEPEKgKMtxrWGB3/p9OdzPjhc5fj7O/+T+AXYnCkUFsDHijugRiF7caXJaBn0xZ73tykWlNEkod/j5kX1da4d6TwCw8YdCATiDevEqByxtCQEhIASEgD2BV39dQlsPnnKIZuzwrlSzfIkisWlJAFS5dDy9NKKHXTsn4IXw1OS5xGmErxSOWDd+ZA8jvuqyzFcQ4KyB3yzY6DD8sxFYbB8woEebYre0q63J2lDzCQA2/y5QAhYaGZTUEQJCQAgIAX0EduKo+KWfFjusxEe+j17TocgGtbgAskX5ff0dZxmcsmw7/b58u8M+mtUoTw8PbqdvQlLaIYELKem0ZOtBWgRl4BgyQpqVXs1qPn7/4I6vaWlHswKA+/+Xcf9vKN6wloFIGSEgBISAEChM4NVfcApwyPEpwF39YAuAYDHO5GEnhoQFy1/ToT4NblvXYROZcCN8cvI8OnXBPiYBV2AFgBUBEXUEdiN08KLNB2xXA1pTCV/Ze4taFdc8e3OvVlpGpVkBwAnAWpwANNfSqJQRAkJACAgB8wTYYOxlJ6cAcVHhNP7WXkgh69gp64EJ0+lianqRg3hwQBtqVbui0zIb95+gN6csc/h7DlfLVwGSLtj8Ol/ZQnZOLu04cprW7TlO6/YegxKWormTciVi0yf86xpNgfo0KQB4+i+Pzf8oXprKax6pFBQCQkAICIEiCbzyyz+07dBph2Vg9Y0n8bbEMeSvFGephQuWe+XWnlShZFyR/b//50pavduxsVpBF0JZRusIHD6TeEkZgIfG3uPnXCZ3GtCmTufbr2rnMjeApg1d3P+sW1hpWQgIASFQFIHth0/T+J+df5fzPf69V7ViP/BCzdz+3lSHRnz5hdgD4NMHBkJ5KHob4HgET3w1h9Izs+2GyemJx0OJcBGmVhZYIQHOF7F0+2Gau2Gv05OBzg2q/jBmWLfhrrrVpADg+P97PP3f6Kox+b0QEAJCQAioJ8AKACsCzoTv4m9BhMD8LHIc0GfU278XOZCEcsVp3E3dNA32b8QT+BFxBRxJ85rl6aFBYhCoCaTCQhzied3e4zR7/V47bxGEDT7x6h1XuzTQcKkAoJNgKABshVJS4dilKSEgBISAENBIgPPKs0cA3w07E36i5/Cwg9rUpWA81d/5/p9Ftj4Ixn/XwghQi2Tn5NCz38x3midgzJD2yFFQTktTUsYCApy/Yfb6PfAmOEScA0KrO6BLBSAlJaVdVlaWYysQCyYiTQoBISAEhIA9AY4MyBECXUlURBhVhX8/GxAWJVdGAHTVblEGieWKx9jiCYhBoCuK1v4+OS0T7oQHaA5OBZrVqODSHdClAoCn/+dxCjDW2mFL60JACAgBIeCKwPt/wSBPQfQ4zvz3IVILu7r/v3I8nFuAcww4Ej59uKmrtkRFruYpvzdHgK8HTl5I+aB21QoPFtWSSwUA2f84KHQbc8OR2kJACAgBIWCWAKeVHffdAjp2TnO+F6WbdSKC1jz+5RyHPuq8mTyBrIKcXVDE8wRgFLoE2QEvpXl0IkUqANAi4uEBcI7tADw/HRmBEBACQkAI8H3v898vcGiVr4UOW+y/PLKn7Z7YiBSVZZDbfhFXAXzCIOJZAlAA0pAYKB7vmYYUAGz+fRH9b4ZnpyG9CwEhIASEQEECHCluwvTVRbr5OSP2CEIIN0YoYTMycdZa4jj2jqRzw6p0R58WZpqXuooIhIaGto2Ojl5pSAHA/f8LePp/VtFYpBkhIASEgBBQRIBzy3/092pd8eP1WP4XNUy2NOerCD6NcCT/HtSWWtSsoGim0oxRAsHBwQ/jFOAdowrAPCgA3Y12LvWEgBAQAkLAOgK8EX+7YBMt2LS/yE4iw0Lp9j7NqU2dSsoGw5s/KwE8hislPjoC1ww9EKY4Qll/0pB+Ajj+/wl2ADfoVgA4/S+uAC7gPVp/t1JDCAgBISAE3EWAw8T+s+0g7Tp6ljhSXL4Ui4mkupVK0ZB29ahSqaJD/hoZK7ucfT5rncOqLXEC8C+cBIh4jgAUgENQAKrqVgCSk5NbZ2dnO7078NyUpGchIASEgBBwRoCz9x08nUiVS8UT++dbLZ/ANXCpE9fAO/u2oE4NnO4/Vg9N2gcB2AFUgR3AYUcwnHoB4On/IRgAvi0EhYAQEAJCQAg4I5CWCdfEbx27JrI3wH9v6X45RLFQdD8BnAJcj1OAn3UpADAA/AXH/9e6f7jSoxAQAkJACPgSAbYHePHHRQ7jA1RBVMKxw7sSJw4S8QiBt+Pj48foVQCOQQFwmUzAI9ORToWAEBACQsCrCOw6eoZe+3WpQ6NAzlh4X//WXjXeABrMCigADrM1ObwCSEtLq5mRkbE7gADJVIWAEBACQsAkgQ37jtO7U1c4TFp0Q+eG1L9VbZM9SHW9BHAFkJEXECj9yroOFQDc/4/E/f9XejuS8kJACAgBIRDYBDhS4GcwDLwyb2FwUBBxEKKGVcsENiAPzB6GgB1hCLhUkwKA+/9Pcfx/pwfGKV0KASEgBISAjxOYgcyF3zvIXBgTGU7P39QNRoHiXe7OJUZAoEdxCvCGVgVgExSARu4coPQlBISAEBAC/kPg53+20l+rdtpNqGqZYvTsjV3EKNCNS41rgN/gCWBn1G93BYCNPxxXAMkcCMiN45OuhIAQEAJCwM8ITJq9jhZuPmA3q3Z1K9O9/Vv52Wy9dzpQAI5BAajo8gQAm39T3P+v996pyMiEgBAQAkLAFwhwXvofF2+h6bgSuFJu7NKIrmpZyxem4RdjDAsLS4iKitpfcDJ2JwBQAEZAAZjsFzOWSQgBISAEhIDHCSzZeogmzVlXKHshGwU+CqPABmIU6Jb1gR3ATbAD+L5IBSAxMfF1FHjELSOSToSAEBACQiAgCOw5dpbe/XNloVwFsWwUeHM3Kh0vRoFWfwhwDfABrgEeLFIBgAfADBzb9LV6MNK+EBACQkAIBBaBs0mp9O4fK2j/yfOXJ16tbDF65gYxCrTyk5CYkk47Dp/Z2bNVvbquFICjUAAkkbOVqyFtCwEhIAQClACnD/5s5lpaufPIZQLt61Whe65qGaBE1E+bGe88coY2HThJWw6eosOnLlAYQjHXf+qmkHFBQTn5PRayAcDxf2n84pT64UiLQkAICAEhIAT+T2Dqih30+/Ltl6MGDm1fz5a2WEQ/AQ66dODE+csb/m6khc7MzrZraGC7eh1H921zOSBQIQUAx/898PQ/V3/3UkMICAEhIASEJaTVFAAAIABJREFUgD4CnERo8rwNtP3waVvFkT2aUs+mCfoaCeDSOfCyWLHjCP25cicdOZPokkTvZjWfvW9wxxcdngDAA+Df8AB4x2UrUkAICAEhIASEgCICy7Yfph8QOfAC7qrvQ3yANnUqKWrZP5vhJ/6Fm/bbAi2dupCieZId6lf549Hruw9xqADgCuBz/GK05takoBAQAkJACAgBBQQycW+9FIrAnPV7iRMHNapWVkGr/tfExdQMmjB9NW3G/b5eaVq93PZxt/at70wBWIVfSHgmvVSlvBAQAkJACCgjwKmFE8qVoNCQYGVt+kNDu+FK+eG0VXT2Yqqh6VQrWzzxnXsHFbNTAHD3H4wrgCS8RxlqWSoJASEgBISAEBAClhH4au4Gmrdxn+H2YyIjcr95/IbLWtVlI8DU1NTqmZmZxls2PCSpKASEgBAQAkJACLgiwPf9j30xm9j4z6gM69Kg/k3dW23n+pcVAHgAdMPT/3yjjUo9ISAEhIAQEAJCwFoCX8xZTwtgAGhEyiDiYp8WNUdd17X5V4UUAJz+3wYPgElGGpU6QkAICAEhIASEgPUEktMy6PEv5xAbA2qR6mWLEyde4oiL0RFhXOWO+Ph4NvgvdALwPE4AxmppUMoIASEgBISAEBACniGweOtBmohoilokLCSEXrutF5WMu2Teh6RA45EU6KlCCgBcADkD4AgtDUoZISAEhIAQEAJCwDME2AJg/E+LaQfC/WqRTg2q0p19W9iKIinQT0gKdEMhBQA2AItwAtBZS2NSRggIASEgBISAEPAcAY6i+Ow38xFK+XJo/yIHM6B1HRrWqQErAGugANjc/QsaAR6CAlDZc9ORnoWAEBACQkAICAGtBH5btp3+QD4FrdK1UTUa1avZ+eLFipW4rABg4w+HEWAqxwLQ2pCUEwJCQAgIASEgBDxHAHs2vTFlma6ogC1rVaChHZpWaJhQ9rjtBCAtLa1mRkbGbs9NQ3oWAkJACAgBISAE9BJgr4Dnvl1ApxK15wTo27rGjff07/SjTQHA038vuADO1tuxlBcCQkAICAEhIAQ8S+DgqQv04o+LKD3TPgWwo5H1alZj7P2DO/3XpgDAA+AOvH3m2SlI70JACAgBISAEhIARApxS+U1cB2QgqZIr6dyw+ldjrusyyqYAwAPgJdwl2PwCRYSAEBACQkAICAHfI7Dl4Cl6+4/lxJkVi5K2dSrNe2J4z575CsC3UABu8r3pyoiFgBAQAkJACAiBfAIb952gd/9cQVnZzt0DmyaU3zpuZJ+G+QrAXCgAPQShEBACQkAICAEh4NsEduA64P2/ViFccLrDidSpXOr4q7dfXSFfAVgPBaCpb09ZRi8EhIAQEAJCQAgwgTMXU+i9qStp/8nzdkCqlIpPfu+BIbH5CoAEAZLPjBAQAkJACAgBPyLABoFfzF5PS7cfKjSrYjGR2V8+cn1ovgKQghOAS5kCRISAEBACQkAICAG/IbB8xxH6cfFmOnsx1TankOAgur9T5bAg3vjhBaA9goDfIJGJCAEhIASEgBAIDAJ8GvDXyp3095rdNi+Bq9vVbxyUkpJSOSsrq/D5QGDwkFkKASEgBISAEAgoAqcRMfCHxVuodFzk8CBEAWyKKIDrA4qATFYICAEhIASEQAATCA4O7h2E4/8euAaYG8AcZOpCQAgIASEgBAKKQEhIyCBWAIZBAfgpoGYukxUCQkAICAEhEMAEgoKCbmQF4B4oAB8HMAeZuhAQAkJACAiBgCKAK4DRrAA8DQXgxYCauUxWCAgBISAEhEAAE8AJwP1ByAT4Fhg8HMAcZOpCQAgIASEgBAKKAE4AHmUF4CvMemRAzVwmKwSEgBAQAkIggAngBGAsXwH8giuAawOYg0xdCAgBISAEhEBAEcAJwCt8AvAnZj0goGYukxUCQkAICAEhEMAEcALwHp8AzMQJQJ8A5iBTFwJCQAgIASEQUASgAHzGCsACKABdA2rmMlkhIASEgBAQAgFMAArAt3wFsAwM2gUwB5m6EBACQkAICIGAIgAFYAqfAKzBCUCLgJq5TFYICAG3EMB3C+Xkcle5hB8pJCSYbDnIRZQSyAbk9MwsSsvIolS80vBzdnYORYSF4hVS6J1TwYoIARCYwQrAZvyRNtSKIyjjNIVcsD53UG5ILGWXDLCDidxsCj09X+tS6C6XGxINph1015MKQoAJ8Oay98Q5OnEumU5eSKYT55Po5Plk4uximdhseIPnDZ/3e353JOGhIVShZCxVLBlPlUrFUUW8KpWMo7LFYyg4SDamoj5pnM716JmLdIRfZxNtPx/G63xymi29q1YJhRIWHRFG5cC8fIlYKl8cL37Hi9eB10jE/wngBGARXwHswlRraZ1u2OHvKHL9PVqLGy8XHE5JffZRbmic8TZ8rGYINv/o5YMtG3VueEkw3W9Z+9KwfxG4mJpOO46coZ147Th8hg6euoCneccbu9mZ86bEG5BNKYBC0KBKGapdqVRAnxYw6QMnztP6fcdp/d4TtB/KlzX0/796rIJVLVuMGlUra3vVqViKeG38QWav20P7T15QNpXRvZtRSLBPs1nNJwAHoK1X1UolfOcrFLHzZa3FTZVLa/45ZVYaZqoNX6ocufFBCjvIcZmsk4v9TxEFR1jXgbTs0wRS0jNp5c4jtGz7YWz6py3fcIqCVaZYNHWsX5U61K+Mp9VYn+aqdfC8wW85cNK2Bhv2nbA93XtS+DSgbuXS1BjKQLt6lalYtO9+d7w7dQWt3XNMGc6JDw6kMB8+LcEJwBZWAI5DASinlUrkxgewSU3WWtxUuawKgym15dem2vCZyrmZFDurFgVlnrN0yMk9NlFOdDVL+5DGfYsAbzrr9xynxVsP2DadLBzne5vUrFASykAValu3EsVGhnvb8EyPh69XFm89SHPW76Xj55JMt2dFA/y027JWBereuDrVr1rG505nRAGw+1Ts4ysA3nGKa/3ARK0YTKGnrLunLjiO3JCoS0fWePd3CT05m6JWWh+QMaXDrMCzrfD3D4+J+a3Dxv/bsm22431fEN6EmiaUo66NqlGzGuV9YchFjpHtJ2as2W3b/FkJ8BXhE5nuTarblIHI8FCfGLYoAIWXCScAx/kEIBknANFaVzBmfgsKTt6ttbjpcqmtvqWs8gNNt+PtDUSuv5vCDn9v+TBTW35FWRWGWt6PdODdBDbuP0G/Ld1G+3DH7KtSv0ppuqV7E6pcKt7npsAGfdNW7aJpq3fpMuDztokWi4mkYR0bUKeGVb3+REAUALtPTyIrAFlQADSbfcZNx21BdqrbPoeZlW6gtOafua0/j3SUk47j/5oUlJVoeffpDV+hjIT7LO9HOvBOAslpGTRpznpaveuodw5Q56jYc6Bn0wS6rlMDioTLmy/IGtxDf7dgk817wl8koVxxmzJWC1c13iqiANidAGTpUgCC0k9R7Oyabl3f3LBiuAbYSxQU5tZ+3dlZ6Im/KWrVjW7pMqPmvym9/n/d0pd04l0Eth46RZ/OWEPnkjxrWGYFFT4FeGhwWypTLMaK5pW0eQEGfRNnrSM+ffFHYQ+CDg2q0MjuTb3yWkAUADsFIFvXFUDIhXUUvdj9UYNT206hrDI9/fFvxjanyHWjKezIL26ZX2al63GiMtEtfUkn3kGAg8T8/M8W212z1W5knpxxDIwD77+6NTWEgZq3CbtTfjhtFbES4O9SAe6cDw5sa3Pp9CYRBcBOAUhhI8Cz+O8SWhYq9NgfFLVmhJaiSstkVh1FaU3eU9qm1zSG65TY2TVw/J/sliFll+pMKe2nuaUv6cTzBHjz//jvVbTKT478XRHtBqO023o1c1XMrb+fDsWLFTBei0ARjj54e+8WNq8NbxFRAOxW4hyfAByDDYAmc9rwvR9SxNYn3b6euRFlKKkX4hUF+XTQBYfcQo/9DqVqpNuY5sTUouTua93Wn3TkOQKBtvkz6RdH9KAqpb3DKJAN/T6ZvoZW7/YPewsjn+S+LWrS8K6NvcJAUBQAuxOA43wCsB//rckxPGLLExS+7yMjnwPTdVI6TIf7WkfT7XhbA7z5sxLgLskNjaGkfuqCYbhr3NKPPgKBuPnXReTAp67vrA+URaV583/79+XEdheBLj2aJNCtPZt6HIMoAHZLcIAVgO3477paVidq9c0UevxPLUWVl8lIuJfSG76qvF1PNsjH/nz8706vCp5vUr8jARVi2ZNr7Km+v4Cl/4JNrNsHjvD9f5s6nj9yls3f/jPHJwE34STAkyIKgB39nXwFsAFXAE20LEz04i5uSQTkaCy5UZUpqedWLcP0mTJs+McGgO6W5G6rKSe2jru7lf7cRGD93uP09h/L3dSbd3RTIjaS3ry9L2KzezahkGz+zj8PA1rXoWFw1/SUiAJQmDwCAW3iE4CV+O/WWhYldlYCBWWc0VLUkjIpnRZQdnH/yVzMrn/sAuhuSWn3J2WXdr83h7vnGYj9sZ//k5Pnud3anBPGcHY5jhDHSX34Z844x2lpU9MvpaflSHf56WqTkGjo0JlEOq/IJfHaDvVpUFtNB5mWfSw4UdKbU5bRZsTyF3FMYHiXRtSvpebcc0oxigJgh9OWDGgxTgA6uSIdxNbqHATIg5JRawyl1xvnwRGo65qD/nDwH0IQIHdLWrNPKbOye+IOuHtugd7fx3+vpuU7DluOIS4qgjrB55szxvGGXyouivBEobtfzjh4ABnaOBRx/uvY2SRdWQdZ+Xjrjr4eT1Tz/aLNNldLdwmfdnDmxGpli1N1ZPArC+WLlS5+xeAVEhJEKVC+UpHgKSUjkxJToHSdSgTv83QAvPnf7hYe85PDOlPtiu4PGCQKgN0JwBJWAOZAAXDpZB+ctItiFrR09+elUH/+ZMHutrTKDlYsvf7zlFHzYY+upXSungAHmOEnUCulZvkS1L9VbWpes7xlqVB5w9oC47lN+0/anqZdRcxrX68K3XOVZ7+blm0/RBNg8W+1cORDjnPQEcpXi5oVid3tjMqRMxeR9fGQLfOjK8ZG+3BUrySUxf/e0t3tSZ1EAbBTAObxFQA7hfd3tcChp+ZR1IohropZ/vvkrisoJ66+5f1Y3QEn/uEEQJ6QjIR7YFD5mie6lj4tJPDar0toy0FrrM75qZLvb7vDolv/c765SR9DdrzNUG5W7z7mMEXx2Bu7EGcL9JTsxxP1Sz8uJr7/t0o4LW/v5jWob/OaxPH3VQpHJ9h+6LQtKdROBCxyhzRNKE8PD2nn1s+SKAB2KzudTwB+wwmAy+wwnKee89V7WtLrPk0ZtR/39DBM9c8pfzn1LyEFsCckoNIsewKwB/rkp7mnJs+1pGd2r7t/QBuPH7Hz5M5cTL301LrtMB2GDUF1xKB//qZulsxbS6N8WvH01/Ns47JC+FqlCxLtDG1fn9jQ0WrZsO84/fTPVjp82vq8JDd3a0x9oNC4S0QBKEwan63fWQH4HgqAywvhiB0vUvguzz815sQ3puQuS9z1mbGkH08rU9kl2lBKxzmWzE0a9QyBL+eup/kb9yvvvEGVMrYnNX4C9TZhm4HM7BziawlPiVXceT5sZ3Fv/1ZuD22cnZND3y/cTLPXIweLhRKFU6XXb+tlm6c7RBQAOwXgR74C+BL/faurBXBXulpX4+DfJ/fYSDnR1bUU9coy0csHU8jp+R4bW05UFUruucVj/UvHagkkp2XSQ5/NUH4EzQZ+/x7U1is3f7UEjbXGx+Uv/7TYkvwKnFXv/gGtqWRslLHBKai1cucR+hzJi9iDwypxZ5AgUQDsVnEynwB8jBOAe1wtcPSyqynkzGJXxdzy+/T6L8KI7V9u6Ut1J7aMinPgg59r3X2hyzEHh9PF/nxX7O7bXJcjkwIGCCzacsD2Ra1S4qLCafyt/HQWrrJZv2krCycPz3wzn46dvah8Tmzk9/DgdhTmBacue46dpdd+W2pz37RC2KjxvyO6E2dztFpEAShMGFcA77EC8BIUgKdcwY+Z15iCUw64KuaW3/vyEXbY/s8ocvN/3MKpqE44xXJueGmPj0MGYJ6AFa5/d/VtabM0F3FMYMqy7fT7cg6iqlbqVS5N/xna3qtOXTiT4ZtTllJ6pjUPLXzS9Og1HdSCdNCaKAB2CsCzQUlJSf/Oycl5p0j6uTkU9zdSbHrIaM1+bEFIDrSdciMrWP6hUd1B9NKrKOSs520Y2I6C7SlEfJ/Avz6ZThcU+nTzE+hj1/pf3g1VK30OwYsemTSL+BRApXD63LHDu1JkWKjKZpW0ZbWL6dPI4VAHxqZWiigAdgrAvawADIcC8F1R4IPSjuLYup6Va6O77bRGb1Bm9bt01/NkhaC0YxQ7Fy6MUKg8LaltfqGssn08PQzp3yQBK6z/n7mhi0cCtZhE4bbqk+dtoLkb9intj639n2V3Rg8aNLqa0KTZ62jhZmtOgVvVqkgPDmzjagimfi8KgJ0CMIwVgJ5QAIo0CQ85t5Kil/QyBV91ZQ5lyyFtfUnC931MEVuMuTDmhsZSUFaSsummNXmfMqu6tP1U1p80ZA2B2ev20DcLNilrnJ9CXx7pMi6Ysv58raGzSan06KTZyp/+r0J43BsRJtebhV0en4CrqarwzQXnyrYAr4/uTaXjoy1DIAqAnQLQnRWAJlAANhRFPfTorxS19jZTC5MbEk25sD4PTtphqp3LlYNCKKn3Htxjey4AiN6JsBLFypQRyax+J7H9gCpJr/MUZdR5QlVz0o6HCHw6Yw0t2XZIWe+csY0zt4k4JvAVnv7nKX76L4u8CS+N6OFV9/7O1n8dEk29Y1GiKaszBooCYKcANGYFoDwUgCITxIfveYcito019Z2QE12Nsipdj1gCr5tqp2DltKYfUWaVW5S1Z2VDwamHKGYua/gcd0unwGo/peNcil6sLtd5ZtXbKK3JuzoHIsW9jcALPywittRWJR/cc5Xb/LJVjdld7XCwn8e+UPv0z344TwzrRGz85ytihdEpzz0qPJTeubMfReLdChEFoDDV4ODgCkHwAAiFEpCBd6c+YZGbH8HT56em1iS7eCtKb/y20k0sq2xfSm3zs6lxuaty+J53oUQ9a6i7rLK9Ka3lN0qTMWWV60eprX8yNB6p5D0E7v/4b0pCBkAVUqZYNL0xWuxCnLH8bek2+mOFohPMvE7c6Qev4jPCbVxMRcbJr+biXX0yIQ581K5uZVVDLdSOKACFscbFxYXbNn0EA+IA0E7P0qNWXY+0tTNMLUpWuf7YcH7AU3BD4qdhJRIcQUl99hHfj3u7RC/uQiEX1hsaJj+p8xN77IxKsANQ43ecXawppXT2jrgOhqBIJWR6y6R7P+JUHmqkVW0YYiHkr4hjAvz0f+J8sjI8/KTLT7z85OtrwtcgfB2iWjrWr0J39bMmsZMoAIVW60J8fHxxmwKAWADbcALg1Mw/ZlEHCk7cbGqt2eCMDc8itj5J4Xs/NNVWwcqpLSZRVsXrlLVnRUPBKfsoZl5TY00HBcPlcSflRpRFNsZWsKHYaaydK2pxe0m93Ze6VMmgpZFCBDgJzXPfLlBGZWj7ejSknXd5+yibnMmG9p04R+O+W2iylcLVuzWuTrf1aqa0TXc1lorAQOx+qjoBEocFfv/ufoZSS7uauygAhQjtgQJQK18BWAgFoIszgLEzq1JQ5nlXfIv8fUbtRym97rPwgV9G0Uv7mmqrYOWsCkMpteVXytqzoqHw3W9QxPYXDDWdXaIt7v8vZQ2MXj4QIYQVfQlBsbjY/zSCAfre04chkH5YiQO0cChaVcLZ/ga0RpRKETsC3y3cRDPX7lFKZhySGCUgmZGvyqczYYC6VdFpbgEIzyEWQg0L3CFFASj0SVsBBaBdvgLwMxQAx4/RCP4TN818gAZOP8tpaNkHPnZOXQpKP6Hkc8/eBUl99xMFW58py+iAzZygFAx7HLnuDgo7ou7ePqnXNgRTqmR0WlLPwwS2HjpFr/6iLqiUKACOFxTfjci1MJPOJ6cpW/GqZYrRf2/prqw9TzS0/fBpGv/zP8q7tuokShSAQks1DQrAgHwF4CN8yO91tJK24DXYsM1KwaP6yE0PUdiBSWabvFw/tdX3lFX+amXtqWyIj+z56N6oJHdfTzkxNWzV2YiQjQlVSUqnecTGmSK+SWDT/hP0xpRlygZv1RevsgF6qKGtB6Fo/apO0eJpjOjehHo1u/R37avC/kxsF3FSoV0Es+Cnfz4FUC2iABQi+hUUgFH5CsA4KADPOQIenLiJYhaZDwua0v4vyi516ZYh9NR8iloxWNn6ZlYeTmnNPlHWnsqGwneOpwi8jEhOXH1K7rrictXwfR8hkJA63/3UVt9CcRpoZGiX63BWw7DjMETj5Ea5SBjCr5wsCir4b9v/X/p9UE6Bcvxv/n+UJ8p7x/+ltZxM2cW88240OHEjRa0aborZlZVZEcuNKKe7TdU+2WIE6HgJVEfA4yQ/78L4LyYyTPeae1uFqfCK+BXeESqFoyK+fze7o6pNRCUKwP9XCS6Ar8XGxj6erwDcBwXAoWUef8Fz+lqzwhsZb2g2wbVC7Kyapu0K8seUG1Yc3gC4nwvyvj8oM4Z7GbUfg93EM5fRhx79DQGZRpldisv1VYRTtiJKZEat/1B6PYf6qLK5G20o9OgvWIPRRqvb1csNK4YrLGP3qKptAErFRdFbd6izz1EGyYMNcbz/B2Hsxh4XqqR9vSp0z1XWWLqrGqPWdjgy4piJs4ivSVTK3fAE6ACPAJUiCsD/aULJuhdugBNsCkBycvLA7OzsqY5ghx35hSLXmf/CuzL7XOT6uyns8PfK1je17R+UVca77tTYc4Lv/41KSudFhZ6EQ84uhQFlP6PN2dVTs9Hm2vJE8FWRKsmJrUPJ3Varak5pOxzIKmLHf5W1mV2yI6V0mG6ovVMXUmxJaVTKi4hIV6W09alZVY7ZyrbW7DlG7039/ymcir448x1nwPMXYTsUtkdRKe3rVYaSpPZ6UhSA/68QTgD64gRgVv4JQH1ocFsdLWD4vgk4dn7M3NoibO/F/gg1AMvzfAnFsXHUanVHqZnVRlNa46KTGpqbhP7abPnPHgBGJDeqMiX1LLwkptwJHQwis/JNuDqZYGR4hepwemOVYYq5cVYAWBHwNonccB+FHfpG2bAyqt9N6Y2MRcfkp9M73ptqJLak0/G3qFmB/j2orbL5+XpDH05bRSt3HlE2jZDgIJpw/wCfCPurddKcFpnTI6uU2Mhw4qiUfB2gSkQB+D/J8PDw2pGRkbttdLH5RyAaYAre/79D55WN2PEiwve+ZmoNHPqcZ6fiGiCBgrJTTLWdX9nWB/zlCyoZSho20Qj7/vOmbUQcbQxBzGy6/rtiZ/3ziQmfnJiVkNMLcE00yGwzheqn1xtHGbXGKG1TRWOq0zmnNfkAQZ5GGh6a6lTAPBBfd08zDPOKimmZWfTgBLW+7tXh9vc83P/8STYdOElv/LZU+ZTGcnbECupyvYgCcGmJoFRl4+k/Cu+Zl9UrBAM6AAWg6pWrGLnx3xR28AtTi5sT34iSu9h/QKLWjKTQY7+bartg5ZQOMym7ZHtl7ZlpiKP+cfQ/o1LQaLJgG7EzKiMaYKLRZgvVy4mrByNDY8mJCjUEw71LNh3nlIyLG8ku3pJSOs1X1p6qhmwurAqvO1I6L8Q1T3PDw3sbiVnWI0GLSmlSvRz9Z6h3/B2pnJfetrYdOk2v/KLWza03LP9vgQeAP0lyWibd//E0pSdRzOfWHk2pR9MEZahEAbiM8gA8AKrblIH8/4ICMBcKQI8raUetvplCj5tLu5tdujtS99o/aaqyL8gfc0aN+ym9gTGLe2WfsryGzLjs5YaVyDNqtA/SE7OgtbKMimYM0K7kFbnhXhyNf6sQYxBOdDhOQUWFbZpsCicwcdPLoxFFBk98NdbvKFFIlOGBTV+zm35YZC5Kp6POn7mhC9WuqO7py/AEPViRA/9wACCVYmWse5Xj1NvWE8gNcOysmjDl+X33Q4rk4QpTJIsCcIksnvznwwDQttcXVAA+gQJw15ULz1H7OHqfGcmsNIzSmn9u1wTHtY+dBV/YHDVJJXKQbji55xYzQ1VUN9eW+c9ozoOi3Br5qJ2P3FXJxasQkMnEBpQ/jtATf8M97kZVw7K1k9boTeI0yN4iwRe3UcxCdffjKowdVYcDzmddqVQcPXV9Z+K72EAVKyLdsZcFe1v4m0yctZYWbzmodFrNa5Snhwa3U9amKACXUMIA8HNcAdxRSAGADcAjSAtsZ40Us6Alnjh3mVqEop7Mo1YOo9CTM021X7DylZbzyhrW0ZBZ17jUVt/BP3+Awx4j192JaIA/6hhN0UWTe2ygnGgFx2w5aZdsOrLUJUtxdnKkbPI6G1Kt5GRVvJZSW5i7XmP3K3ZT4wxtqiWhXAmkqu1IkWGBGS76ma/n0aHTaq7beG1KxEbakv/4o8zfuJ++nGss2ZkzHhVKxtErt/ZUhksUgMson8IVgO2o/PIJADICDsG/p1xJO3ZmNdN3u0UZdIUd+poiN9yvbJEzaj0CH/Kxytoz0lDElscpfN/HRqransaT+uynXCdP5RHbxiIaoDpvB3ZBY1c0FRK15lbYdNh9hIw3jTwFNvdRxHnwBuEkVpzMSpVwrAN2xTQrPy7eQn+vNqekOxtDgyplbPYAoSF29sFmh+3V9dnD4q4PELwsJ0fZONvUqUT3X91aWXve1NDBUxfo2W/U2uzwZ27igwOVeQKIAnDpE4MrgBtxBWB7iix4BdAITxOFL7xg3HUpD4C5O8+0ph9SZpURDj+vQRlnKHZ2rUuR4hSIimNVU8PgXAdz6xs2FOMnfz4BcCasWLCCoUpUZlNUHSSH55jW/DPKrHSDqumaaidy8yNwd/zUVBsFK6e2+ZmyypoPvMOhWDkkq7m/UufTagnXwAcGtqFghS5ZyiBa1NCBkxdo7LdqN7Sbujamvi3N4dI6AAAgAElEQVRqWjRizzabg5Ooez78i9Iz1XyP58/mzdv7UOn4aCWTEwXgEsaQkJA2MTExqwopANj8o3ANkIz3y0pBUPrJS5uzSXH1RRe9bACFnFlkspf/V0/utgo+5ObzFxgZUMjZJQjWc5WRqrY67JfP/vnOhJ+w+UlblaQ3eJkyajygpLmgrCTbNYAqmw4eVFb5QVCI1Pndm5lo1IqhCGM910wTheqqTMb0OtywNsMdyyppmlCO7uzbAuFZI6zqwqva5ftsvtdWKWOGtKOmCWxE6p/y1OS5dOSMWkNAlUGTRAG49LnD039pnAIgME+BEwD+BzwBDkMBuJweLvjiVhg9mTfCSOm0AG5dLZx+6sPxVBWBpytVwuFzOYyuJ8RUUBxYhV868i7hdOiq0ynz5s9KgCpRbdNhy/bYB7EUFBgqmp1jzPxmFJy812wztvq54aVta61K9p04T89/v1B5SNaC4yseE0l3IURrw6plVA3ba9v5ZsEmmr1Obfpff4+yaIUSqtIVUBQA259bIu7/i+X/4RUKswQFYAEUgMtpmDj3POegNytsmc8W+s4kKO0owslyngA1h5g5xZpScmd1edI1zx/XGLFz6iDVsbGwmJwsif3/i5LglP0UM0+dH3FmpetxzD5R8xRdFQw7OJkiN6o5UcjvK7X1D5RVrr+rrq39PdY27m+Eb0UeCxWSVe4qSm2tzpiTx2RFzvor58pfGP1b1aZrO9ankGD/tQt4+afFxLkWVMpH917tFwmAnDGxwhOAr0z46kSFiAJgu/9fhxOAy0/jVyoAn0EBsLkHsIQe/RWJT24zzT6p3xHKDY0rsp3of3pQyHl18d+Te2yCdXs102PX04DZxEnpDV+jjIR7iu7S5ouuMhpgT0QDVGe4p9qmg2FkVrmZ0poaNKrUs4BFlDWb1vnKptlQlQ1WVQpHrnsK/thnLqaqbNZhW+whMKpnU+LIdv4o93w0jVIVJgCKCAuhTx8w/zDlzax/Q1bAP5AdUKU0gyvgw4pcAUUBsK3M1zgBuBx6tJACAE8Ati57JX8B1RzNB9HFqxEhrkAeAEcfELZsZwt3VaLyblvrmCI3PoioiV9pLW5XLhmx/3OQA8CVxM6sAs+MC66Kafp9Nk5LUhSflkQvuxo2HepOYHLDS1JSb872GKJpTlYUUh20ylmkR7Nj37DvOL31+3KzzWiqz18e7ZGxbVjHBlTSj3zbrUiypNqlTdMCubmQt7sCigJgiwHwH8QAeCv/o1FIAUBWwEHICng5ZF/EzpcpfOdlfcDQxyk3NIaS+rnOFMd3q3zHqkqyS7SllI6zVTXnuh1biuNahl0m9WzEMQthkX1RTfINVjhY8VAp4fs/gU3HoyqbxNXINMou1Vlpm3oaU+p+ybYefQ/jVCxGzxA0l1WdwMZVx+HIb89HtQNa16HIcN+PGWBFBkDO/scGbf4sHJKaQ1OrFJWugKIA2K4AeuIKYJ5DBSAlJaVSVlbW4fxfRm4aQ2EHzN0P50ZWQEhXbcdCnDqXU+iqEYSS7b2DciPcY3UbenI2Ra281vDQ9RguRi8fjGiAilyUYFxniwaoUILSjsAWogFaVGPTwUPjqxG+IvGURK0YDA8ANcxz4psgN4baGPMFuVxITiMOzaoyh70W7jGIGtijSXXiePfFYDDoqzJ3wz6aPG+D0uF3aViNbu9jPOeD0sFY1JgVrpM8VM6eGKVAsRQFwOYBUApKwFmHCgD/JwwBT8AOwJasWkWynpzY2kjtukbTRy5853iKwEuVpDV+izKrXTZpUNWsw3Yi199DYYed+++76jy563LKieNN07VErr8Lff3guqDGEklQAJwFHtLYhF2x6H+6waZDnRuVFScVeuZmi3KImBUqJLPa7Uhd/baKppy2sQ5PY+//uVJpIButA+anNs7nzrHcK5eK11rNa8r9tXIn/bxE7anYkHb1aGj7el4zRysGkpiSbotKqVreu6ufEoUy0BUAbPwHoQAUMoyzS7YMO4C/sYA2R/boZf1xl2vuSYXd/9gNUIsEX9wCt0N1WcjcFkoWuQxs2fAMZunLialByd21h9GM2PYcogGq20BceWloWbsry4Tvfosito8zUtVpHbZV4KsSd8ulEw32UlEjac0+QayH4WoaK6IVzmP/8d+riYO0eEoaI7PgVVAEfMl18Od/ttJfq5BaXKGM7t2cujZyr1GywuFraoo/ZXe8N5U4iqJKeWN0bypTzPx1WaArAFiTqTAAHFxwbewUAJwAvIgTgKe5kIq75uzSXZEJUHs2QZW+1mQLJbunSL96FR9UszHiM2r+i9Lrv6h5KOH7JiAaoLo4B1bkTwhO3g2bDuexHzRPtkBBju3AVyXultATM5Do6Hpl3SZ3X0c5Me6JCLds+yH6ZMZaS+MDaAFTtUwxm41A6zoVvT6i4Fc4/p+HawCV8uCANtSqthdltlQ5uQJtPTDhb+V5KV4a2UPJSVKgKwA4AXgBJwDPFakA4ARgKAr8xoVUHHu6Cm175edQqbEVGmf3MXYjs1Ii141Ggp5fDHfBxopstKhVQo/9brueUSWpbX+jrDK9VDV3uR3OnMcZ9FQJX5HwVYm7JXzXqxSx4yUl3do8GpDrwZ2yaMsBmjRrnUKLDOOjL1c8xhZHoFODql6bX2DC9NW0bPtlUyjjky1Q09+jAOZP9eHPZtLZJLVuqM8N70o1yjsPjqZ1gQJdAQCna3ACUMjn2+4EIDU1tWpmZuYBQkz7uL+RDxzvZiSz8o0Ib6s9fjrHAuCYAKrEioArhcYGv/zY2TUMZ8HLjSgLI0kcN7pwkyzYZ8jZ5Qg33EcVIsvi7fOmyZunSuGrEr4ycadErb6ZQo9rP8Uqamwc+59DY7tb5m3cR1/NVWvYZmYOHFWQbQS6N67udZ4D7EbJ7pQq5fHrOhInVvJ3eeyLOXTifJLSaT45rBPVq1zadJuBrgCEhYXViIqKKnS0ZacAMGVcA5yi9FOlY2eZ/6LNrH4X8rq/oWPxcm0W5HzvqkSCI22hZK1yuTL7NJ5ZdRSlNXlP11SDUw4gGqCa6FjccXqD8cgHoC4jY/5kghM3UsyiTrrm5qpwev3/UkbNf7sqpvT3MfMaUfD/2rsO8CaO5T+25W567x1C74TeaxLSQ0JI8l56J73/X0LKS++9l5cKCSmkAQFCDRAg9F5D79WWbcmW/r8RMjHGtk53e6fTaeb79J3Bu7Mzvz1rZ3enuNXUOs9t9h+kqVYbIqlV2SlLN9HnvyNBVgR9AorKmp6SSAPaNqTB7Rvaps7Af5EFcJ3iLID/d3FvalITGyqH00MoobxdYQllhuvOc7uhhoLx5GcxbgAcwe7/lKxdJRkAk+KOrh7MPgBGydP4TpTnHRMWG64LwEmIVFF2h48pr+b5qtidxMdopER2l/GoCDcoPNl8OcfT0ioiM0sos6HCBosqsjq/Aydc4sRLqoj9YdgvJlK0Zvt+evPnBXQEHtt2Is6Uxz4CfCrAeQUiSWYsYo+O6kv1qzoza2LhuRrzxQzavAeJ3xTSLfCf6KzAfyKWDQDc/8/A/X/fotNSrAGAqoBPxu2b+QBHARglPTXPOYscZ5NTRbz4sxGgmuLysgLH/4RrAD3kd2Ucvw+OTwq7e8akukg6dDjsfsV10HMKoXXg5FUPUtKm17U219CO8zusQ34H4zsCDYMFMhoqexfZKXXINtNOo7Tow20OI08AGwGqc91rHb+0dpWQUXBEr5bUtVnojJgqxiuOx53vT1KeTvnJKwZQrUqlp0M3Sx8r+ZpRQ+G6IR2pRwvjRniMGwCvwAC4XZMBgCuACxN2fve1CkczPv7na4CwiIvqoAyxqrjrQDZCriiH6wCVZDQ9bF7NC2CYfKRLJJUOdnnVh6Pk7ue65AjVSbW/Ao+X0/pl5He4KtTQSn6ftOkNSl71gBJeVp9elCZ0vs9P3yDW/ZeF65XoppoJH5eP6tuauOaA1aS6DgDLryqUzWoswh3PlIqAqDnRvw3KjBukWDYAkAL4SqQA/liTAQBHwAa04a1NnAnQKOmNeeaKclxZThVx5TV2CFRJqQsuIQ4B1EvZHT7E1cSFurqrzEyXX7EbubtP0iVHyE5wIs2Y0gwVEtVlG+SIBY5csIJUJl3yNL2fcps+aIXYmsf4a+Muem/SX5ZnDdQiIB9P9mxZN1ANLi05UUsXw204lv3Kl39QHjb5yrVDqXyG2g2IYWVNYPAyUgFzEiqVxPPPqaaNUiwbAElJSaelpKSckpK32CsABtqz4F534vpnU42Cnt3pC+JQwHDJtXcyUuvqWxyLG0t1RTlO+sPJfwhJgHQRjv2POyfqOxY0mnmwsMy+jKbI1qiuEmNRPFKW34GU0h/ogqnYTgaxC0cQLr3MJZhVEBtZbGzZjfYdyaIPpyyhVVv1lbE2W5+KGal07ZAO1KKu+V70OZ48uv6N0kty69HX6aWACzAxow7FBd2b09mnN9MD+0l9YtUAwP3/Xhz/F3tnWqIB4J1+4TbXzm8MX8S5u06A01Pf8CfP5zmehyDvWPh9i+nhT6wQSArEyYFUEKf95UVYLxndxXKWPc62p4LMjk3nHPp8YqGSctp/SN5a6gzE4mSLy95OGVO1pWcOpVvA32MInCHjrNnJhpKnuN//sXobfTFjBRK56DRq9QyqsQ9/UQ3GLpArDyaa6CR4KDOHbn9vokaptDd779bhEXdu1C6t/pbvTlxEc/AeqaThXZrShZh3oxTDBsB4GADFflmWYgCcO8u183vDMVycBpjTAeshowl2io7p7voDjJF+ekQ5pQ8X/uECQHrJ6D22yrtpzkFw7AzkuTer3G6gUiJSJStyWmTMzXLsLDyfXG+BrwBUUF61oZTdeZwKVqbyyMrx0thZK2jmCqQCMXUkfczZke6GYZ2IMwuaQRwdMdqEfPaqCtqYobNKnpx6et5atUmUVNVRiFUDAPf/t+P+/5Xi5rnkK4C5N9yRuPltw1tMPlrmI2Y9ZDTGvuiYXBiICwQZpTjvoUDpX8LCpo+Me7InbvuMUpbepG/4YnplDt5E/iTjyTZKEkjlXTqPcdyxcwscO5OVYVCUUcrSmylx26dK+HMlQ65oGC20fucB+gjXAjsOqDmBU6k3FxviwjpnImywxC8wnQPmeHEF8Lr6K4DXrh9GZdPMe1d1qqu826s/zqdFG0KXfw9n4It6tgiEiBqlWDUAEhISOqanpxdbma3Evx//4jHlae1Th3TfcQdni0sBc0lgPRSX7w5cA+gNsys6JpcG5hLB2OrqEedEn8Stn1DKslt188iv0IXcPabo7s8dOTMdZ6hTRVl9/kQ1QvOqlbl2/wR5L1UlboAPZ9TjzHpmkcr7f7PxNQODfJ+PJi7aSD/+uZaycTduN+rRvA5K7HaghHhjf8+F9eJTj3+/9L1yVV+8ZghxiKPT6YXv5tKyLeocfhkvcQI09NYcxfF/RfgB5BfHpdS/nPyf2x+MP7LYUBxO5tBdhuKeedHgxUMVhZt3v7hx0+adQwn79deGV5HNLmH/DEqbN1wVLIgC+BUOaj2U8TuFEadMnlyf4nTmTChOMG/dfyGL4mumyKz0/h8GMBvC0UrsE/DDvLU0bdmWiJQXLg23tg2q0y1ndVZ6v37taz+SJ6/Y70vdU/jMvwdS9QoZuvtHS8env5lNq7ftVyruvwe0o35t6hvmGaMnABORAbDE8LdSDYC8GRdMSdgxfoBu5Plu+UzOCqXfQld5D8t6eBregtS3T+pXKXcfwtpwHIVcBXpJRTW4hCNLKW1WL70inNIvu+OnlFdDraNe0UFSF11Orl0/KJPZn1wFCyvi2MOoo6B18MQdYyll8bVam5fajkv/cjhstNOew1mB3AFcZthO1LRWJbrjnK7KQgVveftX5Y6Qj1/WzzS/BTvNxWNfzaSNuw4qFYkjQLh4lFGKUQPgIRgAJS54pa7Mnvk33pC48a239ALPIW6ZQ419WQRSsXJNAt337SdL70urR1n9l+tViRK3vEcpK+7S3d9Xpjkq2s3X3b+gI4em8RG1KjLqlKhFjsQd47CoXqOlqeY27u4TcXLRXXN7rQ1V5qHIaf8eIhYu1jq07dtt3H2Ixs5cYatMgnUql6W7z+9OXGTIKN31wWTaf9RtlM1J/R9GRbtGCiraKRXKBGb/+ex32rrviFLON5/Zmbo0rWWYZ4waAL1gAMwuCbxSDQD/wjFp/o3PZvFdvB7yp9TEDm2Nnq4n9Umdfy659k0zzKeAQVavWeQr11YXv7Q/hlHCwTm6+nInLgTDBWGMUsARcVI9o2xO9M9t9n+Q7V5l/IpjdDx3Aow5hHiqIk+j2ym3+WOq2J3gkz6tLeL/1dSEP566uLpyGSPNcPHG3YGIgV2H1FZ/06tXlXLpdC+MgKooOWyEHvzfVOXOj6oq2hnRy4q+938ylXYdVOs4evvZXal9I+N/P7FmAODePxfe/+X4qcsA4E75v3beF39ogS73cF9GMySYWWD4vUv8+0NKWX5KGmPdfHmh4wUvXIrL2YW48OaGSiS7e82g/HLtwx361Pa4gijzsyH3jJN4ehrcSLkt1ZbuLU7J1Pnnw5gz5gBZmK+vbGvK6q3fICvWUEElyowpmGcF5CvTAic+8xRwsicLTinMpYa/n7uGMnPUGXZ6teWkQY/huL1Mavj1NQrGfOzLGcSnHCqJTyda11NXwEulbCp5mXF6cg+wa6UAuxg0AGbBAbB3afMb8nLeO2PEz64d43RVBcov35HcPfU7yxUIHpe7N3jv7lPyrrK3O3tlh0tJm9+i5JX3hdvtRHt/am3KHLBKd/+iHTMm1kCipCwl/Ly1LqKc9gqz9ZUgVeLWjxFBMVqJzMeZGA+pLCqMyvt/T4ObYFg9rVBfe7Jy53rph/lracqSTZSXr+bvVK+mbepXozvP66bb8+iZb+bQqm1qsyLedvbp1KGRvmgovThEot/odyfSERSbUkmP4PqkoYLrkxg0AP4LA6DUnW5IA8Azb/TliZte1ZWUn5PucPIdFZT2xxAcvc9VwSrAQ09+grQ5AynhUPiGQ4HQHhRFykVxJFXEu9Q47FZVUF6V/sivrz78qahscQEnyiaGTlGK8tRbb6Ik3FTe/2d3+QahioNVTFFU8NgLR8Gxs1bSwg07IyrvxagoeEYnvGc6yIx89py8qNtphhOr6tDG2i6cRpnTKaskVXUUYs0AQAKgIbgCmFzaXIQ0APwrxyTRqhdyyHssZNuiA+VVPxtV5j5T8i4ozXwHiXJPe5g8je/WLFt89jZKn9oK7fXnR1NdCz59RleKP6bmRIF9Itg3wgoy6kdRVEbVpxfpv7ej+KxNxqFA2t/MoSj/m5BmnFeUcVjx995AIiHVznRaYeDcAA+N6EWNalTU2uVEOzOy2RkxSMJWIEIdcr35dN3rPyodPT4ujj647Wzip1GKJQMA9/5uLP6V8Cz1OEYTqvkTu+2KPzg3bC8Mb60ROFZ+3+i8BfofX4BbKuHFTPLLtSN3r5ma+SVtfIWSV+t33lNdi4AFV3kqovp6ojRgkza/iauU+zVjH6ohZzAM1HnQfej7zwhxOTtxQqEmIRLnVeD8CrFKnFVvHE4Dpi1F0asIgFC5bBo9NqofpaeEV3/hw98W0wykQlZJA9s1pMv7qYvaUSmbKl674Qx638fq/HtYLvbpeOlaNcm+YskAAHQ/wvv/7FBzq8kA8M645FvXjq/OC8Ws6O+9dS6jnLZvhtutxPZps3pTwpElyvhlDVhJvtQ6mvgZHduMWPDUBSNQjlhR4ZL4FNQD2KsJC6ON4lFkJ11RkZ0CWdiYY6POKKkMVcxt8V/kndCfMdKoLnbpv3bHAfpg8l/EeQSspo64dx+N+/dw6IsZy2nSX2xQqiP2YmdvdicTJwDiREAqiU9wHr6kVD82zcPFkgGAnf/1uP9/NxQ42gyAhXf2c617Mew4PG+9q5B7/+VQMmj+fdKG5yl5jbqQr9wWT+EL+uaQ43M4GIeFGaHsTp+jLLK6zH0sC8fU84KlijKH7bbsuNqoQVVU53CvdErCjFM8c6pnFZTVfwX50ownMFEhS6R5cGY9TiKkemHVotdVg9pTn1baQ2bZkfHT35dpYa25Tb2q5QKnEU4mrib5DqoBqqROTWrSrWd1UcIylgwAl8tVOy0tLaSDmCYDgNH3TWicE5e5IaxqFp7618Pp7Tklk8dM4jPXUfr0Tsr4cW12rtEeigwbHgmpgcI1fjxVUsqKu5GYKKSRp3lIKxcsw5gW0UrVcbuq+/9wr5g0T1KUN+RF4gMcsVsZKcA5+J+7ahBqBsRrQo/9F5779g9NbbU2ykhJojdu1BVMpXWIiLf7ecF6Gjd7pVI5BrdvRKP6tlbCM1YMAOz+F2P3r6kEr2YDwDv9nDmunT+ElXKNjz/5GFQlpU/vDENAUV51pJDNHMhJWkqPz02f2Z3ij67QrUZe9TPhDPml7v4ldUxe+zglrVdnYCnLUaBBU9XGHLHD3RCUsHXpz7eu8v4/97QxcDK9UwMSsdeErwRenTDf0rwBVw9uT71bajsFOHgsm+54P/TGINyZe+/W4UprFoQ7vtntP8OpyW84PVFJl/RuRcM6ovKqAoohA+BxGAAPa4FMswHgmXfzVYmb3ggrUJy/APmLUCWpXvRCpcBVsVDltH2LvHXUVe4rwDNp46twTAw/oVFJ85HdZTxC1gapnK5SeSk15jASG1lsbOkllff/Wf2WkC8dWQ+FikWA/QFe/H4useOYFVQN2QGfRkEeLd7k7LB4nQkFgXj8Gg4uCPTaj38qD/+8dXgX6tS4ppJXJFYMABz/n47jf03x6poNAL9/TDx9+4aXcvdpO0fDlHma3k+5TR9UMnkFTFQXwQkV/5607ilKxkc3xSWgBPFG8ieFH44UakyjZYmL8s9p9y55a18Salhlv2d/Dr4KUEXeetfA5+RF3ew4QREnKjJKvrKtkJ1Q7RGyUZns2D8rx0vPf/cHbVKcda8kXcNJx2tGTntVGe3sOJcskxkZFJ+/ajBVKacmjDYWDAAc/+9B+F8NPDUF3mg2AHiCvVMHr3btmaw5Ropz3nPue9WUPq0V8rRvVcOWj44RQuZPLF8sP/Y54FMAvZRfqRe5u/2st3up/Vy7vqfURVco481VErlaolXEER3sDKiKfGn1UehJv/NW+u/tEf9v3Ps7t9lDeO/1Z4xUhUc08DmMrHGPfD6d+Gk2DcVR8kgcKWshM3IBXDmwHfVtXV/L8FHZ5rb3JtLhTHXzmJacSG/dpP9EryiIsWAAQOePEP53ldYXKDwDYM51Y1x/v/uIVuYq6t4XN1byqgcpadPrWsUI2a6kTHJ878/3/0Yot+Wz5GlwgxEWJfZ17fudUuerK+HraXwXrmw0T68SnTi3A+d4UEV6j94DdR6mNFMiBte/4DoYQtoQ2IDysU99Pdt0x8Bq5TPo2SsHahLqO9Q2+H6e8UJmhQfjxZ+NACfSEXcujX5Hbc6L5nUq0/0X9lQGVywYANj5X4D7/2+1ghaWAeBfPKa8f92zh7RWB+TiMlxkRjUlHJyHJDjq0quW5KSn4og6C7n/fagBYAYlHP6L0mb3VcbaW/dflNPmNWX8tDDihECcGEgV5SDVshcpl8OlxB1fI6zy6nC7ndJeb50JwwNHOQNOvMMJeMwmNgDYEAhF89ZuJz4FUEm1KpWhJ68YoJKlbXj9tXEX8QKrktj5j50AVZHTDQAs/h4c/1fGU3M5xrAMAJ6I/Ek9dsQfmKPJK4PvY/leVjn5fYHdWlzuHjWskQQncwiH6Z1812S0JGw+0uu6TUyvy8fVfGytivKqnwVHui9UsdPEJ+HgHzDmhmpqq6VRXrVhlN15rJamJ7VRdf/PR/98BSAUPgLvTfqLZq9SdLVXwvCjh59OHRuHLsrz994j9PDnxguZFRaDv2zfuPHMsDMTho+k9T2+nr2Kflqg/6q0OIlV10+IAQPgN+z+w9oZh20AeGZf8V7i1v9pWtVz2rxO3rrq7qgLvyQpy++gxL/DCkoo9a8iu+MnlFfjn2SHKu6nzb4LjvPsp4zJ6jzN8yt2RV6EUmtHqP9mCRhzTWDMqam+5nelw6cDaVzjwysHq+r+n53/2AlQKHwEODKAU8n6/Zr8l8IfAD0u7dOahnRoFLIv57W/HnntVUty57ldqW2DsLOqh5Q30g34CmfN9v1KxXjqXwOoZsUyynjGgAFwCwyAN8IBLGwDwL/kgaa0+tm1hHr0ochMr3LV9995NS+k7A4fnlCJ8/5z/n8jlNVnLvnKqKtfcIosPg+V+aWyERFP6uvLaIIqiWozeWkRTtXuu2Asdrpk50utFO/+G5kejScb8aU3oqx+5h9ja9UrGtu9PGEeLd642zTRByGxzGUaE8vc8d4kOpiZrVSWs7o0pYt6tFDKM9LMfDDYbkAVQDaaVFFyYgK9c/NZhONsVSwDVxR8VaGK3kdeh0RXgip2hvgAJy7BWBMGQFg7KV3o5v/S7nD84SXlQkmc3eEjyqt5Qahm+n7vzwvsfuO8h/X1L9KLE8hkDt6MnSMnO/QHKv8ZcU7zpTWAR/pSJbKVxqTMr9VwL6PmS8qfXCUQsmg1ufZNgTPj+cqGDTf/RNLmt1CcyLjXfrjjKlPYQYx4F8m7SbMonNoAzyMb4HJkBVRJzWpVogdRpdBJtHXfEeKwSZXUul5Vuvt8Yw7YReVxsgEAXX+B93/YIRO6DADPrJFjE7d9OSLUhJuR/77wmClLrqfE7eoy7GV3+RqJcIZQwqE/KW2ONm/hkjAwIwticWNl/NYUx+eKdkwWFgQ6SRecZASMubyjoV4pTb8Pt7Rx2ryzKWH/dE28S2ukqiCRYUGinIEZMfgFkHRpWotuPrOzJoS4bgEXBlJJSdgxvn3zmZrTEqsc2yxe05Ztpk+mqt3sXIbKiYNQQVElOdkAiI+PHwUHwKXS2RcAACAASURBVLAduHQZAP7F9zShNS8jh6631PkpWFBVTmJhXq7dP1PqwpHK2HvrXI7qhW8EdoO8KzRCfJfOd+pmk+psesfOPICquuGVT1Who9rCRnE4yVgfMsUzy81GR8akBjj0Kf1dDqUjF/3hWgpCxhH4ZNrSQAlhMyicUDz2Sbj3o9+Ui8HV7bjKnVPo3UmLaM4qdaG8jMvzqN1QpVy6UogcbABk4ei/Kq4B3OECpssA4EHyJ/bYGX9wTqnutNmn/0B5VUysgOXLwZd3fdIalhgKHM7WxwtHBo7/OS5cL3FtAa4xQKg1YDbxSQWfWKiiQNEiE7IWhpLPtXsCjLnLQjXT/Puc9u+Rt9bFIdu7dn5DqX9pzptRIj9Po9GU2/yJkONJg9AITJi/lsb/sTp0Qx0tzuzchEb01O6Xc/8nU2nXQc1RVZokUh3epmlQkxpxUafbkQDoWLZH2Qg14Pj3NBwAVZODDYDPcPx/uR68dBsA3rlXP+3a/EGpF6fubr/AGUtdIofiFExd9C9y7fpOj+7F9vE0fYA4/a8R8tb9N+LpXzXCQnPf1D8vINdedbuUrP7LUcJWW9EUzUJqaQg/hozJDZQZc7z4sxEQilIWX4WSyt+Eahby9+4eUym/graj5ZDMYrwBhwJySKAZxIs/GwFaaeyslfTLwvVam2tqVyY1iV6+dii5EszfIGgSyECjBet30us/qduAsChmGUhONQBw/D8Mx/8T9UyjbgPAv3JMBq1++Sh5DpfIw91jCr4U1dRyLkk5VTu4E/z5+NvgcXB2l2/gSxBWOKaeuQv04d0rY6CKsnrPQRibcY94PfKk/vVv6KI5iVWpQxx3aNyANqW84gFHUhgd3iN6xD3Rx59SCyc+q0ofy9AIsdV55dZ99Oz4OaYoHW5xGa5c+OS4WcplYT8E9keIdnrhu7m0bIuifCxBMMKp2RAOfk40AHDsvxeLf008dYVg6DYAGHjv1KErXHsmlnieZkV52bi8zMCXOPlyw3kXTGt7cjSBacOcYKw6H4K7+0T4Lqj1vtWKguraBllIwsQOgSVRwoGZlDb3LK3ildhOvP8NQ3gSAzOS8BQM8Mp1Q6l8eopmgTnE7da3f1VeurhF3Sp03wU9NMthx4aHkPf/TpRNZoxUUSry/79xwzBTnCQdagC8ivv/2/Tib8gA8My/+ZrEjW+UeM5qVVKU1D8vwjG4+vrdekDNq3k+8gl8rKerrj7Ja8agop7+CnhFBzXbcbM0JeNwDZA+mX061IQ1cilqXpxLIiVpiOHnkdVvaWSuTXS9MfbvZEYaXta6UplUevGaIWED8O5EOLmtVuvkxl+8z5ng6Ba2cgY6/PTnOvp6Dp98qaMeLerQdUM6qmNYiJMTDYBwSv8WB6ohA4AZ+r6v74lzbynWbTyr70IURWlqymQWZpq47VNKWXqz6eNoGSCn/YdwPrtQS1MlbZLWP0vJa9U5n1ktf1EQVPp05FfuQ+6uP5aIc/q0NqgqucXQPORVGUjZp6u5tjAkiIM6fzVzBf26iK9v1FI4IYCFR/5z3Q564+cFaoUBt2hPCsQREhwpoZIeHtmHGlWvoJLlCV4ONADWw/nP0AJr2ADIm3H+1IQd3/Yvbsa4NCuXaDWb4jwHKOO3xri713UNok48pJ/lZEJ+l7r0laGES9r4KiWv/r9QzTT/Pqf1y6jfYNwrXvOARRqyDwD7AqigwHXMkO3FRmPEH1tD6TOM+6dkd/qSuJiUkDoEzEgry9JpTQNcVJNsTx7d8vYvyqsVlsNVxEs4kUiIN/w1rA58jZzM8I2oX7U8PTqqr0YJwm/mNAMA9/5jcPz/aPhI/NPD8JvnXXhXT9e6F+Elc+o9UObA1cQOUlYQ3+XynW4kKa/KAOwG1UUkaNElacs7lLziHi1NNbUxq4SzpsHRiEM6Az4diq4BSirNy9cmfH1ihPwpNSlzwEoIbY90oEZ0sUtf/hbhtLI5WHRVk5H4++eQFXCF4qyArN/lSHgzUHHCG9W4FcePnTTZWVMlXT24PfVuaV4EktMMgKSkpCYpKSmGjsoMGwD8ApSUGpjTyrI3thWUtOVdLIR3WzFUiWNEYvecuPUjSlmm2wfkFF08Te5FNTt1Jwp6JiR10eUI7fxBT9dT+pRUj0JF/gQOGc3FR0gdAhxzz7H3qolD7ji3vN7QOzOy3bGOKYku+u8V/aly2ZMrkarWXyW/WSu30vuT1YZppqckBkIjOVOiWeQkAwC7/2nY/RtOlqDEAPDMvuzjxK2f/avoxGUO2Ub+xJAlA5TMd1zOTlSVaw5e6jxSwxOMs8+hRlKytZW+Erd/QSlLbghP1FJaexrcQLktn1XGTw8j187xuAa4Uk/XUw2a+tdTbqvnTvp/rjzIFQgJlQh1E3b9vPvnUwAhdQiMQ9z9z4rj7lk6vlfm+2W95MnLJy4OlJmjLuFNgSytkPf+HsV57/XqGarfkawceuB/Uykrx1jmzKLjDO3YmEb2NreKpsMMgItgABiO/1ZiAPiXP1iN1ry2i7zHTuKXOWwP+RNSQ71Tyn6fNmcAsuKpd9bRIiDnO+C8B1aTysWSZffWGYV0yMbSIBvFIC4vCz4dyAOu4BqAk/Nwkp7ClLjtMziN3mRITL735/t/IXUI8F37Hcgqx0/VdM7pzej87rxB0E+cnZCzFJpBZh9/q5L51R/n06IN+rOkFicHLxrPXDmIqpVXm/q36FhOMQCw+9+F2P+6wQqAhqZWiQEQWDimnbHEtfuXk4Kuj515EPejLkMChtOZy/dyGd9IUG7zx8jT6HbLh3bt/gkpdC9VNm5e9bOxsH2mjJ9eRqkLR5Frd8ke/Jr5coGjYTtPeg8ZL8bNCLHnP0cACKlDgHf+fAKgmrikLOeWN3rMftSdS3d+MJm8OA1QTWmIf3/qigFUPkN7jgLVMoTiZ0bWPx7TzNC/wjo5yAB4DLv/R0LNl5bfqzMAFtw1yLX+xcn/HMHH0bGzjGVY06JA4Tbx7s2o615y4pdw+YXTPqvfX+RLRySCxcRpgDkdsCrKr9wPoXNq7t+NyMTpeTlNrwrK6j0b2Q3bHGeloH4Ep0rm2H8raj2o0D8aeHBO+buwuB7GEbNqalO/Gt11XjclbD+asoSmL9+ihFdRJu0bVafbzza/gJge4bNw9fEAfDOOwAhSSXzn/yx2/xUsMHycYABwxr+EhIR6aWlpO1TMgzIDgIXJ/7XzvvhDCyoHBItPpmNnqPUS1aJw+szuFH/U2qpsvjKnUVYftfmwtejKbVRlsysYL798R3L3VFvbW6suhdsdz/CIawAs2EaJ6zJwfQYmThjFiaOMUKgEQ0Z4x2rfGSv+pg9/W2yK+redfTp1aFRq3TLN43LcOy+E+T4D/iOljHZu19PovG6naZbHiobs//DS9/No1Tb13+esK+tsBTnEAPgOu//zVeGl1ADwzr3mEdfm98ewcIEY7KE4erWYuJBPssFiPuGK7Gl8N+We9nC43ZS0Tzg0n9LmDFLCi5lw4iZO4GQHUpXh0Vv3ShRneiWgUsqyWylx6yf61UOtiMyBayyLbglH0D2HM3GPmhFOF1u05cX0of9No12HMpXLw0fqL16tNtberERFBcrbyQjg646XJ8w3JQSyYkYq7v4Hmur5X/iFcoIBgMI/g3D/r8zZTKkB4PePifd//1FOXPbfiYHSuigtazXFH1uJBC9qjvu0ym5FzYOSZEk4soTSZvXWKmrIdv6UGljgzHF0Cjl4kQZJm9+i5JWlFpzUxPLEqQaKPGVMboziP4c09SuukdWpnrUKeuBYdqB2Pd9zcyx1T6RU5UQz0UCfT19OkxdvNEXUs+H8d4FB57+igrGT4n0fTyH2iDeLuGLhRT1aEPsvRIrcud5ABkQz8h+wTtcN7Ug9mtexTD0HGADrsftvhndCWaib8rfLO/Pi71zbx57L4XCZg9ZZNrmFB0r/vT3FZ5nzhVJUoeOV4MypXa4FvPhjq2DwqLs39LvScXKj1stXix7FtVGVrc+X3gh39osDZZON+ku4u/2EEtfqDC692BTt9/HUJfT7sn8Mbs4u17ZBderdqh6e1Sg+ggtJaTqalWaXx1Tl/Fec/GaWLC4Yj8MDbxjWkcqkJqt6TTTz2bL3MMr8LqB9R9Sm+i0QoEG1CvTIpX1Kq9WpWVatDaPdAMDu/y7s/tUVfuG/Ea3gaW3nX/5QHf+ql7byCUDWALWFIrTKkLz6EUra+JLW5obaeepfhzjz5w3xMNI5PmsTpf/ezgiLk/siaiMQvWETypjSjOJyjBkkBacanC+B8yboJV9GE1yPLNLb3bR+Bbt/dqQrjngB6QAHs05NalKLOlV0J8NRrcCa7fvppR/mmZL1j2Xle3++/zeDeAv2+JczaONu/adJWuTiY/IrB7UjdmS0gvg6ZsqSzYEiP2ZEO7AOyYkJ9MjIvlSrknUp03ncaDYAYMxmY/GvhafSF065AcBAc5ng+Mx1LbP6LbHinT1ljITDiyhtdj9LxnZ3nUD5lftaMlZxg8Rlb6eMqS2Ujn88esOUVyNsOY0u2jyg31UW11EbcfzfiOLyjoYtQ0GH3BZPkaehPYpOFVai6O6/NAW53Go7nAx0alIjsKiYmXmtJDl48fx5wToaP2e10lKyhcezIsMe+yyM+Xw65XjV5y0oih0bbiN6taQG1crrfn9L6+hHSV+uwjj+jzWm7foLxr/xjE7UtVltU/QojWk0GwDQ62MU/lGTHa0QSKZ8y+f9ecfwuD0TJ2T1mW/5JB8f0I9Mb7g/y1ESKVGiDv7E8lhYNlma66CoMIGsdr81UopzIHoDURx2oMQd4xAOeI0xUXCqkd3xU+RLGKmfD/IJBDI9JppTqUyvYKF2/6XxTUQIVuMaFahZrcp0Wu3KgZ/5/8ykzXsOY5FZTcu37DFzGLq8P3Lst0UUiclkVuni4sTmL2u+FujRoi51bFxDifG2/6ib5q3ZTrNR7pjTMJtNg1D34DLUP4gEqTYAHhzRi1xWFHLC9V2dauW7Vi5XTvmCaooBwJPrmX353zlt3qgbiYnmMblADhfKMZO8tS8hzjUfSYrLO0YZE9UWXOLoDY7isAPF5e6FgYO0vQZTPHOCI9fuCbpV8tYeibk2933SI1w4u/9Q/DlPfkOkzGVjoFmtSoHdZnpKUqhuIX/PYWRLN+8JOPqt23EgZHujDVj2B/DlbNqXWxEBP5m6lLhWgJWUkuSi9g2rU6MaFal+1XJUt0r5wNF6KOIF/+99R2jr3iO0GmF9PB/KPMpCDN4Ysj44oieqH8aHEtOU36s2AEwRshimDatVOPTCDcMrmjGeaX8j2ZvGX+2tPOh9M4TWwjPhwCxKm2tumVbOmMcLS0TJl0tlflFbcImjN9iHwy6kJLcDwvcIUQB6idM8c7pnO5GR3b9WPThDXdVy6VSlXFrw+c/PfJ3A98S8wJ/4eI//zMfiW7HQrN1+gHjXb1bcfFE9+ATjicv6UfUK1hmw7Hvx+FcziR3nIkXs8MjJdHi+0vHhJy+0bo+XsuHN787No6PZuYGfI0Fl05LpsVH9LEn4U5J+0WoADG7X6O4bz+nxghnzZpoBgDuluMzMzKV4tjZD8JA8/fmBnWOcZ3/IproaoMZBYKG0sNZB8XL6qcxPagsucfSG1UWNSpuD5FUPUdKm13RNk4pO+RV7kLv7rypYKeWhcvevVLAIMuN78jM78YmRtXQwM5ueHDfb9Ptza7VSMxr7Y9yJTIx8MhNJikYDoF7VcsdevvGcsmbhZpoBwAIfO3bsQhgAX5slfCi+KctuQdKX/4Vqpuv3edXOoOzOX+nqq7pTmV+QfNGnrkoZR2/4Uq130ikJF9e+qZQ6/zzVsGnmF2lHz+IEtWL3rxkgmzTk0LKHR/aOWMgjz8mT42YRH7MLHUeAy/zedV73QDXGSFM0GgAD2zV8+OZzej5uFnamGgDBU4BleJpb57EEdFx7JyPu+0JTsOOKeVw5zw7EPgDsC6CKOHrDl26+A5VmeVEVsMwkuJPgusNqyq9wOqoJ/mb1sCHHk93/yRDVrlyW7rugB/FRcySJF382AtgYiHUqh7m4B3NSB3NjB4o2A6BW5bLu128+19QSiaYaADzpOAW4CAbAuIi8ANgVZ0xuoHRxDOjBteAHbbTNPTnnzFd51cF1Dbi+gZ0obd5wStg/w3KR7Fj1j0O2Hkb4Gd+xC1HAWfGe87srcVhUgede1At4+pvZMW0EVCqTSvdd2MNWqamjzQDo37bh07ee2/MBFe9kSTxMNwCCpwDL8WxppiIl8U5ZfDUl7lB7C5FfqSe5u/0SCXWKHTNjSnOlIY8nVc+ziZZJG16k5DVjLJUmv3wHFEaabumYWgfL9/mRsGUTfTd3NXFq2lilJjUrBSr9pcIr3k50DA53nEZ39TaTfJDspGwRWdgBk09jKsIIsBNFkwFQvWJGzpu3nJcO505zqk4FJ8Z0A4DHwSnACBgAYyPxMrh2/UCpiy5XOnRuy2fI0+BGpTyNMOMSyFwKWRVxNUDOn28nStj/O6XNO8dSkbI7j6O8akMtHTPcwTgf/djZK+mPVdssC+cKV0az2nNynNvP6aop/M0sGUrj68NJzbhZK+nXRRsiMXzExsxA6OiQDo1oUPtGtjLMoskA6N+m4Wu3ntdztNmTaIkBgMU/HhEBfAqgNmWdBnTi8t2BawDCPbIqyhqwEk5y1hWxCCV3+ozTKf6YunoE7u6TKL+itQWVQukYn72N0qdad4jkK9eWsnrNCiWWbX6/fudB+uz3ZRENRbMSDK5vcOtZXUxPXKRCJ6538MHkxZZkDFQhryoeHIo4GEbA4PYNbXE9Ey0GAEJuPSPbXpDer1+c6Ud7lhgAwVOAi2EARMRtPnXhpUgC85OS99qOC0ParF6UcGSpEv2YiS0L3vh9VObX6nAENK8CW2EAszt9gRwPZynD1ApG7BswY8Xf9NOC9Y4NR+PcA+ehfjy8oxHnbtnXl+HpOwinwLE4DeDMgbFGnLRoQNsGNKxj44gUNirAO1oMgN6t679/x/m9r7XiPbHsLyh4CrACz+ZWKFZ4jMTtX1HKkuuUDJvb9EHyNL1fCS9VTNLmDKSEQ3+qYkfZp39HeVUGKOOnipHqk46S5PKVbUVZvefg15b9eaiCKMCHj57/2rArcPS8YZd9CjsZUZIT3fRuWZcuRIncSHv6G9Fj/c4D9BnKH29BcqRYI6470a9NfToDeRrKR6BUdTQYAJXKpOWNat+xTL9+DSzZ6Vj6DQdfgEtgAHxp9Ysf5z2CawCEtRnIBFcgc1afufCQt+4oWgtWaXPPooQDM7U01dQmu/NY3H0P09TWykYqT3JKkzu7yzeUV3WwlaqZNhYbAGwILIJBwCcE0UhNalaky/q2ofomFcKxGhOeh1mrttKE+WtxUhN7OQM45XQflKk+s3NT4mgBqygaDICeLep9ftdFfS6zChNLDYBIngKkzj+XXPumGcLVl1afsvovM8TDjM6p88+HblOUsebCOXk1rHW40yJ88ur/Q5nnV7U01d0mv3I/cnf9QXd/u3bkuu4zV26FIbCTdhxQlzPCTH05te3FyOzX7TT7+Nuo1JcNgWVb9tLUpZsCz2g10PRiwqmKe7aoQ8O7NEWqaVPD3QMi2t0AKJ+Rkj+sQ8vyI/q1zNSLabj9LDUAWDg4A470+Xz6i7KHq2GwfeLWjyhl2W06ex/v5ml4C+W2eNIQDzM6c5U71+6flbHOaf8heWuZk0DJiJBJ65+h5LX/NcKi9L5x8XD8m018BeBk4jK2i9bvpIUwBjhPv52IM8e1b1gD5YprUmtUvuPdYiwQnwRwQaE/UJXvMCI7Yonicb3T7bTaNPz0ZlTDxBoOdjcAUOXx27sv6nuBlXNvuQEQPAVYiaelmWa4bG7KynsNYZvb+A4sDpEpZVma4Emb31LqA+Cpfy2iALobwsqMzkkbnkcugMfMYB3g6a17BeW0ed00/nZkzM5pfCqwFDvQ9agMZ0Vt+6I4cMa4Dihv26lxTWqO0L5ocu4zY0637z9Ky//eSyvxWYs54eJKVhIXfsJdNAo57bc0tJT9PLo0rUlnd2lGnNlRNdnZACibmuw7s02rKiOGtrTUacdyA4AnFacAl+IU4HPVEyz8nI1A0saXKHn1I6Yo6U9Iw/XOElsVQTJF0VKYcsW+TbsP0Sokr1m1dV/AgZAr3amkQNU6OIBVxiJTv2r5wE6/Ke74+f+FTkWA8eeSvXxSs+vQMdqN05tdBzMpM0dN7Q92xmtQvTyh5Cye+MDPguP4mSIVWspvQodGNejsrs0C74gq4vfbhwRadiR/HN1WuUIFc+83i1E8In91fAoAh8BVkKeZHSdDZLInAnz/z34AZlBus4fI0+Q+M1hHLU8u9cuLwGrsBDnHPS9GJz74Mj3p3/y74P/xkS47d1Uum3b8g8W+MnaU/HOlsqkRqwcftRNRjOBsALAhwPOSg0yQfHJz0hP/x9EggfLAuFY5XiY46Z+fscizj0Uob/yC0NJv5qwmzm5oNXG+h3NwNdCohn3Kk6vGAMbv6oyMjDZ4mh73X1T2iBgALAROAUbhFOAz1WAKP+cikLTpDUpepT41tj+lJmX1W2yD0s7OnTvRLLoRcOd66du5a2gaHBY5DbXV1LJuFTqvW3PiiBCnUUJCwhnp6ekRqTceMQMg6AuwEM/2TptQ0cccBNgBkB0BVVNOu3fIW3ukarbCTxBwHAIcQcIZJ1dt22e5bpf1bR1IL+wwmli2bNmIxVxHzADgSTx69GgPPGY7bEJFHZMQSF1wMbn2qDWU88u1I3cvrjIY0T8FkxATtoKAOQgsRBTJlzNXBK4grKCKGan03FWDHBUVEjzyb1umTBm+Do8IRfxbD0bAp9DcssQHEUFZBlWCQMbUFhSXrTCVapyLslD4iNM7CwkCgkB4CHB0wi8L19PPSD1tdqTCvwa0pf5tUNPFQQQD4E0s/jdHUqWIGwBZWVk18vPz1wGEjEgCIWPbG4E4z0Fkc6yvVEhP47sp97SHlfIUZoJArCHApwB8GsCnAmYQO48+eyXSnSNxkIOIE3A0wfF/ROtFR9wA4AmFQ+A9cAh81kGTK6ooRiBh/3SUAz5bGVdfRjPk+8ftU3yyMp7CSBCIZQTYL4D9A1RnmrxqUPtA6mAnUXx8/F3w/H8x0jrZwgCAI2ASwgKXA4ymkQZExrcnAilLb6LEbYqCRpDxz919MuVX6GJPZUUqQSBKEeAIAY4U4IgBjhwwStXKp9NT/+Ldvy2WKqPqFPRfj6P/lrgCMA6QQYlsgypOAYbiFECth5dBcKS7PRCId/9N6b8jWMSvJkzW0+Amym35tD2UEykEAQciwDkDOHcAl6c2UuPguqEdqUdzx9WCOBdH/7YoOGIbA4D/BuAQyKCoO+d14B9WLKqUsuxWStz6iRLVuaCTu898iflXgqYwEQRKR2DL3sOBawFOKBUu1ahYhp68oj9xYimnEHb9v2P3398u+tgK2ZycnIZer3cVLEa5mLXLGxJhOeLh9Z8+DV76Cko5c6ifu9uPlF+pd4S1kuEFgdhBgNMGzUWRo7GzVoZV6OimMzrT6c1qOQYoLP4+fDrg7n+pXZSylQHAoMAX4HEYAObke7UL6iKHNgR8Hkr78yJK2P+7tvYhWnnrXUU5rV9WwkuYCAKCQHgIcLriCfPX0qS/NoasMVG7Ull6Art/2y1Q4al8Umss/u9j93+tARbKu9oOXyz+afAHWIOn4y5+lM+ekxn68yl10RUoc/yjEi3Z69/dczr5XebXHVcisDARBByKwJ7DmfT59BW0dPPuEjW8dXiXQHVIB9ExeP43we5/j510sp0BEDwFGAEDYKydgBJZrETATylLbqTE7V8oGZQXfV782QgQEgQEAXsgwAYAGwJsEBSmelXL0aOj+jlq9w/9HoDjn+08j21pAASNgGkwAvrZ41UVKaxEIHnlfZS0+S1lQ2Z3+Jjyap6vjJ8wEgQEATUIcEVJvhLgqwG+ImC645yu1K5hdTUD2IALjv5XYuffAU81NZwV6mRnA6AV9FwMI8ClUF9hZWME4t1biBd/lfn+JeTPxhMuogkCQQQOZ+UEnAT3HMqkh0f2cQwuWPTzcfTfFdX+FtpRKdsaAMFTgFdgAIy2I3Aik0IE8rMpecOLlLTxFSJfjjLG+RW7wev/Zzj/iw2pDFRhJAiYiADXFEhyJZg4grWssfg/jd2/+hrmitSwtQGAxb980CGwmiJ9hY0iBDg3vz+xHBZX/X+scTm7Arv9pA0vUHz2NkWSHWfjT64aSPXrT3bOUaJSgISZICAImIoAdv+rgkf/uaYOZIC5rQ0A1gvFgoajWNAEAzpKVxMQSF73FCVueoPyK/dCSt3TyZ9Si3wp1QMLrj+lBrzti9R2gld/nGc/cVY/176plICFP+EIh8NylLBiglHi7srx/j0VMxZ2goAgIAiERoCP/hMSErqnpaX9Gbp15FrY3gBgaHAK8D7SBF8dOZhk5KIIsAGQhE9JxJ73gd13QhrF5e7F4r8Pa73PEiBzWzxJnoa3WDKWDCIICAKCQFEEcPT/LHb/99kdmagwAHAVkIEEQcsAprMKQtv97ShFvlAGQKRU8zS5h3Kb/SdSw8u4goAgEOMIYPe/Bot/ezzVOTSZhGlUGACsO+oE9ASgM2AMOKootEnzajpbOxoAnkZ3UG7zR03XXQYQBAQBQaA4BDjdL47+e+Dof140IBQ1BgCDiauAZ3AVcG80AOt0Ge1mAPCRPx/9CwkCgoAgEEEEnkfCn3siOH5YQ0eVAYDdfxKMgAV4tglLS2msHAE7GQCe+tdTbqvnlOsoDAUBQUAQCAOBtcj13y4ajv4LdIoqAyB4CtAGBgAbAUlhTIw0VYyAXQwAT6PROPZ/QrF2wk4QEAQEAe0IBI/+e+Ho/w/tvSLfMuoMAIYM/gB8lQ9sYAAAE3FJREFUDfBM5OGLXQkibQD4kypSTts3Ka/aGbE7CaK5ICAI2AWBF3H0f5ddhNEqR1QaAOwIiKsAdgiUQG+tM624XSQNgPyKPSi7w/uB3ANCgoAgIAhEGIH1OPpvi1OA7AjLEfbwUWkAsJbZ2dkNvF4vhwYWyTgTNgbSQQcCETEA4uLJ0+Q+ym2CAyADGQh1qCtdBAFBQBA4BQE++sdGtA92/7OjEZ6oNQAYbFwFcHKg96MR+GiXOWnd05S8ziKveyz8eTXODSz8vjItoh06kV8QEAScg8BzWPyjNjItqg2AoBHAaYKHO+d9ihJN/F5y7Z1Cidu/PF69z2dCumss/F6U8fU05oX/tCgBRsQUBASBWEAAu//ZSPjTD8/jdYyjkKLeAIAvQDUcwSzHp0oU4u8IkeO8R8i161tK3PkdxR+aT3Go7meEfGWaU16VgeSt+2/yZTQxwkr6CgKCgCCgHAEs+nuR7rc9yvzuVM7cQoZRbwAETwHOw/NbC3GToUpCACcDXOQn4cAflHDwD4o/tgK1APaVaBT4XWUClft8ZdtQXtWBWPj7i3OfvF2CgCBgWwT43h+fwdj9T7WtkBoFc4QBwLpKwSCNMx6hZnwqwNUA+UN+//FFP7kyUXxKhCSSYQUBQUAQCB8BLP4Pw+v/8fB72q+HYwwAXAGkoGDQLEDcyX4wi0SCgCAgCAgC0Y4AFv9J2PmfwacA0a4Ly+8YA4CVcbvddfLz8xfCGKjqhMkRHQQBQUAQEATsgQAW/W1YWzrA6x/HmM4gRxkAPCU4BeiDxxRMlMsZUyRaCAKCgCAgCEQSASz+XlT564NUv3MjKYfqsR1nAASNgNEwAF5RDZbwEwQEAUFAEIg9BODxfweO/l92muaONAB4kpAk6H94XO60CRN9BAFBQBAQBKxDALv/8XD6u9C6Ea0bybEGADsFIjJgDt/ZWAenjCQICAKCgCDgIAQ2YPHvCCPgqIN0OqGKYw0A1hD1Aurm5eUtghGAeDMhQUAQEAQEAUFAGwJc3Aefbjj6X6qtR/S1crQBwNMBp8B+eEwWp8DoezlFYkFAEBAEIoUAnP6uRqa/DyM1vhXjOt4AYBBxFXC7z+d7yQpAZQxBQBAQBASBqEfgY4T7XRn1WoRQICYMgOBJwGc4BRjl9AkV/QQBQUAQEAT0IxAs8jMQTxMqnOmXy4yeMWMAYPFPDToFtjcDSOEpCAgCgoAgEPUIrIXTX3cs/gejXhMNCsSMAcBYwCmwntfrXYQfK2nARpoIAoKAICAIxAgCWPT3uFyubqmpqZtjRGVnpQLWMmk4BRiA04BJ+CRoaS9tBAFBQBAQBByPQBac/vrC6W+h4zUtpGBMnQAU6C1OgbH0iouugoAgIAiUjAB2/vnI9HcuFv+fYg2nmDQAeJKRKfBZPO6JtQkXfQUBQUAQEAT+QQAGwE24938rFjGJWQMgaARwjKfjQz1i8cUWnQUBQUAQCIUAdv7PINHP/aHaOfX3MW0AsB8ArgPG43mOUydY9BIEBAFBQBA4FQHs/L/C4n8pnv5YxSemDQCe9GDNgIl4chlhIUFAEBAEBAGHI4BFfyYW/8GxEOtf2lTGvAEQNALK4iRgOowAyRHg8D98UU8QEARiGwEs+qux+PfA81BsI0GxFwZY0oSjZkBVGACz8fsmsf5SiP6CgCAgCDgRASz6u4Ox/lucqF+4OskJQCHEkCioPqoHcgnhmuECKe0FAUFAEBAEbI0Ax/r3QbgfJ4MTAgJiABR5DXAS0AoGwEz8dwV5QwQBQUAQEASiHwHs/PPg8X8OFv9fol8bdRqIAVAMlm63u1t+fv4UGAJp6qAWToKAICAICAJWI8CLP8YciVj/b6we2+7jiQFQwgzBKXAoDIAJ+CTafRJFPkFAEBAEBIFTEQgu/pdi8f9a8CkGHwGlZARgBIyEAfA5PmIoyYsiCAgCgkAUISCLf+jJkoUtBEbwCbgFBsBroaGUFoKAICAICAJ2QCC4+I/Czn+cHeSxqwxiAGiYGRgBY2AEPKKhqTQRBAQBQUAQiCACXNwHw/PiPzaCYkTF0GIAaJwmGAEPwwh4VGNzaSYICAKCgCBgMQKy+IcHuBgAYeDFZYRhBLwoPgFhgCZNBQFBQBCwAIHg4n8Zdv5fWTCcI4YQAyDMaUQZ4avxor0LIyA+zK7SXBAQBAQBQcAEBGTx1weqGAA6cMN1wAh0+0xCBHWAJ10EAUFAEFCIAC/++FyO/P5fKmQbE6zEANA5zVlZWWf6fL5vuJqgThbSTRAQBAQBQcAAArL4GwAPXcUAMIAfTgL6wgD4ESwyDLCRroKAICAICAJhIhBc/K/Azv+LMLtK8yACYgAYfBWQNrgLCghNBBupHWAQS+kuCAgCgoAWBGTx14JS6DZiAITGKGQLRAe0xknAb/hUC9lYGggCgoAgIAgYQYCr+l2Cwj4/GWEifeUKQNk7kJOT08Tr9XIBobrKmAojQUAQEAQEgRMIYOe/B1X9zsLiv1BgMY6AnAAYx/AEh+zs7LpsBOA/mihkK6wEAUFAEIh5BLD4r3G5XGekpqZujnkwFAEgBoAiIAvY4DqgGk4BJuPTRjFrYScICAKCQEwigMV/Fpz9zsXzYEwCYJLSYgCYACwW/wqIEPgVrE83gb2wFAQEAUEgZhDAoj8Oi/8VeObGjNIWKSoGgElAwwjIgBHA4SnDTRpC2AoCgoAg4HQEnkdq33ux+Pudrmgk9BMDwETUOV0wEgY9gYRBD5g4jLAWBAQBQcBRCGDB90Gh0Vj833CUYjZTRgwACyYEJwGXYJgPYRCkWjCcDCEICAKCQNQigMXfDU//kfD0nxC1SkSJ4GIAWDRROAnogJOAH2AE1LZoSBlGEBAEBIGoQgCL/17E+A9PS0v7M6oEj1JhxQCwcOI4QgBGwLcYsruFw8pQgoAgIAhEAwLrkpKShqWkpGyKBmGdIKMYABbPIk4AknAl8DaGvdLioWU4QUAQEARsiQB2/nPg6X8OngdsKaBDhRIDIEITi9OA22AMvIBPQoREkGEFAUFAEIg4Arjv/wD3/bdg8c+JuDAxJoAYABGccBgBg3AlMBYiSCGhCM6DDC0ICALWI8DOfvjchJ3/J9aPLiMyAmIARPg9QA2BxkgfPAEnAc0jLIoMLwgIAoKAVQisw87/Qiz+y60aUMY5FQExAGzwVmDxLwu/gM8hylk2EEdEEAQEAUHANASCmf2uwfOYaYMIY00IiAGgCSbzGwWTBv0XVwL3mz+ajCAICAKCgLUIYMH3YMS7kdznNWtHltFKQkAMAJu9G/ALGAkj4D2IlW4z0UQcQUAQEAR0IYDFfyvi+0cgvn++LgbSyRQExAAwBVZjTOEX0MTj8fCVQGdjnKS3ICAICAIRR+BX7PovlxC/iM/DKQKIAWC/OQlIhCsBF04DxuDHB/h6wKZiiliCgCAgCBSLABb8fPziETj6PSnFfOz5kogBYM95OSHV0aNHe+Efn+JTz+aiiniCgCAgCAQQwIK/B49LsfOfJpDYFwExAOw7NyckwwlAOZwGvInnpVEgrogoCAgCMYwAFv9ZCPG7GMl9dsUwDFGhuhgAUTFNx4WEEXApHATfxI/lokhsEVUQEARiAAE+8sfnOSz8/8EzLwZUjnoVxQCIsinMzs6ul5eX9ylOA/hqQEgQEAQEgYgjgAV/Dbz8r4SX/7yICyMCaEZADADNUNmnITsF4jTgAUg0hp0F7SOZSCIICAKxhEBw1/8Cdv2PSC7/6Jt5MQCib85OSJyVldU5Pz+fwwWbRLEaIrogIAhEIQJY8FcHd/0S2x+F88ciiwEQpRNXIDZOANJxGvAyntdEuSoiviAgCEQBAsFd//PBXX9uFIgsIpaAgBgADnk1EC54HlThDIKVHKKSqCEICAI2QwCL/6rgrv9Pm4km4uhAQAwAHaDZtQtOAqrjJOB5fEbZVUaRSxAQBKIPgUIe/mPws+z6o28Ki5VYDACHTGRhNVBZsC/+zXkDpMSwA+dXVBIErEQAC/5KxPVfiSP/BVaOK2OZj4AYAOZjHJERsPgnwhC4A4M/jI8UForILMiggkD0IhDc9T+Lhf9R2fVH7zyWJrkYAM6c1xNaud3uOogUYCfB8x2uqqgnCAgCihAI7vr/jcV/oSKWwsaGCIgBYMNJMUMk+AcMRRbB18G7kRn8hacgIAg4AoEjOO5/Agv/qzACPI7QSJQoEQExAGLo5cApQAoMgfug8v38cwypLqoKAoJAKQgEK/e9jyb/QQGffQJWbCAgBkBszPNJWubk5DTyeDyv4T+HxaD6orIgIAgUQgCL/zR87kDZ3mUCTGwhIAZAbM33Sdpy7gD84bN/QN0YhkFUFwRiFYENUPzusmXL/hCrAMS63mIAxPgbwJkEkVL4P3jeyZEDMQ6HqC8IxAICfM//OO75X5N7/liY7pJ1FAMgtuf/hPYIGWzOSYTwH2cIJIKAIOA8BOSe33lzalQjMQCMIuiw/ggb7IawwcdhDAxwmGqijiAQswhg8Z8avOdfHrMgiOKnICAGgLwUxSIQzCb4BAyBHgKRICAIRC0Ccs8ftVNnvuBiAJiPcVSPEMwf8DiU6BTViojwgkAMIYDd/j58nsY9/+tyzx9DEx+mqmIAhAlYrDZHxMA5+CJ5DCcCbWIVA9FbELA7Avgb3YnPc1j438XTbXd5Rb7IIiAGQGTxj6rRsfjH4UTgIgj9KH4+LaqEF2EFAWcjsAUL/jOI5f9I8vY7e6JVaicGgEo0Y4QXFv8EhA6OQmrhR6BywxhRW9QUBOyIwDqE9D2FHf9nWPjz7CigyGRfBMQAsO/c2F4yGAIuOAteiS8eziNQx/YCi4CCgEMQwN8ce/M/iR3/OPzsc4haoobFCIgBYDHgThwOi38yrgaug25cY6CmE3UUnQQBmyDA1fmeQL7+CVj4/TaRScSIUgTEAIjSibOj2JxJEIbABXiOhnzd7CijyCQIRCMCWOxn4/MEdvyTolF+kdmeCIgBYM95iXqp4CPQEQmFRuNL62I+IYh6hUQBQSACCODvZ0pwxz8jAsPLkA5HQAwAh09wpNWDj0AVyHA9PjfAEKgVaXlkfEEgChDIxML/JZz73oZz319RIK+IGKUIiAEQpRMXbWKzwyCuB86H3KMlu2C0zZ7IawUCWPSXYpy3ccz/OX4+ZsWYMkZsIyAGQGzPf0S0x/VA++D1wCUwBlIiIoQMKgjYAAFO1oO/gbEul+udtLS0+TYQSUSIIQTEAIihybabqsguWBkyXYcvwRvxJVjbbvKJPIKAWQjgnV8B3u9gt/8pfj5i1jjCVxAoDQExAOT9iDgCweuBc4PXA70iLpAIIAiYgAAW+hy861/zwl+2bNk5JgwhLAWBsBAQAyAsuKSx2Qjk5OQ09Xq9l2Acjh5oYfZ4wl8QMBsBLPxr8HkHDn3/w/Og2eMJf0FAKwJiAGhFStpZjgCcBlvDCGA/gYsxeCPLBZABBQH9CBxFV07W8z6S9kgIn34cpaeJCIgBYCK4wlodAnAc7AzHwYuDeQXEX0AdtMJJHQKHwOqHhISE8XDo+02K8qgDVjiZg4AYAObgKlxNQoArEiK3QA98ufI1wYX4dzWThhK2gkBIBPAe7kOj7/EcjyP+aXh6Q3aSBoKATRAQA8AmEyFihI9AsCph3+A1AecYqBg+F+khCISHABb5XejxHT7fwIt/Jv6dHx4HaS0I2AMBMQDsMQ8ihUEEuA6B2+0ezNcEYMURBWUMspTugsAJBLDIb8M/vsV79g3u9P+QCnzycjgBATEAnDCLosNJCLAxgGuCrviSHoifB+LZhUMNBSZBIEwENqH9eCTpGZ+amvqnVN8LEz1pbnsExACw/RSJgEYRwOJfBqcDfXw+30DwGoB/tzLKU/o7DwEs8HuhFXvsT8fnd+z0VztPS9FIEPgHATEA5G2IOQQQXlidDQEYBAOCpwR1Yg4EUZiKLPjTseCvElgEgVhCQAyAWJpt0bVYBILJhwbgl3xl0A/PCgKV8xCQBd95cyoaGUNADABj+ElvhyEAAyAe1wUd4EzIvgNsDHTA/3HNAqEoQ0AW/CibMBHXcgTEALAcchkw2hCAQVALRkA7XBm0g+zt+GcsLo04J0G06eJgeQ9iTpZDv2WYl2X4+Q850nfwbItqShCQLzAlMAqTWEOAHQsRadAWCw0bAwGjABi0wjM51rCwUt9goh12zlvOC318fDx/liPz3g4r5ZCxBAEnICAGgBNmUXSwBQIcaoiUxc35lIBPCwoZBpKgSMcMAb/twHQ5L/K8s+dFH9n2uLCOZNvTgad0EQSKIiAGgLwTgoDJCOAKoQ58Chpj4aoDw6A2nrWxsNUpeGL4SiaLYEv20D8bOOzEk3fvO4I/b+HFHhn2luP/Obe+kCAgCJiEgBgAJgErbAUBrQhg4UvNzc2thTLIAaMARkKBccDGAocossEQNY6IwSx5HFPPi/oO/Hsn/xxc6Hfy/2GB53/LAq/1JZF2goAJCIgBYAKowlIQUI0AFs0UGAm1YSSwMVAOi2cqjsbTYCyk4uc0NiKCzzSMnYrPSU/8Po37BJ8n2rOc+L/s4G7czU/814kPfhf4v0JtuK2b/43xT/w/5DiKjHmBhR5Z83ajTZ5qDISfICAIqEXg/wEFrHBdTtihJAAAAABJRU5ErkJggg==;" vertex="1" parent="1">
          <mxGeometry x="260" y="90" width="62" height="62" as="geometry" />
        </mxCell>
        <mxCell id="BD8oxNHUnit-K7tUw3Ro-57" value="" style="shape=image;verticalLabelPosition=bottom;labelBackgroundColor=default;verticalAlign=top;aspect=fixed;imageAspect=0;image=data:image/png,iVBORw0KGgoAAAANSUhEUgAAAgAAAAIACAYAAAD0eNT6AAAgAElEQVR4XuxdB2AcxdWe2b07VfdecO/Gxg1XSVZxlS25IZqpoRhCHCCQHwglkJBAEtJwCKEEHLDBtnCTe5Uty7032bg33Ltsq9ztzv/tXtHe6STdSSdL8r1NhE+3U79Z7fvmzSuc0UUIEAKEACFACBACQYcAD7oZ04QJAUKAECAECAFCgBEBoIeAECAECAFCgBAIQgSIAAThotOUCQFCgBAgBAgBIgD0DBAChAAhQAgQAkGIABGAIFx0mjIhQAgQAoQAIUAEgJ4BQoAQIAQIAUIgCBEgAhCEi05TJgQIAUKAECAEiADQM0AIEAKEACFACAQhAkQAgnDRacqEACFACBAChAARAHoGCAFCgBAgBAiBIESACEAQLjpNmRAgBAgBQoAQIAJAzwAhQAgQAoQAIRCECBABCMJFpykTAoQAIUAIEAJEAOgZIAQIAUKAECAEghABIgBBuOg0ZUKAECAECAFCgAgAPQOEACFACBAChEAQIkAEIAgXnaZMCBAChAAhQAgQAaBngBAgBAgBQoAQCEIEiAAE4aLTlAkBQoAQIAQIASIA9AwQAoQAIUAIEAJBiAARgCBcdJoyIUAIEAKEACFABICeAUKAECAECAFCIAgRIAIQhItOUyYECAFCgBAgBIgA0DNACBAChAAhQAgEIQJEAIJw0WnKhAAhQAgQAoQAEQB6BggBQoAQIAQIgSBEgAhAEC46TZkQIAQIAUKAECACQM8AIUAIEAKEACEQhAgQAQjCRacpEwKEACFACBACRADoGSAECAFCgBAgBIIQASIAQbjoNGVCgBAgBAgBQoAIAD0DhAAhQAgQAoRAECJABCAIF52mTAgQAoQAIUAIEAGgZ4AQIAQIAUKAEAhCBIgABOGi05QJAUKAECAECAEiAPQMEAKEACFACBACQYgAEYAgXHSaMiFACBAChAAhQASAngFCgBAgBAgBQiAIESACEISLTlMmBAgBQoAQIASIANAzQAgQAoQAIUAIBCECRACCcNFpyoQAIUAIEAKEABEAegYIAUKAECAECIEgRIAIQBAuOk2ZECAECAFCgBAgAkDPACFACBAChAAhEIQIEAEIwkWnKRMChAAhQAgQAkQA6BkgBAiBckFACBF2/vz5J0JCQqbVrFnzSrl0Qo0SAoRAqREgAlBq6KgiIUAIeEPg+vXrda9lZz9lkqQXGeONJIk/1qBBg28JLUKAEKhcCBABqFzrQaMhBKosAseOHWvJufklWRZPQ/CHc84ZhD9+pNkgAGOr7MRo4ITAHYoAEYA7dGFpWoTA7ULg4MGDPcxmy0uQ9w+hTxPnEuOa4McX2meQgBwQgHogBDdv15ioH0KAECgZASIAJWNEJQgBQsADAZzv8yNHjiSoqvoihPxIu8CH4Hfs+r2QgHEgAbMISEKAEKg8CBABqDxrQSMhBCo9AhD8ln379j1oMpn+TwjW2Sj4iyMBOAaYAgLwaKWfIA2QEAgiBIgABNFi01QJgdIicOnSpeqnT59+kkvSq9jpN9V2+i6Bb1D3G1X/xs+yLF2rjwv18ks7BqpHCBACgUWACEBg8aTWCIE7CoGsrKzmNpvtJej2n4bIj3QT/EYSUITq34MEjAAHWHhHAUSTIQSqMAJEAKrw4tHQCYHyQmDjxh3tTCblDZzlj8eu32w36NN2/TDq8xD8nscAnMmbJUkslGX5HXgDoAm7QSCOAb7HMcDD5TVmapcQIAT8Q4AIgH94UWlC4I5GYMeOHZ3z8qyvwXL/IQhuk9Owz4ez/iwI+VSA813r1q0PaCCdOnVqLf7prxsE2jUEt0AKGtarVy/7jgaRJkcIVBEEiABUkYWiYRIC5YnA1q1bu+bl2V7FBv9hCGvZuNPXXfm87vp5FmNSamioZVrLli33e47vp59+mqiq4mMPl8DHoQX4pjznQm0TAoSAbwgQAfANJypFCNyRCKxatbGfZLa9BYk/HC8DyHqHsDeq+w2fJVnKliVpKnby/2nfvv3O4kA5evRoQ7PZfArNonnnMYC8tEGD+kPvSDBpUoRAFUOACEAVWzAaLiEQCATWrVvXJT9feRub+xRv5/ueu35Y8e+HZmAy+v68a9euPsf1xzHActRJcMYFAHlQQR6a1a1b96dAzIPaIAQIgdIjQASg9NhRTUKgyiGQmZnZOT8//3dcksdg8NiYGwz7Cn/ONclSKnbx/+nSpcu60kwWxwBP4RjgSy0ksG5ECMZhMsmvwA7gb6Vpj+oQAoRA4BAgAhA4LKklQqDSIrBw4YrWJhN7FzL4YUh9yGO74NeN8wp/Pm+STf9UVdtnffr0uVSWSV24cKFaXl4edvu8msEWYE/Dhg26lKVdqksIEAJlR4AIQNkxpBYIgUqLwMKFC5sK2fRrWYgJEPghRoHvqfrH+f4xWTL9w2SSvujVq9etQE3q5MmT/0K/L7iHB+YDYAxYKq1CoMZF7RACwY4AEYBgfwJo/nckAhD81W2q9BtZEi9irx/q2n172fVDzX8cIPwOAX++iYuLswUakDNnznRSFHWPPZSAXesAm4JvEBTo8UD3Re0RAoSA7wgQAfAdKypJCFR6BGbMmCGHhUU8owr1PWj662uC377rd8/Qp30Pg7wzOAv4Q0xMzBflHaIXxoArcQwQZzgGyAkNDWlSs2ZNnw0KKz34NEBCoIohQASgii0YDZcQKAqBH36YP1SSlL9C1nd2E/geu35E5MvhTHykKMqfhg4deltS9OIYYBxIxg/GYwCM40VoAT6mFSUECIGKQYAIQMXgTr0SAgFDIC0tDdH7bB9B8A9zCn5vu36c8Qsm+DRZZq8PHjz4RMAG4ENDyCIoQwuwC0K/k4EE7IUdwN0+VKcihAAhUA4IEAEoB1CpSULgdiDw9deza4aH5/8BLn3PQr1ucrraFUECDuD+c8OGDUu/HWPz1ge0AGMh/GcaXQItFnN07dq1MytqTNQvIRDMCBABCObVp7lXWQS+++47xOqXNV/6hkXu+u2q/3zc/1NERNgfYeCXW5EThhaAIy7ARpCAew0JgmbiGOC+ihwX9U0IBCsCRACCdeVp3lUSgalTp7ZCYJ1P4NI3TI/W52HkZ1T9Oz9D9X9GlngmQvCtNQmROWTIkG24JyoCgNOnzw0RwrbEEBlQATFoj6OAwxUxHuqTEAhmBIgABPPq09yrDAKfffaZOTw8/NeC8beg7g9zJucplKjHJ0LAz8MDYJPK2OYQs3lLbm7uFhgDnr9dYJw+fXox+hrqdAlEZMCPERr4xdvVP/VDCBACdgSIANCTQAhUcgT++9//Rkmy6T8YZueSd/16Mp9rULHX8HY0UJRLIGIBaEaBOyVZ3gtysNtkMmVdvHhxX2JiYl6g4Tl+/HgrhBfejfOJcI3IwDDwBn6/q1atWlcD3Re1RwgQAkUjQASAng5CoJIiAJ/+sOzsGx9CUE7UE/U5UvKWRAJwLLDTbAofb+PWaElhQyWZIxkPr1ZC+F97SGBjvABJsiEz8HFZYoeELB+WhXoIwvqQECaE9rWeOXLkyPn7779fKQ18Z8+e/SWOMv7ptAVgzPxagwa1/1yatqgOIUAIlA4BIgClw41qEQLlisCXX37ZXVHVKRDAcJvTdsl24eyp+sf5fj7IgcXTFgDFvxk7dqweae+zz7aYGzU6399slpGGVwyF/UB3TfvnjRAUygxoTBCkp/S1R/KzBxKSVXw+j8/nmJB+kiRxHuP9iXPTObOZnYcWIRv95CDC4HWUyw4NrYnPN240a9bsOr5XESFwNuY0yhGU6BSOAVqhnLVcgaXGCQFCwIUAEQB6GAiBSoSAFsnvypUr2ln/e7pgL7Trt5MACPzF+Od97MhD4A2wFGVh52cXzE4NARL6vDRqVNI/Pae3ZMmS+hDUQ1AHgYNYHCo0KSIpkEMrYMgY6EFEjITA22cncTFEANTHiLHmSZJsxZAjnVkCER74CZCA/1Wi5aChEAJ3NAJEAO7o5aXJVSUE/v73T1uEhLBvIPyji9n1X5AtpuceGz9+lnNu06en/hahf5HpryDkr+OzwrnlvjFjEucUh0N6enoLRWFR0BAMgEU+7A3kTijvyhhYklagkCGig4j4SQg0W4CDIAAdMfZSHStUpbWmsRIClQEBIgCVYRVoDEGPwMcff/wYNvGTIPyqu3bNhVT/8hbOlLE/+9nPThoBg9CWvpv+w1KZC+2s3xX3X0+6I8m3ZJnHJSUlbfIV5DVr1tSCMO6vkQG0EYUjg14Q8qFODUOBYHccSRRzTFAsCTDMz6khwLHBowgMNMXXsVI5QoAQKD0CRABKjx3VJATKjMDXX38devXq9f9AyD5u3/Xbz9jdzuftKvO1jRs3glF+onZ+XuhCYKAG3GTeIjHW1Ism4FJYWEgsXP32lGbAyCwYUq9evV5QCvTH0X1PDLA71Pdt8PKAfHe3Cygk8O1jdzcudBkaOubqOFZw2ALsr1Onzt2kBSjNSlEdQsA/BIgA+IcXlSYEAobAJ598cldurm0m5OG93nb9BccAcpbFLA148skni3WTmzZt2r04YM+AENbT/xq9BaAJOAtNwMARI0YcCMQEMjMzq4WGRt5jMrHuGOc96AsuirwD+q3pr+rfOE7tM+ICPAwtwPeBGCe1QQgQAkUjQASAng5CoAIQ+Mc//hGTr4gZ2LE3KGrXbxeMUjZnavcJEyb4FClv+vTpj4AEfFtEeOCTEK5x0CL41FZpYDlx4kTj7OzsjlDld8QRQluQgubQFjSD0WEzLok6TnJQjHEg5ixn1alTuwvqIlYRXYQAIVBeCBABKC9kqV1CoAgE/vznP7+A8/6/Q8CZ7RbwBap/z2MACNKnnn326a/8ATP1hx/+IgR7tYhAQKcR9GcwSECWP20GoiwIQTj8/1vk5+fXRnu1LBZLLZuNw95AfRKEQNMiOD0ENOLzII4CpgeiX2qDECAEvCNABICeDELgNiGgnaXv2L37Ey74U65dv/P822gQ5/iMMhuef25Cf3/j9mtGgTNmzJ4qyeLBIjQBV8xm03DYBGy8TVP32s2hQ9n1Q0Ov/RvzG+flGOAIIgNqHgGIc0AXIUAIlAcCRADKA1VqkxDwQACZd/gXEyc+mRMZ+ftbNWo1LnLXbyAEJplHPf/882tLAybiCSA4kDQHW+rhRqNAp3Eh7l0zm+RxSAy0ojTtl7UOwgGnYAyfAJZ6XmIE2I0GOZsIt8B/lbUvqk8IEAKkAaBngBCocASWDo7tdUMO+f2Vls27XmnWsrEwh9gj6xXyAJDXTvzF81FlGbCmccjJyUkFCUjy4hnAEEXQiuhBz0MT8N+y9ONP3VOnTjW1Wq1/hYC/3xjrwOEBgDN/fHJ5DvALOAZog3JePR/86ZfKEgKEQGEESANATwUhcJsRmJGSItf66fjrgos3b9RvKEAEwrMbN2GqJdQV8hdWARdhsJepMmkz7OJX1q0bsbk0cfe1LIJ16zb4LzbUj3ojAbq3AOMfDhs25M3yNLq7dOlSdUQ4fA27/pcg5MML7/qlH4VQH0RSIEQC5F0NcQH+ULNmTWRApIsQIAQCjQARgEAjSu0RAj4ikN7/3m4qF1NUVe0soAHIrVOPZTdqwm7iJ69OfS0Wn5EQXJBl8XVERMRn48ePP+JjF65is+fOfYMJ9j6EPOzt7MZ2RkKADIALa9So/lifPn0u+dt2ceW3bNlirlGjxrM4AvkteqznZdcvYPX/JWIcvKrt9JEfoLcsy+vQpuywC7gFm4Z2OApAAiK6CAFCIJAIEAEIJJrUFiHgJwILJ7YJMe+o8T6C3/4KVeEVaL8Esunk1KnLcus2YLn16rO8eg2ZEhauEQJV4vJMWWb/h7gAx/zpbs6cOYPgjjcZW/4m3hIBgQQcDwmx3B8TE+Nz1MCi+kd4YVOjRo0egPB+B4K8nX7M4RE0CHEKd5vN0stNmzZ1s0M4f/7iPwRTX3QGEIIm5CtoAZ7yZ65UlhAgBEpGgAhAyRhRCUKg3BFY1b97PyuTvoGc1CLsGS5NRW+/bOHh0AzUY3kNGrH8Bo3z8uvX/yhPUf6IGAG3PAeopRLGd7XV8PBaYYpS22pVa5tMvJYQclsEBPoVGg3xZhyoWd1DTv8mISFBc1P02w///PnzkWfOnHsKiX1eRh/NndoGjyyCx0Fx3mnZsiWyHRbuA6Qh8sKFi1tRv5098ZGsgJj0hvZjW7kvBHVACAQRAkQAgmixaaqVG4FlPXvW4KHivxD547SRukS/4a/U+AcrzCaWX6tunq1mrZN5DZvYrI2aSkrt2pHYateG4CyIBmjcfXuo/guRAMfxALQBa8PDw57s27fvQV9Q233kSAM1++ZECPbnMXD0X5A22BX8R5YuyJLpj61atfgU/eYV1y7sBbrBWHC9noPAPuaNcAvUXCL9JiW+jJ/KEALBiAARgGBcdZpzpUZgZVSfZ5lQJkGQWpwDLfSHii8KdAMF0xEWM7PCfsCGYwNr/UZMqY+jAxwlIGVwoXN/92OAwnYBOGqAZkG8Xb165KRevXpZPUHDTp1v3rw5hiNYkSRYCoQzSIcjQZBB3Q9vg10mWZ7Upk2bqSiT4yv4Fy9efAF9/MuV3thkeqZ69epf+lqfyhEChEDxCBABoCeEEKiECKyM6tkHIl6LhNfc7Y9U4pfwuwyDvprGYWOTX+iyf8WZCA0FGWjAFNgR2Bz/MpACBN13TzrkyOpn1wpoZ/aubH/7LRbzr/v37z9faxF5ABpLkulxSeZPQji3LSJLoIKd+1wcOUzq0qXjqtJCfP7SpVRJiPs0EoBjhYswKOyA8QXUULG0Y6N6hEBVR4AIQFVfQRr/HYvA4qFDa4feujwVu+BhdkMACGbGTjOzKSVm5foN64YMqWuzZbeRraKTypX2uN8broV9uGAhWlmX8YBe0/0SsCJU69bTNQQqNAXaj2jYkHEYGmqC30gCnJ8hgJeBe+RyLoajjMlupGcgCvqu37QFWvrvw8LCprdv377MlvuYe3W4EG5CP+01EoAOPq9ds+aEO3bRaWKEwG1EgAjAbQSbuiIE/EVAixlQ9+zRv0Akv+ysiz/afET7fTk2c+O/Pdtbl5ISZr10vB++j5dUdh80BSAGhsvxF+/UDnjeUmvWZKJeA6bih+FHgCAw/HCLxau2wG6kJ53BP5+Gh4dP69Spk082A/7ggORCnfLy8jdCoxCJvlTECugLg8DN/rRBZQkBQqAwAkQA6KkgBKoAAmui+jypSOqnEOiw3rcPWEj8y8hs5ee9tm4tdD7vnNL66L49rFx5COfwj2I33cCr4C/iLeD8WnAZqXtw4gDvA4YjBFa/sf5ZagBiAHdFGAyqGFMaEhf912azLfFmL1BWiKEFgI2BNN2udODbcBTQB//aytou1ScEghkBIgDBvPo09yqFQEZc3wFMUWcJ7MsLtAHSUktE7ZS+ixYVGy53Y0L/fjZFWavlJHDVLdJuQCtR/BGC3gZU/gxuiZJGDPDDGzZmpoaNr0gN681gcsiUbt26ZQYSYHgGfIQsh69oXgG43kRsgD8Gsn1qixAINgSIAATbitN8qzQCa6KiWqmydQkXoo0+Ef0vWOxWwiMS4xatOlXc5DLj+k1mQn28aINBrT33V4LXF4Q7N3B0WVCSw76AwwtBrlX3inL80Gdyzq3tzCT292jb+0c+aVKx7n/FjR8aDNPVq1dhh8BiJVnOw/FDz2rVqu2t0gtKgycEKhABIgAVCD51TQiUBoG1Q4bUt+VfXQBjv15ODgB1+HGTygb3zdhY5Bl8ZvLgxlJ29iFoELQgQS7+IEviNZtkOsNgEshsHJkKpXq42QDGfo3gQ1Afxw71haZ6LzRYg9B3kRHvM7LbMHKFm8zn5NbtakqNGlhNjZoJuWFjYWnU9Lqpdq1sFMiDoeE1CHobjhOuIUZwPg4fbmpVtfTJCBGs6f817cdoh/Hh5urVqmmxAegooDQPEtUJegSIAAT9I0AAVEUEljzaNSLiRHgqQuYOdwlziZ+DcB8anb5pZ1FzWhvX+68QtL9yPweQP+q/cu2vi6ojUlIsu2+daZpns7VShKmVLGytVMZbCYXBHZA3Qp+tPOsWerEUdOgqaizDwyOYDK2BqfFdzNwEPw0aMFOTZvjc1CH47XEKnOGBHcGBNELwBmIDfFgV15DGTAhUNAJEACp6Bah/QqCUCGiCOfPCsf9BoD/oNO7jgl9mJmnYgBXrvFrJrx0zpD6/mn2ccRHqIg6c/9R3+fpm2OKXKsqe1mZYTnYX1Sp3VmXb3VzlPXE00QX2BmajA2KJLxtDAedHbglhZmRKNCNBkk4M8BOCHwuIghwCzwRJyrNYLD1CQkKySgkjVSMEghaBEv8mgxYZmjghUAUQ0NwEm1w8/j8E5RtfINDZVUjyQdHpG7d6m8J62AIgXsDjbjtwsxzfd8na9EBNWXNHNF071V1Wpd7YtsdASxAL1X4tz+2/7y+gQrYJwlSj5lVTrdqXWGj4vvx9u2eZzJY9eU2zs3p9vrVQboRAzYvaIQTuJAR8//u7k2ZNcyEE7iAENBLQ9NKJr4XKHnXa+EM1ftls44PuzVi/3XOqaxMG3iuJvIKMf5pRn2Bf9F254dnyggXW+9K2oVHdobqPV4WaBO1Af4Ywge79edgUuBiN76PStBho+yh+9oB8ZAmT2M0kc1b3sLr7eGpqvu8tUUlC4M5HgAjAnb/GNMMgQEATsBvi+32lMvVxbbraHzaE4SUeYonpu2hNIfX4+oR+G+E90Nv1ApCkK31qNml4u4TktpTh9ZTs68k4svg9PBrgR+gYtJ9r5fsLTDMU5AcRTHCvpCh7FFneqyq2Pdn9hx6Ke/ddMiL0E3cqfmcg4Pvfz50xX5oFIXDHIqCRgPUJfabAav8hlx8/5yfUiMh+UWnLThsnvnlo1GOKzabZDxR8beKj+y5ZN/d2ALQ1ObYNs1o/gdXBkKL68/nl5HNBQ09QEeicg7N8Jvg+xtUsaCd2Mw5iYJZ2dZ+z6tjtwIH6IAQqEoHS/OlU5Hipb0KAECgGAc0wcP2ln+YxpuqCVfsDlySxQzSoPbDv1IJgQelPPBEafvLAGZzN17S76OnS8Ns+y9Y9Vp4Aa/1WP3/kdQQ0eg0aiAJDRHunVnCYydDiP+McA6z+Z2AGZxm3hYLgVIOANuPooKaQWC2uijoIQVgHmQir+Ttmh/x3VHP/zQHHZdhJbBdM3m7mfLs1n20/XKvBgftTUxV/+6LyhEBlRYAIQGVdGRoXIVBKBNJTUiJDL59aAUHZW28Cf+Wwll8qX84baQwbvGnQgClwIywwHmTs0rFaTRuUl5DbMaLfUNUm/QsjsgcxMlyIPbAuRJYnnKvX4lCNswcdKYO1REP8ye4L10wuDootPXuaWd3wuiEhchNVURuDXDSFlG6EqAHNYQzZmkuiNewjEMPYv6uAFtg/YTQ3QZh2CVUgsJG0JVQRmzotXruvtN4T/o2GShMCgUeACEDgMaUWCYEKR2BLUs+61puWNbDu6+D8I0fugP/1Xbb+SfyuS7TNQ/uPUxXxg4Mj6GOWZUtMzyWr1wRyAnsTExta1ev/VIW439WuY1CwAbgKwfrGPYvXfO4UpNuHR13DCKtrZSUh/eGeJRlvlXU850GKTuVcbM1t1nYQ3p2ZIjpDondGP21BlEz+tG+nA84zBIYQzGKzYHyjSZI3VpPzNrZK23jOn/aoLCFQUQgQAago5KlfQqCcEVg3NLaNpORthKyq7erKJP0e7n7vaL+fRTChE2ciLuCjPTIgJDAS+/y555JMqOcDc+1M7D9OUaX/QEjWLWgRIl8ToUKaHiJHvtR54cKzxt62D4tBNEO1jVZIIAFQj4UZDwZmNIVb0Y5Mdl0/e7cqST25pPTEcUJPiPauOG6wuDQAhU8I3BpyIwT2O8eB+QYYHG7A3DOOVG+4s7y0KuWFC7UbHAgQAQiOdaZZBikCm4f2HaTYpEUI6Wty2vuZOH+y57J1kzVINg8eMBfHAMm6glvjAIzt67VsXaeywrVlUM8ashz2Mc7RHTYF9va1C7vlkzC6m9Bj0dpF3vrZMSx6LTQX/R2cZOs9CzP1kMe369JIwc7sC72R5DAW4xwIv0K4LLJw+9hdkyhyOG6EQPuFs+tcZZlc5hmyoqzJu5S/ubgMjrdrntQPIUAEgJ4BQuAOR2BLQtQvFa780zlNiOJcVVKi+i7duHXj0Oinuap8YXwRSGGWtj3TVh0qLSzbR8bGCsU6Ger95sY27Bt69pU1P/SVXsuXXyuq/R2J0bOhHhhtv8+vdVu0BrmIK+7SCMGOGxfvZZI1FvESBmJe/WELEOELIShEBvQpsVvIrbBBUkSGbDKlX+odv45cEStufYO5ZyIAwbz6NPegQWDjoP7/hRbgZ3aZqu/Cj8uhdXrxnGv1VG5zxQnQMv5IjP2yx9J1k/wFR7Pwr3Xh0Ptw7XtZc0l0q8/5GQj/J7stWLOkpHZ3DB/4GeeqKyiREhFZv0fqIu2oolJcmtGhqV7EK9BS/B5IutkP6AK/iCMDkIaC8Rs/QkMAwrOSyXxxhByxtMO8pUcrxURpEHc8AkQA7vglpgkSAoxtebZnuHosZBMETWenuh8yaMmxmk1GtLp2+gKEUy3Xy4CzOb2WrBvjD26aX7+Ub9MMCu9x1UODepsSX6CGRz7pqxDfMTLq98gn4DL845Klf9f5K9b7M57yKrt9dGysKU/5LbwLYjVJX5x5QFFkwKtWwMAbBOcHTKq02CqxJbzZzVUU2ri8VpPaJQJAzwAhECQI7BwRe3defv4m/NG70gHjjP7X2MLGI7tfQVZBJl09XKNRXV8N17YPjx3NhDIZArGGDqVD8OtBdiTp/7rOz/jY6XngC9R7E3FkwbjhyEI81mVh5re+1C2vMrsh+IVVfQ/5DGK89gGpjvTJW0AJjiMvwzjPMkWTAQeF8K4c0MDMlaAdsElsllytepqvJKq8cI7c9uoAACAASURBVKB27ywEiADcWetJsyEEikVg29Do5xRV+VSX05qghpBG3oDFqipchoCaAEc0vD73zl9TkC/AS6uamn/3iKg/qCp7DWfaWnOuC7+cE6rpvm6LV2X6uyR7RsQ+qDLle2c9Icvv3ZO26l1/2wlE+R/HxN2Tl2/7EFv9YV6FOr6E0F/GVfOf7lmcvgL2C1/BTuBJTTcAn4o3VVlYJJvoA3/GPsCrVumJgH5so+B4ZY3E1Vk2Fjmn99KlJwMxR2ojeBEgAhC8a08zD1IENg8bMBdR9CDw7RcIgArpIhmjAiNPzxu9lmZ8WBREZx99NOLsxaPfQqCN8XyJQPhvlWzhY7qUUkDtHR4fr0rWFa4wxZxN7TI/45HbuVzbRw9rYbLm/p5z5WGN6Hiq+iHkta/mQoPyftcFma6si7sTo/fieED3opBCeKcuszP2aZ81BcGu5Lh2wmbtjeiG0QgmFAPvgvaFSUUJGgHctjsWQBfB2Wb8M5uHhvxQFqPN24kr9VW5ECACULnWg0ZDCJQ7AvuTBze+kXtTM/yDyt5j664LF50ULO++OHOwt8H8mBLf5OYNa5rERA/P+4gjsCA7vEFK/9RURzQ//6eTNWLI3QrL3e2sCYG3seuCjL7+t+R/jUvjh1c/m537llCVF7VYAIVb0CX/Yossv90hbdUW4/0tgwbVCAnJuwzBrhtAlmS8eBQBkm6wazGKinTJgsfDqLBjwZzdiUAhWwMHEXBaHMJuYL3MpG9MJjEdhOSK/zOnGsGIABGAYFx1mnPQI7B1SBSs7MVnxl2/BorzhQACcFO5kFPL0199x5iodlIeWwYh18wIoublj5wDM/LO5jxSVh/3Q2OG1M+15rqi6WEslzrPW20IJBT45dN2+VkjY55AtMQ/YlftFjbYqbbHGf8qsznk7fazl3s91tg1ImoQHB2X6aOD6gBaC4s/YYKzEuOb21jeMFWRhkHnkACMkeOgGCLgQQK0bnFMkAs3xXkmrnxzpf/QxeReGPhn5U5qkQjAnbSaNBdCwEcENJX09iH907FzHGgU/E4GoAl0i8T6dl6YibTB9mtHckx3blUXo25953d6eB+7hd/XByIaPuOr4WBxw5yRkiJ3zj2Xb3QlVIVau7x2trtHxfeXFfVjpFLu6XVcnO8XTPl1l3mZ84sb9+7k2HeFovzWLv/FuS7zMxv6uByFimmxB7JuXIqyibxhCgchEGoXDy7gqgOcdNHvvAy/noMB4XfMpE7uuXjjrtKOherduQgQAbhz15ZmRggUi8DO5Lj2trz83XgJmPWC+tugIGKfJItf37Ng7Ufat5qQVPKtC52W/k7Br91DvP7Z+yLrpwRC+DsHjN34eQiyes7fTRZz7/azVmwO5JJix17LbDL/Sajq0xoh8pCo2jHIJZhHvHvzp1uf+aLV2DMyOh2q/FgdE66u6Tw/07vHQCkmsXPs8KZqzrXhCJ8MY0QBTQOr7nYs4E0bYCzA2TrBTB9Ll27O8mUupRgiVamCCBABqIKLRkMmBAKFwLbhAz6GMJnoLvodrXMprfuijFHY2fZSrMpyTfgbBb9WChqEdbfCGwwqy5m/t7lkJcfugZkbYhbYL8iyh++et9rlGVDW+e8bFQPjPulvTnW/+xk7twmu/stau/Z73SfPuepLX0cRBOnmxaNXMGY9xTEsKj/vvGD1BF/q+ltGTJwYsu3QriGyYrtfkViyM3GSBpJ9Hl61Ac5FPY2QxJ/mhYV/PmD20vP+9k3l7ywEiADcWetJsyEE/EJgy0NJdeXLVw5i/+sWbld3EWTssiKb402KsgLq8Tqewl/m/GDNOuZ+Tb9ZccmvTn0ovDd54ErIsTjXC0pm73SasxqR98p27XtwWAuWm/MZ0gMP8ZCV+q/Y9W+Qbebn2y1ctsOfng4kxsfkS7bVzjpCYi91SctwxTLwpy1/ymrRF+ucOTBUYdL9KhdJwKxaMUcCriljffPgCTJdsYRM6rPQ3ZjRn/6pbNVGgAhA1V4/Gj0hUGYEdo4Y8Kqq8L/YJaBRF65/cx2Cv7rRWNDuJcDyYQ/f3+gCV+aBGBrISoqbhmgED7jGxNk3Heeufry0fWgq/oPJ8RNUrvwZAhLGdQWXY798RTD5N53mrnSlJfanL+38n6uqfv6vXZLZPKTT7BV2g8DbdK1LSQkLzz4/TFXV+7E2SUjypOcr0C4PM4ECTYF+g69XTPzDvovXzvMnYNNtmhZ1U44IEAEoR3CpaUKgKiCgqZR3Htp+GGNt4jle7IjdvnL9xsXrEP5/Kq/5/Tg67mNFVR1HEzrhWNdh7uoBpenvSGJi8zzzrS8h9QZ5q4+2f7CEV/9Fq+/TXJ4H/vaTlRyzAVqFPk5hG16tZsOytOdv/57lNTJgvnF2hKyqD+pkwJne2HDW4ToucBwdgOhthyfH73ouXT+XiEBZV6Bq1CcCUDXWiUZJCJQrAruGDXwZu+O/OTvxVPe7vSg4z4CLW5w/Lm7+Dv5AcvxbClMcKn8tVoE4DwLg5p7nS5sHk+N+pnL173CPq16I3DB2ETYML3SYkz7Dl7aKKnMaxyhXb14/5/Ja4OxQ57TVbcvSZiDrbklKqiusVx+VFNvTKuedCucksjMAFzcQYifn8u/uXb52NhGBQK5E5WuLCEDlWxMaESFw2xHQI/tdOnYMRnF1ixT+jreFxBGQVvD1iHg3Lzw8bGab1CWlTh1c1ET3jYqdAIn0H+2+UwlRL7JJjTpTp173BZzDKYNqKHnqpxD+D3krj9B+80NZ9QnN0tJO+9JecWX2jk54hCs2PVeBXYhKX3eel27PvFjJLsR/6Al7jmcRK+BhaAYiXWO2Gw64JzcSfK9kkv58tHqjqYH08KhkkAT1cIgABPXy0+QJgQIEdowY+A7Osd/zPO/XSzjeFAVOgvZ6IAOa5NgM+TErLJTNaj0z42AgMP1xbPwYoaizjG2pstSz06yV20pq/8dRCdGC2aZgrG7BiuzTENch/H7eNm3V1JLa8fX+/lFxUxCnYLxLekryM7Al+NLX+hVRLjM5uVpY7uWHYCfwFAIO9bZL/8IkQPsKro17BJd+3X9F5uKKGCv1WX4IEAEoP2ypZUKgSiFwMmVo7Ss3c37CzjDUXeXvlP8F33qYBrg4Apf4biHJs2SZz+owc0Wpg8/sHzt4AFOsroh7Ws9Q1z9QnLoewXPkA8qVt7lQ34I7nuwJPuwZNoWKkIebzVmk2TsE5NIC9hzIv3BOFaKmU4UeZg7p2HLm0v0B6eA2NLJ1WJ+uqjA/i/wE0LqoSA7prglw8AIt4MNCE+ev9Fq6vsrM7TbAV6W7IAJQpZePBk8IBBaBHSNjpkiqGO+S6Phgf0kULfwd8YPcy+hV+CGmilkiJGRWp5lLtTTE7u72xQz98LiYtjabdMCtayG/2X7uij96q3YmZXi9G7acqditFspfoPWLn79crX/9rV6fb7UGErGs5EEjOLM5IgTC0oCz0+3nrm7qz1wDOR5/2jqfkhJ57MrpIbCvGAlyNBIkBoGXPOwBHGzAqRvAvKxwOfy3kie9F51JOQf8wbsyliUCUBlXhcZECFQQAruS4gYyxbaqQOVvEP6FXQQdwQMN5MA4btexge5ff4pzabas8tmtQ2pn8NRUpbgpamf4NqsNQXgK2pYk/nXbWSsLna0fTEnox2zqDOxUm7raLKh20SRM41vNWba0PCA9MDr2a6jQn3DukmFb8GX7eaueKY++AtHmpiFD7pLYjZFQ6SdzIWI1bU+JRoHo2KUFKCh8Cec/v80ZMPQzyjcQiJWpmDaIAFQM7tQrIVApEdD85XcnRe+DmV97t/N+D+Ff4A7oRfgbBL99kgVfaJ+QSvcC/puGr2e1a3b3Cj5pUp43MA6Ojs+FgAopuCfWtJuzyi287qH7Bk2E3/tHEGaFMvehr60SDxvXatbC4+UBtqb+/zH/wlm0XcvZPuwUxsJOYXZ59FfaNhHyuJXVpt6H45kUuCr28owYaIwRYPAE0LszqmyMJMBZBxqPLLOsTuy5dNPK0o6P6lUcAkQAKg576pkQqJQI7E2OfgOBgVyqds/zfrvKv+hdv7c7xdgMXIMB3QJJNs9qW6fVIv7557ecoBwcE3dS39U7G+TsTLtZ6Y11wQThe0i9+G8Qlae8gsj516auzX7e8t3JueUFMlwMkxF9b65TSIIw5dUW1erVS0vLLq8+fW13a3JsG56v3sck/ChCT3Lkdv6ia/oNIYO9xwfIwqEGojyKaCcbMJoJukiAvekvWaNar/adusgnLw1f50HlyhcBIgDliy+1TghUOQS0JEGSouiGXkbBzYU0GYZgdfBtPN75epS5Ak2AfZqewr8owe9ZUdcMcJYjuFhsUuVZvGa1+bbr11dA99zDCaB2rh4Z2bSayL0YfsuWPxO+iHbB5OzX3ki+zMSLLWeu1F0Iy/P6cUzcHIxvlFOOwi1yece5qwrZIJTnGIxt74Z6X5hvPayq4gHYQnR33tMFvUPAF97Ru9GCfBwNZGAd5llkNv+6XPuCJefCTpCwlq62ClQEhaIL4ijkJJdMz5K3wO1a8bL3QwSg7BhSC4TAHYfAnhEDs6Cr72icmInxn3WYv/prPVVtztVoLtuGwuJ+GGRClwLhb6AAHm8Xu+bATWQbPQ6NJwW6IMdRgQ3CK9wg4pks5EeFpPwefbbwBJ1L7IpqsoxtO23xqvJekKxHohuZbphOYBy61bwmYbkqPd8urfyJh3FuWwYNqmEKyR/HFfURZCAa6AxGVKCuNyQI8iQB2u+cX8A/i4TE5ym1I5cad/BbBvf7FEL9OfvsdIK2Gv/cq6oMa2LQBXi0C4vLyfnVQl+Om7PKp0RK5b1W1H7RCBABoKeDECAECiGwb1T0HxSF/8YoriUT/03HOas/8Cx8avzwpjeu5wyFABqGF8ogyAP3xEJuMt/+ynF78RSyGfAgCYbCmhZAs1PwsmSHkb54RKvU9B9vx3IeHhX7msL5h07hiBFZq4VGNm78/byL5d3/lp49zaGNIocJoTyCjIbJuiGfJqSNUl//vWAkLnW/XRmwB26a82WbMm9fjaYbvQX52TxkwGA0sAT17JEeGP/xZtN23cyXf6ptuXnrPRx9PAmXQd3VsjDZ0Ps9DSvP56JXbphX3nhQ+6VHgAhA6bGjmoTAHYvA3sSoPkKSNriENbZ/XMj/7DR/5UvFTTr93XdNzfZm9rXmq8NQYZjE1O7YG0v2Oh5hhIoR/N6ODtxpgWEUnK0Ns0SMvh3C1yFopUPjBu0XQm3rOkYXbEG7uekjy/OB0I5moG54ShG2x2H7UL+QWt/zXN/BTrTETXDiX4XQyvOkEPP87nNWHStunBvGD69uOn99N4R/M33nrwVVsJhjeyzMyHDW2xE3oHOeLP4EDEY4bQEc3dmLgBXo30t8Sgi3/qLX8q3XyhMbart0CBABKB1uVIsQuKMR0AR5/a3pV/Aij3QaAnAmTe80L/1BfyZ+aMyY+jZxHal3xXCZi8GQC/A117mAl228FvPfe+veNAaOkjYhid9IStiM8rL29xzRkVHxSYok0owCD3YHj7SeHbjogs4+taQ+1azn70M8hae5whDhUIPNYL5XcLzvELyOu5zdwtZ9EWfyrPx8y4Jey5f7LIC3DOn3JWwIdONKOwFgn9+7fN0EbyuzYeiAOGFVP0bJu533CwiBY5ycHeHM8lD/lWs2+fPsUNnyR4AIQPljTD0QAlUSgayR0ctgFObKoCcxsbrjvIzY0k4GG0npyIODeiqKOkwSfBikSx97xD7vgt/TwLCgX8+AxC7Zt80kixmyOWRq06mLTpV2nCXVOzgmfhXKDHRZ1kn8Zg2pTsP6qak3Sqrr6/19o2K6AJ8JiuAIMSz0IxXjTttFAtzO3/k1IbH5TCizbE1yFyPokcujwtd+twyNHoH680DUHCYb/LQcUa9z9zlzijzP144krDVCfsW5+g7qhRfYCRYQFTRmhSLoN/1Wrv+rzmDoqhQIEAGoFMtAgyAEKh8C+0bFvQMf+/e0kWkvCsiE/Z3nrXIzDCzLqI+PiKqVH2oezFR5KHar92GrqWfs8y74vQt9vX+Pt5gESQTXwnQcWfy3hVRzJoIOQQUemOvwAwn3CqvQd7L2s2/8R2L/bTsz/emy9qBrXbalj4HK/QVgDYJh78QoLT3P9TF15DaQ5mDC07tUa7C8LHPdhmiK6rVru9FrA2c/0ASM6718rVtOhqLmuTOpd8ucm9K/4A2R6By7AyF7FV2dwBaoVvOjFEWwrE9LYOoTAQgMjtQKIXDHIbA/KT4e58YrnC8JBJK5BDe3uoGe6KGx8U+gzS/Qj92i3s3oz8srqkjbgcIjw5HCWUlIX6ih0qctpiw5U9axHxoXNw12cQ8429EEpWThvVtPX7G5tG0fTUxsmGO5+QxX+QRoRJq4CU1vJICxWxjDfNkkTwur1WxRy8mBiXWwbdiAuSASyc7+JSbN7rk0c6y/81oX3y8F4YUnAZsG3ggM7h1WQvjYmMUbS50rwt8xUXnvCBABoCeDECAEvCKgxde/knvrvEsow9K909zVhSLulQU+hPx9nSmqFnTII/Cgx6vJD6HvwSGcLmy5KudfMZvlz6W1FTg4Lq6zzCT4xQu5YFfOt7WZtUIPtOPvdXhswr1Wq+0lqO3vwyB1XIsyqAM6+dAKLJElMa2OpUFaII8btH6RJvhZ9P6ZQd9wLTI0olOHtGWlSpecMXx4PZP12hdMUUZ51WBwdhM5J57pv3rT9/7iRuUDhwARgMBhSS0RAnccAvuTByLTHSzOHUZ7obVbhgVix6nZAxwel/APNDvRRTAcH6DCV7ATTcXu/UHvxoIFMCPHgH+Yg8RAyn4ZViP8vQZfpp3zpzLGixC/YrRex2F8J3Hp2VYzl3/hazuaEd+R5EGJVqb8Gkceupq/UIhdFxPQu9ksyfI3NcIippWXl0PWyJi2uVZ1O4R/hPNYQ+Ly8z2WrClzMKWN8X2fVgT7O9qONOJmxwvJiGXxQfSKzW+SXYCvT1Bgy/n51xPYzqk1QoAQqNwI7EuKTUd0vljni8Is127QZvZsu1aglJeYODHk6Jm93yIufYpR+OsqAF1A80ewx35IUpld2Dovu/A2+y30vY8zmwnpz+Luxh/5Ei745LghfWxMWY/zbZeswngvR0q1m/uyG9fmfOj0nvFCUV/BuXonTys4lz2BJhY5OykUaYpqVr7tMjtjXylh9qmaZndQff1ypF0WfVxkRGKZPRetHQhuhemW/Vo3NLaNyM/5Fi31dfWhN2vXN0ATMDPkpvpYr63+Gy2WfXTB3QIRgOBef5o9IVAsAvuTBn6icvZz+4uCswgprE2zOYsOlxY2LcufsClzIMRjjdZ+jvbzTCb5AdXMNvFc2wlIH0eUPc3OjttCZXMHoVrD85gcL7g6BNIjAcaDhmRBbmTBfYhe7M61r6BWP8iZ6bkWqYuKTWZzLCVhBSLgIQSy/bKLLvG71jPTf1scFpfGj69+8ebpFyBMJ6JKI/sw7OoDtyEJlgsfyJlM5V+1T1u5KlDCt6R12jk05n3YebzpHIuWz0AVSrdeS9froaADdWlEw7xq0QcSZ69Ao+SSO84wxZjvFmauMSpqWemOHAI1zmBrhwhAsK04zZcQ8AOBrKSY1yCs9Yh3GgEIDTF3b5m6bIcfTbiKnkhObmw131wEnXdXT+EPAZALF76xd01fuejofQlvoJIhGZH+mvquRery8cZ+NeF6U1xIxDnzw9g2D4cQcxEGn8bnkHrall6V+ORqpvov1Zk6tVAymyMpcUidK9mT/rjq8FshlrDmRanlT6ak1M61XXwRbf8SRKZmoaA9DgaAfAZZXJa/iJDrfHNXaupln8YdoELbhkYNgkHeEi18sJMAyLL8dreFGe8HqItCzayL752iqtJXAFI/EjDmKQABOm6z2IbFLd0aUPJRXnO5E9olAnAnrCLNgRAoJwT2JcFCnytfO03zQ5hlYKu0pa6IcL52e/ShIR3UfNtivPGbFxb+/KZkMo1qPm3xCu2M/Pi4hINQg7d2qvo1AS2ppm53zVxcpNX40ZTEhhZufQzCFi50rFnx43J3rdPL2iXgES2gT9PUFeud9cWzz4Yfu3w4C783dxXTLP9lManFjJW/9OxHM5y8Ycv7FcaMcYhqrnYM5AHzz4GnYioyIH7ROlVTv9/+60hynwZXrZYdoD4NXfYMTNp0tV/CgLh337WV54gyhkd3knPzZ4F4tC8Uz4CzS2aLZUS/pZkby3MM1LYdASIA9CQQAoRAkQgcGh0/3KoqC53BemRuHtp2zrKl/kB2MCWhH6LYzYO6HpkEnW8dl9E/zuLlka1m2UnFqQeHJVht1uXGc368pBY0T13uU5hdAVXzyQMb7oMZIdTaBdHpDELeY+juZEBLQIQI92+0mLb8I63gyZRBH9iEeN1YCRrsPKZa2hu9CY4hOZB60/Qqk6QJqrBnSnQ719enzQ8jmNInUo0aX7ecXHRgHX+wLU1Zbce/MzFmEcL4DnHtwBE5ULZYetyTdntyKWjhhpVTV77FUQ5yGWhg2Wei/wMPAbOkpvRbuWVRaeZHdXxHgAiA71hRSUIg6BDYmxzTHf7g2/T3suaoz6XENnNW+vxiPnJ/fJKw8WlaVj/9ZeNy59MJwFU0OLzl9OV6zgHtOnZ/wvdQ57uFG0a5aBAAv3bKyFgon5SvPQ5DwvdgxNjUXYA7fvM4hHf9qp3PC/49SMhfMe51+M3ilmhHsH+2nLlCz4lw6rGEOrab/DWo8l9AGT1zoWezCOyzggv+ccs5KxagzYAY1pXlQdw2LOZ12PfpSZ2cBEAS4pfdlq6bVJZ2/a2rEZH1Cff+TVH5i55HJCBiVoWz8bGrN6X62y6V9x0BIgC+Y0UlCYGgQ2B/0pCWgucfcRIAySwntfthxXxfgDg8Lu5nEKSfoaypsPDnlxRJGdomNX2rsy1dmOZIP0EsuQz7kEUos1nq8mhf+vNWRlPhn7l64kWFK6/hfg3PMsbdp0sd7ZDiGLPNaIiokwDOr4eyWm1MeXm5t0JyXlaE+BXYQg2PbHvIgcNvYoc9BQaUkxAlcG9pxx/oertHxfe35VlXY666vYQ2bgR4WtZtYSaiMbpzl0D3XVR7GQN7v4x1/kg7WXEjYZzZ4Cr5xMBVm6ferrEEWz9EAIJtxWm+hIAfCPyYEt9EzVNPOd3tZcFHtU1L1xPhFHcdGj3oLS6pv9NEpk4eDP/B3v+8mZkGe57pHx035GXU+ZuzXa0O6o+E8d+Ckvor6X52Skq9a/zav6ENuK94EmCgAUa1tKMS1Pt/BJu5hFtvwL+9rvvOFcJU8HPwbv+nKc/6n+YLMq+UNK7beX8XQi9jvDsw7mYuUS/4VSlC7nLPrFXlljvBlzmuGdg7BeTqG5AsPbWx3S5BJ1wKPECeiV69EXYodAUaASIAgUaU2iME7iAEtGx+VuXKOScB4LI0tv2slQiI4/3SVO+H1EuToMJ93ijInap/HCecCTGxhMbTlxfybz+eMmgvXvmdnFwBn3dB9d8tkDvT0+MTH1YVG8LUitqFiIBBd++5oy+YC7+CPAO1nL87NQhQ7R/FMcBHrXjtrxGPP6eyPQKaKN2ZGD0L2orRbloPk/RI9/kZlWKHvWFQn6h8m5gHua97TTjXAOuvKkKeELdmw5eVDdeqPh4iAFV9BWn8hEA5IqDtGs2y6bKTAAiT6b6OM5fP9NalFuzm8Km93+Ddfb8xQF/B7l+ctIREJNz13fyDnvV/un/wAKsQ+jm/86XETaaHm32/OOChYm88ndzg2s38z4Wq2A3QHFdxxwFu5QwZeZCKeA9TzX85fne/78rber4sy7xjxMCJEKNI22u/7KcZbHa3Rf7H+i/LOEqquy6mV3ebJC2D9K9jzCOgkwBJejxu1cYpJbVB931HgAiA71hRSUIg6BC4kJxc7SK7ft0l0IW4v0Pa6kKGWVpmP5vFNFdlHOf17ul9tZcMl8RRiUcmtEidd9QbiCdSEr5G3SdcBEBmR5optdphN60EGnTx6qMRZ05e+IfK1acLJavRpaNDSBr0++6GfY4IdkJ82Gzmyt8EUkMR6Llq7e3QDDmtDFEMVZdtBWwzzuRbLV36rFhxqTz6LEubmwbf2y3XypcxVdR1J2jcBu3Lg/FrtngloGXpM1jrEgEI1pWneRMCPiCQBfc2ni2fdr0oVNPoDvOWzzVWPTV+eNOcnDz4+IvO9u89CADnB0NtckKTuUtPeutSiw5oYvy05ingJAAISPN802lLyhyL3rO/M4+N7K1a86dgB9zWda/IlLsOJbQXWwDNIBBqf0Xi6gfna177Xa/Pt1p9gPO2F9EI3GnblS3gMu0MKnWYQkgjuy7OgHtn5bzWxcR0UVjuchyr1HeOUNdaMJavMD42fs2mMtuFVM6Z395REQG4vXhTb4RAlULg8AMJ7ay5yo+uQUvy8A6zVyx2/n4wKa4z4u9pboF3Ob9zj9XP95nC8xNaTFlTZCreoymDnseL6N9O4Y9/z6qdm7b0JUa/r2Bqtgln5Ow3YGT4DkL6mrV6BbtLiEa38/+Cm0XZAhjdAhG0aJPZHPaIt6MNX8dXXuV2jIyZwlUx3nimjrjKn3VbkPlcefUZqHY3Dbi3c67MV2INdBLgXCPQyxybWR6UsHI9XDTpKgsCRADKgh7VJQTucAT2jY7rCT/2La5dmNkU1/GH5au037Fzj1KtShoEYC3ji8QVwY/zXUKtPrik5EHH7x+0FS/3Hi4CIMuvN5+25E+Bgvbq00ktb92wfYuIhgPc3MxcHTgIAGdHIChbGW0BfCIA9nZuSDJ/vMX05bMCNe6ytrMrMXaCYIpdi+IwqsPaHGgU0bCnLwmMytp/IOqvj+7Zw8rldKxDdSNJw/N22cLlqH4ZG8o1WVIg5lCZ2yACUJlXh8ZGCFQwAvvuGxTLnxcktwAAIABJREFUrbZ05zBki9y/LULlHhqXMFqo6nd4KYd5puzVCYDEtoaG86FNvyn+jPl4SlxPwWQXwUDNa5GWBs28xeQvDRTnHhn+GFz3JglVVPf083eSAcTDP44xv4mANO8hNG7rUhEAu3paU62/33zm0ncrOuDP/uTYXlabmgkVuv3c3z7ZXJUr/bovXFeqXA6lwT8QdVYhOjG35S9C9sgCGwZMCEEDTpgt1fv3X7kSsSPoKg0CRABKgxrVIQSCBIEDSQMfQqKc75zTDRVqj3yzqQ8Sxf4LOllZ/x5vEXcNgLxBrh453Jdwt8fvG/wpdnfPudwEZemDZtOW/qas8B5/eEQtk1D+g/DD99vbsktAd0t/ZuOS9HEja7Xf/sSvfe2MEVBaAmBvH/+TWFotS6NHA0Vi/MXiZMrQ2ldu5iDAkmhh1HhgvV64Z3GmftRS1a610b3GWbk03fnMuSIYcrZLrtU4KiotLbuqzakyjJcIQGVYBRoDIVBJEfhxTPzrqqp+4HxRSEL6Hpl5HnKKfNcLxEkCOM+oaYscWc+HF7JmjX/s+JnTeKlX17QGaCIntEZ4ywZfpp0rCxxnHh4RJ4TtfxCALrsEdyt+XVBvtjDThPrTFm3/6aEhE1VVuLnIOUkDCMRsVfA4/F6zSFfAAn7h8l1H8Jrt4ZaI4Q2+L9tc/MVBC6+7Z2RMGmwURhiGBYNFKbXrgtUOMuRvq5Wj/JqoPs8qXNUiS7pCGOsj42zBhYYtR91fDh4jlWPm5TcKIgDlhy21TAhUeQSyRsV+iqA+zxX267e/OjwIwOoaprojfT1fPjFuyM8Qove/ejvoAPHoP2n2w4pflBa0Lc/2NDe6Ve9NGL29DQGI6LIel933/abC5d83tUZ+pLkYnn4wsZcibIg/YFeVu+3+JfZt82nLHtMs6W+F5/2cqepraBfR9NwTCLkbEBa4DOBo4ahZsgy5K3XJodLOyd96u5Oi3hQqf98YoRBzPpKfF9Kj1/Ll1/xtr7KVT4/t/SFXxGvGNMIa4jhG+mtC5sZXK9t4K/t4iABU9hWi8RECFYjAj0kDF6icJ3oP7OPK6IfY92KRfE+Lsf5Y7h+7L2EtXt79tekhdr4N5gTtiooTUBIEl1JGdcqVcqaCkXQrqqwW+MZis02sm2o/Mz76xOiappxbSHQkWnoKf8xsk61T44HG+WjuipLgbyDe78sgAZZChEHvWLe2M3gYcGg45KFtZi/dU9Icynp///D4eKtsWwqSgqzGztZ4nsUkRXVIW+WysyhrPxVZH9OSVkf3notwyyONJEcbkyykpweu3aQTSrp8Q4AIgG84USlCICgR2D8qbj8ESvviCADC+85pba79AHbU+b6CdHBcXGeZS3tcRwuMTWn+w4pHfa3vLKdt6k8/MOgFwaU/47swb/XRxwmZSRMbTlvsymGg1Tv1wCBY7PPRrrZcQlM6Gy6svZxEwbPNkw+PbGu15v4d3hEjfLMXYBeh3ogtz6RAWs6G/FzbNhg72v3mHSSEM/m5rgtX6WrzO+VaOHx49Ygb59fjaKaT+7EMy4fWJSY+c+vGO2Wu5T0PIgDljTC1TwhUUQTOPvpoxNXrJ69BxS0XRQCgU5+RXe/aI/4Gwjl8/5C/c1V5SXsBadbzNiW0a5vZC/zaJR9NSWxolm1fgaAM1yDWX2aGMwns4hWE6v24ibXGOyAnN4zLcPqhQS/B6v/vDllp2LLzfNXC4lpMWVqij/mRlLhkrsr/gTq6kcvEsOAEwNWdPeyuOMvN0sDW01ccCPTjsKVnT3Nowwi4yjG4ORYMAJkMv+62cM3PAt1fZWhvRf+erSWTtBGEp46R8GD9j+RVq9c9cdGi65VhnJV9DEQAKvsK0fgIgQpC4ODIhH42yQZB6DjvN7wt7MJW+raduc6T/obrPfruE6Fs96lTEFZ1dA8Cic1rOWNFsj/T/CllWLIqqUgOI+p5rcfZllCTNKHelCVQ8btfJx9M7APKkYG6FnevACiWZfmZFt8v8TnpjJbCOO8GPCK4eNBNEDm6tNsHOIQyZ6cUqzmmw7ylR/2Za0ll9yZG/xXHNL9yuTlq3XG2tVq91lEtJ0/OLal+VbmfCVsM9eaVu6ziVlPJKjXGsVOKorJEd9xhBcnY1Li1Wx+pKvOqyHESAahI9KlvQqASI7B/9MDn4XsNtzEvBEBiX7ablT6hNP7uR8cNfgii1u5aiKYlkzygxbSSd9y6KIXnwE+nzvxNVfmzLugMboiw2s+GwuLtpmr1f3kjJtdSUmpny1e3qYI1NxzU60Ja5ezfCOTzQmmW5Mh98SmIr/8FbANqeKilXQRAl8uCHYoIi+zX+Pt5F0vTj2edfaOjxylWnqopGZwEgKv8UgQ39Wy1cOXxQPRxu9pYO2RIfVm92SrPlt9aVlgrmyy14kJtghTLTUCk7gJhrGanUwVGFkY3R5cWBmUkJvrFrd224XaNvar2QwSgqq4cjZsQKGcE9o2K+xyBcZ6xd1MQ3x9R8D/pMDd9oi5xSnEdHpewEtXiHOr/jJYzVwz0pZkT4xPuVW18CoRoO8eI3KpBzT4n3FR9Yp2ps7zmtteE5MkHhsyFkE4qqGhXmmNOqy/WvDzY36MM4wDgf98mV7H+gHndowsqw+7fTdPAWWbbpncP4pMm5fky76LKHB4T1S7HKm1GPwhy5BCMyE9gkszDO6WtWFaWtsurbnpSz7qWPKmTapU6YB3bInRSK9hHtEZcCURgFNXcBXrB41XI08LzqMXFCew30PYr8eu2/q285nGntEsE4E5ZSZoHIRBgBLKSBmZB7nd0c/iTxd86zF79ammFvyYkrar1gH3HypnFJBLvmr5SyyVQ5KXF8T8pX39NVZV38WLX4/gbIw/Bg+AkDBEnNpm+xC1JkWeDJx4c9Cq2+X9xiwioFZLY8dpKrXurpaZeKCuEGGvYIeXSJxjnk0ZnQXdjQXQp2NQ2c9MfLS2OcHkMDz0TsR4amq72Mdt7k1X+audFGX8t6zzKWn/9sNgWwmrrwJnaCbv4Doiz0AEhozui3bruXhJFJFwqydWyEAHglxGf4hxcSX/iwrQJ+Sv+PHjr1irv9ljWdSipPhGAkhCi+4RAECJwNDGxYa588zRe2i77P3yEllusMUmmFUgtO7f97PSd/kJzcEz8BxJnr+vin0s7Wv6wvEdxQvDoE8NaSDdt3+J9H2Xsy6494Ao3qf8KvRnxdkmBh04/MjTalq8gsQxSFzkvnYXwW7Jqimoyc9F2f+dSXPnDY+JeFpx/pMUj8BT+ToEtc/ZWm9mr/lCafrOSYyYjqdHjBTtjbTLSV13mr36qNO2Vts46EB755oXOLDe3G0hYV4QavgcCvitSOxcETvJbmBcQGn1cnJ+DOuUwHr9DksKO2DiEvGQ+pyrW83J4xOmb7U+fT5x0qEzalNLOv6rXIwJQ1VeQxk8IlAMCexACGMZUrnN6oxbAyQiwd8syS6bPqptqf+VL8B8tUE+tSzVOQB401NoTkumhNj8snVbU8I+PG/yIKgkt5HANPeKA0QiRs21o4NnmqUsR8rb469zTyQ3yrudsgzBu7FES/EY81Cx1xfSS2ijN/aPIl2BlYgry2ke4+6w79NVQ18uqNLhN2op0f9rfkzzwGbT5uVEtDoxW3x3RcIg/rpj+9KmV3TB+eHV29VZPs9XWS2VKD7jh4aiDt4Mlvj0ktDMOYqHdeQmBk+xGi2fBLrNgiXGIS/ywbFMPqybpkK1u+OG41FVuHhz+jpvKF40AEQB6OggBQqAQAtr5P5L92M//3WRvYYNAvP2vKLL8YUjXuz4uLhDQoZT4MUxh9mx5nB1qLdXp4M1QTwvQo97K/lRSmd2y3nBBe3ADguftFrzWJF+8D7Tjg+P8yjLIprhCbcns/WbTlr9dnst/eNzgXji6WADyUd9lpFZgw6Z1fTbEGt695cKFZ30ZR9bY6B4iX0IAJRFakB5XHK5Zx9KnpMRLvrTvLKMdMSCOYXch8V5IcNQLZ/T34tyiLYS9HmGxKOM7r9oOgwYARqOXhSL2IGrPXuzs9yiStDdEDd/TZ0XxSaP8GTuV9R0BIgC+Y0UlCYGgQSArOfYohFYL1wvCgwQY4wI4OAI00Ni5meQnWqcuR2jdwtehMQkLocbVffaZJD/X5odlhQLUHHxwWKxstX3jiuNv7JdLaZZI/osmXy896etCnEwZ9IHCcORQ6BKzm89Yfl9pvBh87dtZ7khyXHubxJZBOCI3gV36u1lPCrGy/dxVg0say64RUbVMkrQVHgwtC3b//BqziH5dZmeUKS3uDhgU2nJEP0nl/aAW6QeC0dkYUbAI8uIwdLRTAqPwx7JZcQSyG0cB23BwtNcsiT08z7q315qtZ/zFj8qXHwJEAMoPW2qZEKiSCOi7TKukq9aNBKDg98JagAISAL0Bl95tPyv9fePZPsLoNhOKekQTKhKXz7Rq0rGl0QoeO3XLEX7x91yVXtXOzQuCDEO0cPaThYuJd6WunO0PoMfvj0+C0d9cBMTxfM/tiuC1B/hybOFPf8WV3ffgsBZybu4yCO42RuHvFORIHvRK+7T0Iq3WtRP+vUkDdQ8Gg6C1yrJ5hL8W/9ru3nIqopfNhjDMktIPTfcD5vXsxKQoy3u7kPckL9r4YYSZh392M6FshVGiFndha5+6zXaX53FEoNYl2NshAhDsTwDNnxDwQCBrROz7gqtvOs3/fCUBbuW4POX0PdFPxr37rk1r/sf7Br0rKcpvdaIgsf9rMzMd1vj269gDgzrabGIqdord9S8cDWFHrCBF0CeR+WFvlWTk57mISAfcSljztwih1nK7x8UFFmHp3XLy4mO3e+GzHoluJGfLmiFiB4c4dagC4ITIWY7ZJO5pPTPjoLdx7RsV+7qiqB/o9XTjRfAiWXqsc9qqKSXNY8ugQTVkOS+KyywGGMcoQvSEINe9KQqTEdde33WzQN2vH9bnwi5jl6TKEPa2bVII38rP5+/ptXWrtaRx0P3KhwARgMq3JjQiQqBCEdgzEu5/THTU1PwQwjl47WfDrc0eY74EewAjCUBMtu/am+s8plU7ZL10BB4EzXCAfLWGUq2ZJtA1OXbkvoTnIdFgLV8Qx19rA7vK7aqJTUDo3M3+gqFFGuRZJ9diN9rDWVcXYpznm2R5ULNpS9b422agyp9ITm6cy6+vhlaiTeE4ATyzY9qqgcAdtwuu/ckJcaqwLVOhPXFqDGRZfq1TWrqW/6DQteWhpLry1ewomakDBVMGQiPTFUaDuqGeUZXvRgCK2P1jLIcUwdaDbGywcGX9lT5DdztJXaAwoXYqDgEiABWHPfVMCFQ6BA6mJHTKy7Hudch6jQAs7Ji2OunHUYN7qFLeKKjon9dC+Ba8OIo+DtB38oJ9iKQ/GSoTC+0EQv5Du9nL3zr3UHKDazk3vkLwHoRydfM1vIEDgN+e6hz9cWkFzbH74j+HoaAjgFEBxJKQn24xa2mFZ4vTjkOs+bbVmo2FSwg7t9mS9EKnuemIvmi/TiQPbnxd5MPjQTRwqf4l/nGXeatfdJa5BOv8U1dvxmKxEqCGjwd96GxXEtivEoPoOMqAd9zESiBroFjHJPMGVi1ifY/URWWOjVDpHnIakAsBIgD0MBAChIALgb1JMR9AYBQYzeHz3Qsy/uQscAHx2M+L7IkSV1/Dd3oEOqes8WoYCD876Py1s//WOOe+xXmNlpJ6rY8isy8hmexaBeclSfMkif8CRoQnSrskR8fGPwHjs68960Mg/rP1zBUvlbbdQNc7PiKqVY5s0ohRE7uUdghrxi7XqGVqp1n0p7/7rqn+lnQcGYhopyAHhqnXwus/Xjvvcl9FURKgzk/A/V5owB7fwJ9zfM4Ow9NiPdIVb+Am6zra3Qd6lSt/e0QAKv8a0QgJgduCgCZw6m1eeQJ7x0bODlVm7t91/or1ngPQwtDmq/IPEDhdSiIBzr0ojP++QgbAfAjoCfoOteCs/yek832x3czlM8sy0ZPjhnW1Mut6CMRwYzsgJkuP3x0zorQahbKMqbi6+0bFdMExSQbU8zUNHADHH+KTjmkZv9idHPsRV9VXnMIfO3wFpGktjlLuBe5h7rEFvAh/Q6PasQJc+Hbh/H61pFhWVYuwrGsze+n58pobtVs1ECACUDXWiUZJCJQ7AvtGxifZhC1N68i+m+c3c8/cqFWUgZdmTR55NnIyhHlKiSRAb1Nch8DTtQZa85rbG/7/71phTd6sM3VqmdK3Qq1eAyJuMwRkWzfhz/gBOS+vb/MFmVfKHcBSdLB3REK0JNuWwLUvTK+u+8xzeA3y9xAU53caUSqkwjcIdncjPsNvugGl2IGUx6stJmmVKpTMrpUUg1LARlUChAARgAABSc0QAlUdgV0jYubghTDKOQ9ZZgs6pWWMLG5eWnS/yLPV0qDKHuawBnAV93Yk4Nr1M74Dgm5C+zkrN5UVN7sxYfwPMPob6y782VUui76tUtN/LGsf5Vl/b/LAFEj9GXbh7365RfsrKtKenRDYEKJnm8zV1TartDqvbuSavlMXlYlUleecqe3KgQARgMqxDjQKQqBCEdgPY7N8Je+4dpbs1M3DY/+RrmmrppY0sLOPPhpx+eqJlRDuvUsyDtS0CibG3z3ZPeYfgVLJHxk7+BXscD9yDxXMFVXmI9rOWL6kpPFXxH0tadAB6+WhcO0bC5U+4hWoBbHzHQMqQfhbkSZ3iySrq7nKVtc31V7rr6tkRcyb+qxcCBABqFzrQaMhBCoEgV3DYz9Ebp3XCnbo0s0G4fUb+hIsJyt50AjOrFps+sbe3AS1CRVoA8TpGw1utChL2l0jQPBa6McUdbXTr915T5L5y61/WPmPCgGziE61I5OI0zUSIPBTGFdHAy89v73PO3/GjjBVWo7gPcvz80KX9lq+nLLdVaYFroJjIQJQBReNhkwIBBIBbQd//tIxzfK+tt6u3f9/apf5GY8U1892xOy3XL7yJwjfZx3V7MWdxn2uygVf6J+EuL9D2urUss5BdyXMu7EVh+R2S3rHBTX6/9rNTn+irO0Hor4evtciJUkKHwnXRLg8igg3NX8xan+swUXEX0hXmLI8UliWtFq4EhoaugiBwCFABCBwWFJLhECVRGDnyJgXYUCn75adLwRZqImdF61dVNSEspKjR+AM/wv4nDcybO/dYu4iN4CCHevTXFJ+BTkHbwF765LE1rSfsyqmLGBpHguNd61aCjPCOLd2OMtsa6qbUJFhaLVUylZT7mgbV8eBHMWC8Oguep6C3/M7HL3kotRaBN5ZJkLEsq4z1+zwDApUFsyoLiHgiQARAHomCIEgRkATpLU3rzgA6dTSCQNeCge6LFijRQJ0i0in3dfCyoaE5f0d589PGso7ZHvB6wQR/4TKxdOd0zK+0oIL2fJsWkQ/h3seAvzKvFv72ek7Swv9j6NiPwDxeN34AoN74XGZ1ejdZvbs2+7ediQxsXmunDsGqv1x8HboD8IjGSV+Ubt+xD3YDWv/ZbLNsuxG06sZOBq5VVpMqB4h4C8CRAD8RYzKEwJ3EAK7h8U+onDbt/ru33FQL3Hp510WrP7Uc5q7R8cP4fm2L5Gc5y5PC3+9vr0RezVJerHz3PSPnW3sTY77I/jEG85ykI+fIpTtz0sD5cHkuGQhiTnGaHfoV8sZH1UWUuHvWA4/kNDOli/GIv0RdvqipyvpkEHae9n1X8Hcl8B4bxHLFcs6LVlD2fH8BZ7KBwwBIgABg5IaIgSqFgIzUlLk9jfO7IWQau8cOWLwX65fp0Wzht9+e9P5nWa8Zj4T+YGkqhON5nxGee8saz/jl9/svCD9j0Y0Tj2WUCf7qg0phmH4ptsYsDMd5q5ugo+enm/FgnhkbGLzfDVnKwRuHSeZ0NpAQIEHO8xJn1HeK7A3Ka4z/OtHIhIisvLxAfp0nZ0WJfiZOAK//vmyap7XNrxWRkUeT5Q3PtR+1UKACEDVWi8aLSEQMAS2DRvwFHb9X7q9BGT2frf5mW87O9mjJaKxWb+CmGvhbtxnqKUJdEcFweQPusxP/423QWaNivkU6Xmfc5EFWerVcU66nnbYl+voE0+E5l45tg592bMGOi5JSG+3S1v5vi9t+FtG0zIcGB1/LwjLWLjsjQMObYoS+q7vOcuHbUKGJKnzrVLE/C5zFh32t18qTwjcDgSIANwOlKkPQqCSIQA/dMuOG2e0s//m2tDsmf9YtrVGrVa9vp93UfMMOHvl+IeSKl7QhKDbi8Jl1O/x+jCJSV3mrvllUVPdPXpQrKRY0/X+8IPUdu+2n5/xnq/Q/JgU+4XK2dN6eQfpAIGZ3m5O+kP+ahKK6xPYyAfzrg1QRd44pC4egyh9d7kJ/UK/aLl52XkmpAWSLC+oq4YvJZ98X1eVylUkAkQAKhJ96psQqCAEtg+NeQEGa/8yds9N9t3/jmGxUYLbJuPl0NppF+As53phuEiAQxoL8fXdC9c8VZwg1gzjskYNPAPSoScBgpfA1k5zVyGRTcnXvqT4JxCnwJDkB4aEnO3IbtBuQK/PPy+z4ZwW0bDG+RpxNlXBLp8jGqIj+55zaN4OKjjbjtj6C7gcOr/TD0s3k8V+yetIJSoXAkQAKtd60GgIgXJHYMugnjVkOfQAdq0QxPa4f7DqvxoaEtr5Vn7uK7IkXtKt2B2XXsJd418wRv2WmLEvvNHD96emKiUNfu/IWPj/q/fpBADm8rVCwxs0KiHl7P5xCV2FzbYBY7LHy8eFwV0Q4WG9O05bfKykPou6rx0p2C4fGWLjfBzaTkK5Wq6yXgS+ZDYrcv2GP9rOnPo4Xw5bcM+sRadK2zfVIwQqAwJEACrDKtAYCIHbiMD2xAF/Ewp7We/SuZPn8kIu1NZOg0CvVv4eX2pVUX6+9dytsUUlDPKcVtaI6JdgsPd35/c4BhjWccGaIsP1aumHL7Lrm5FO2GWoiDFbuWQe0nHO8lX+wnY+JSXyQu65RJCPcWAgiYh/EFlcG1JYuIjs3Z9X6xfDInv0ZlJo6CXUretvv1SeEKiMCBABqIyrQmMiBMoJgS1D+nXgXNqF5s2F1fkerwP3jb+DLxR8ifPxFdXqth7ZcvJkBLDx7TqQGB+TL9lWuwiAJH7TMW3NB0XV3pcc9x3y2D5kvI/d/y87zls9ybceGdOj8Zn0aHzjECtgCFLuhHrWNW74TRGRIrJPFK/WH0K/+72Mm83G4lrRcJAAn+fs6zipHCFwuxEgAnC7Eaf+CIEKRGDz0KhFiFAzzDgEdyLgTAVUUMKbNkBi8oaGkfUH+5IrwNjXCSQduqbk/eQy4pN4aue01fd7g2TfqNgJqqL+x8487KNExrtv7p67+vGSINTcDq9fs47gQkpBpsIhUFVYiqsjV6vOInv1ZdUHxGKnD6FvchP6nlVbgAAcL2kMdJ8QqOwIEAGo7CtE4yMEAoTAtmExyapqm+s893eo/61o3i9tAM78t6sN6sV3nzznqr9D0zwK9owYmK3FxNflOhOH716wRnetM14HEgd3s0r56427dezeN9zdomssnzQpz1u/u0cNuUti1jE4ytAM+Qbg2EAuXM6x18c/ppq1mKbar95/IAvv0o1x5D/28eoHArDBx7JUjBCotAgQAai0S0MDIwQCh0AmztJD8y7tRQAd3aXNSQLgt/8G58p4fHG3/VvH5bLy9zwW4FkiMjK2RwmGe8WNfPfI6B3Ykd/jGINoVDOiZh1D7vpL44dXP3vt1hYI/7au4UjsTDUW0qtZ2rLTxrYPpQxtk3srB+F32Vh8f69bdEAvgzDVrmMX+gMGsojO98ATwWXr6A/Y6I/P8qcClSUEKiMCRAAq46rQmAiBACOwdXC/SSrjvzAa9EPZv+FwjcZR7a6ffgfm++94yH4nT3CRBdQ9HGYOi+ngIYT9HeqexJgfkCcAu3T7ZQm13NNh5grNLkG/do+MmQKCoJES52VVmTnhngUr1mhf7E0a0Fmo8kh8TMKY9Gh8xV2mOvVYtb5RrBrU++EdO0Poy66wx55ujiW15bj/C9T7xMeyVIwQqLQIEAGotEtDAyMEAoPApiH9+iMU7RqXa5/dji/HHBrS/Z609B+3D+7fDZb5291S+aFrD9uAkzw0Mqb7nNK73Tlnsysx+k/4/H/O342ZB3cmRf0cUfQ+sfftGIEkPW3m5p0KAvMgPdFYxNxvVxIypnr1dYFfrV80C2vbQbch0IS980dv3fF7CW3l476n/cAfUPetksZA9wmByo4AEYDKvkI0PkKgDAiIiRNDNu/fsg3irpPxj10S/OWey9fqKYC1C94BR+Bd31Iv4/FWgJL8nBRiGaiRhTIMxVV1d2LUL6GN+GcBAZCevXvR6i92jo3uIeXydVD9hxS4J7JsROK7jCE1dx9W4VeXpBnyQeBHRsU7dvqgPbrxoCb43QW+JxkwzEvLJLgJP5n4WY6fEPys9Zj3V6j/VCCwoDYIgYpEgAhARaJPfRMC5YzApkF9fw/R95YjVZ/eG4R/es9lawcZI9dtGRb1V6aqv7IPxy4w9bKMXVZ5aFzPxQUq+rIOeU9S9DhFYT8UEAD2u1xryN8slrytOMNvXexLydMkISSURfTuzyI19X7XHrr1vruw9xD+2q5fm2GBNuAn/LoKPxnaD77fb5wfDAm14EPX8WMyfL8Y5YaXFQeqTwhUNAJEACp6Bah/QqCcENBU/0LwDBj+yc4/dITfvVAtNKKb5zn+lkGxUUzK18/YDSQgWzVLg+6dv0bbEQfs2pk0oK+w8fVag5o4lpj01f+zdx0ATlRbe0qSbcCytO30KoLA0nsHqSKCoAJiARGUhyLw9H+WZ0GwPVBQVEQpolSlSVWQXqUJLCJ1K0iHbcnM/N+dySSTbLIpm2Szy533IpvMLed+s5vTz5F4sYwkMnKFQEeX9ouKMPmwB5ow4SSQD6l7HIQAWdO3Y+72781Mn7Tf3cHzPNHBiv4xAAAgAElEQVTud+KzP10dDELAMYyRgyTNF8r+ss1dzaP3KQLBjgAVAIL9CVH6KAJeIECi/g1Z/xyGOb26Oh3aPKr/6vo23bx9rf2SJD4AVoBUpNDFyPdYJkvk+F7Nf9m+zYvtC5xyrHv3RIHPuqgOghBwB3TKFfksVQgcfDMZatZhSrXrxEQgip+Y+8nYArV9sh7LnuU4jpjwdwiCsCksLOycp+eBAPAd5gzXzPsL67qMQ/B0HzqeIhBoBKgAEGjE6X4UgQAgsKdLGzTOEZ+Umar1r/yTFpt3m838tkSQ9DnEAayFiPAgKvzlsTzXP2ndjvX+IPV4zw7NjKywz50vH12FSkx4245MBPz6+tg4TeCeY+YPZo9yAewSMO2VYPbEpE80/kJdWIuUTf5Ys8gVrCs3NKIXRaA4I+DO32BxPh+lnSJwzyGwq3PbARxrMuepm+PpOe5g87JxrdmlS0lUu811rF+L6Jxs3ZcwEPQDhxU4kXkMAYJLfAncqb7dq+WJWYPRg+BJRPEjLN/uUjIT5IvVG5jQxk1h4u/IhDZqak7b0wbxFaz5o9SxAKFnJxj3ajDq5d5o/VrqsA5JOVyt+cyIdQusLOhL7OhaFAF/IUAFAH8hS9elCBQBAjt7da7C5WYj6l8qZ2GoDHdD0Bmatd6w9Yw9SQe7thwsMOxsfF4e8QEiXAEjmm/atdAXpBOmnyvcHSIK7KMSK6Hwj3rlLzcMLs+E1G/AhLXpxIQ1g1/fYNBE8GsZPtHwmfNYqZrDCH/7ID9YBBADsV2n082D338Z5tzx9GwQAOphzgm7eaWw1l1P16LjKQLBhAAVAILpaVBaKAKFQGAdUv6iThzYDobXzMprWZOOF3s127h3k3bp7WiQY8gTZ2Gs3GiHxAeIvPR8iw17lNr7Xl6nUOs/25g1WBTZIViyhZXl2y2oZhlElWfC2yFtr20nhq8UbePXV4L4rMyfvOdY7u+oqLI1b9y4kSTx/HBeYsg+ldwJAoR7ACWImXkQBj7E+EvuHhECAGkeRJi9tmxgAtYgGQT0oggUWwSoAFBsHx0lnCJgi8CuTm0+Y1hhLPlU/cPmWWls8y17iYZvufZ3b9FNFLhv8EGCpdYOK01utmnPdG8wJQGEf/Rs2VlkdaPQXvchrKH0FnDy7QJGzOjr1mfCOnRjQkiLXR1q8Dtg9vbMn7zneW5p2bJlLc2DwJz1WVlZD6KS4Sjo+kjNkzhrgR/H+f/YPw9jFuHfN9wVBLAPCVo0l1GWUbrfnQwCb/CkcygCgUKACgCBQpruQxHwIwK7O7UcDFv3j/IW5qg/mPQ/a7V59wvqtrsGDQrT37j0BgrrvKJUBVT+/HlJerPZr3ve8pQ8ou1n5WYPkxjxOaxXNf98c/yBWRjgo2OY0BZtmRBo+7pyFcwBfQq9CrM31x8oQBiAGX8KBABSSTDfBSZd5c6dO8+AsaNIDxvrKkMA47KxyCf4dxr2Jrn+Ti+sTdIWW2oGtMUc+wJBnkJIx1MEihQBKgAUKfx0c4pA4RHY26VtbUEy7gcTLmPmtbDss5vyOvbs1enNN03ks93d27ZgBdN8jKmt7QcAq/aMllt2/ctdKizavqgbBYFjADRua4Ec87eJTc6+Xs/oGyYxoe07MyH1kEoP7d8xs7cUH/oDQXyNVWHA6udX7kMA6A4BwMadYU87sQrcvXt3KEz9k/Bz/fyVAG0tA9gjBa9n8XKa9YB11mEfbfGfPhifL53SXRzpOIpAMCBABYBgeAqUBoqAlwgc6JoUmW3S7+ZYOVBNvsDeTuVGhrbq9NPWG9KgQYa9Ny6+KYrcJNauPS7mzIF7YAy+BMw9cp0TcaBr18oin/0MI4hPYYN4dSdV4LCfySdWY0LadWBCm7VhuIgIxShhp+lrmPs1mPYXmUymbxISEg5nZl5Gm2Ep0p75Q1MX8aoAAeC6O3CBabO5ubm98e8UrNWmoDgBkj6INb/Ga4Kj4D6ssQj3HtPsOwTjFIsLvSgCxRQBKgAU0wdHyaYILBk0iI+7cgnpaZKsmZr97uliuL5tu7U7zu5q374Bw+fOxy00u7f+qZt58cIWm/eM0JYDdoTovi4dmoms6WWWId37FG3f5ktD4+xnw8PRsLcVTPwdGb5yVcWk79C0j2A+ZBygAdFuHcvOj42NXYixWer+GRkZf+L9ffZxAWjde7x8uXINvHnyRqOxK5j4B3g1UmMEFAHDpiwweUu6EvbHvfPafTDvM7yX4yvM13CMWeANLXQORSBYEKACQLA8CUoHRcBDBLZ3aP4R+OtLqqedldhrrGTomBIdfSLx2oWX4ev/Lwr7kGY2Vqat1MBfmdOux2DVPWC/LTHz7+ncpg+U4pdh5m+vMEnHxJGP+cSqjKFTV8bQhJTlRR8fB9q+ysyh6V8URfFbvOZVq1bNhsmqO2RmZm6COt7VPgiQ57gvy5UrN9pDmCzDwcQ5VAMchr3fBgZyQJ8jYQAfZ+L1EO7tUSdj7jv4+TXN3sRlQCwG9KIIFFsEqABQbB8dJfxeRmB3x5YjTJL4rYwB/ophwM7i9WwPSReWIuVmfStKbAeHTBuxATcbNOvb69NPc+3xI2mEZY//8SjHm6bAKWBxKWh1fovCz+vg22/MGFCsR1evfsF+fZbNA/PeiP3mV65ceSUYpxyX4OyCALACQsgAB0GBIypUqEAsGoW6wMzD8/LyXkc8wUQsxNtbAsyLk7S/XrhHmgQhpiKfADAW92yyKwpFFJ1MESgCBKgAUASg0y0pAoVBYE/XFm2NRmkL1pCr0UFTzpb0bD9GkKqzEvMRPpLr6quXKgjg398NNU0PNv3yoMXcTsaQSoC3s3VjoR6PgeZdwTpR+Un7JcFFRjF6NOEhjJ+LLCvftJr55Tfa98eQ4jdXz/ML4du/6u6ZIQCshAAADVzR0JUgPpYxGPS1IiMj8xUzcndd+3EQAloiUPBrUZTq22YMWEaSzIDu2HsvBID38fNkzRokVsDSTtlbGug8ikBRIkAFgKJEn+5NEfAQgb1t29bO5fNI+pnMqAnz5xh+tMAIQ+Cn76Vya00CnrwD4uH2sZGVurZdtYoUw5EvFAOqzuXk/RtCwzDYEGRXgbJm/ouvUYvRI5KfRPSzOp25+15+5o8k/FsIqFtsMBi+SUxM9KqLYFpa5k9wPxA/vHJCUgCIY1Og/Wvz8D1EzvFwMPYQuAQII39OdQfYjbyM903xIpkS2j4KkzHeq7oJPiGcLkIR8AECVADwAYh0CYpAIBD4/cF2FaWs3J3g5rXkYrosk4sSuovR9KcPTPYV8gfnKcwc7POYjo/o1GLLFlkLR+ZAZaOgf1lkxdGOYgQsggAYPd+oGaPv2A1+/spK5z0zQ5a3Nwf5yRH0LLMDdH1du3ZtUm7XxsLgKTYIAlyFOX21QYDYYyEEAAgq/rmQgTACLoHPIRCEqS4BzU5EkDmM1yjNZ69j3Nv+oYauShEIDAJUAAgMznQXikChEPhtUMdS3OWs38BkiTYqX/jjvYL/VrRX2bV/1CixnxxZmu3QYNXeTNInQMzJeo0TpSdh6tc7ihGQBYbyFRgd8e23ICl88CaYC/RYmb+SRw9tPx1Mcz5e39SoUeN0oQ6omZyenr4dG7S1CQJkmGcqVao011d7OFqHZAjg81/wUloi214kZsJiJcHP70AA+I8/6aFrUwT8jQAVAPyNMF2fIlBIBEi6X3TmeRIY109m/A7+as0WActO5iGXwMDbQbsVudy8iQwrjYKbAHXtbRewxAhUrSGb+XkE97Ecbzbzm4vmWEzxHNL3mF85SfoyOzv7p6ZNmxoLebx809PS05Oxa21tEGCIwVAD+f9nfb2X/XoQAmrjMxJfkeBiL1I9cIq/6aHrUwT8iQAVAPyJLl2bIlBIBKCps793aP61JEpP2S9lLwhY/P6yqV5Kkwy6x9g8aTDDik/DRaBor+a/eHUsawhhuKYtGR1y9zmU6nUR1IcFpOcbNGjweSGPVeD0tLT0q2Cu5dTAPJj/L1WsWLGyP/fUrg0hoDre/4pXlQL2/Ag0kiwCelEEii0CVAAoto+OEn4vIPBrm+bTWVZ8RWHcsp5vczmyBqDIP0oAcFuRG9hGZfz55kVGMnxrFOxp1ZZhw0mlPtmpr8QMKLUCHLwnZn8uIzKyTH0E+F3zB/5gvoaMjMwcCBogQaGB5/gFFStWGO6P/ZytaW4BTOoAyOWVHVx4Lqw2KyCQ5NG9KAI+QYAKAD6BkS5CEfA9Ar92aPE6Iwhv2Qf35RcDnLkFFKFBKzWwMbEy4+eatmBYPaL5LUF9tqZ+1e+P/P0DcD001cYBYMF5DRrUz2eR8AUCly5dqoWYgtNWAYRl9HrdU+XLl5/ni/U9WQNCQH+MX6mAmO96DzRqCwN5sjQdSxEICgSoABAUj4ESQRGwRWBL66QX0M1vpvppvj9Uc0S+PW5OA/vg3+c6dGE4tSGPTUS/Y+aPT/fn5uZ0DQuPSIZGHmPJ90fUP1wM3erXr0985T69UAOgB6r1rddmAISGhlaH//+cTzdyczEIASTw0JGwQ6oJvu7mMnQYRSAoEaACQFA+FkrUvYzAb+2SnpFE5kvk1in8XPNXam8NUG7n/zOWJ/II5GvYhOHadUZz3DhNUJ/G1M9xqHgnReSP8OdEFN5pBSa/78iRI89jl1lW14C85985OdkNEQRYqJQ/++eckpIyBjX/Z2t6CFyIiYmpGujfBzD++7AnSfNDx0OHFoA3gMd/A00X3Y8i4EsEqADgSzTpWhSBQiKwpW3zoXDhL0C6H68spWHv7goCBgPDJjVnmLadGK5ceYtfXzHjq8yf2QlTO5g6X1cUBZLTbuP3x725jRo98Ayh4MCBA3q9PhQNeqRa2iBBRATMv//+eiMKeWSb6cgA+AgBjy+pGQCg41uk/4305R4FrQXGXxWFgd5E4OETRIQqYOz/gcZ3A0UX3Yci4A8EqADgD1TpmhQBLxDY0ippEKLsvgcTQpM8+wXMgoDd5zZvw0IZtnFzhkUqH1MmUsPslWA6MLUsMNfvwcxnNW/e+DAJuNu//8B57BSrDfrDOLTbleo0adIEdQaUC1aAR7DGUvuyv4gRGF2vXr0vvTiuwymX0tI2oKwQyu8qwYgQAJ6EAPCdr9Z3tg6wiAbjfw17jia4OKkKqJ1OWgxP8zdddH2KgD8RoAKAP9Gla1ME3ERgI5g/b2b+2iluCQIo1sM2b80wbdozbGiYuXCPVdsHQz+DUrqfox7AvHbt2oG5K9eePXuGsSw338L8LXEBzHNJSUlz7Ek/evToT1hcKdFrLg6ErAASsd/mvvvuO+TmUQsclpqaloH1otU9YAmpGhcXd8EXaztaA8y+LHoCvAJBYzzuR5AxKvPXVARENiZD6h3IvRfM1yu4/6G/6KLrUgQCgQAVAAKBMt2DIlAAAhtbNR0K8zrpLS+bnB39UToUBKLKMVK7TgzTBEH6Or2NqR9MX0Qm3S96PTerZcuWG8CsRHsS9u3bdwgR/qj6YxME+FtSUpMuGE+Yns117ty5mDt37h7HjfI2ZYEZ7qwg5DVt2LChRbjw5oFnZt6JNhpvZshnJRYLljsbGxtTw5u1XM0B4w/Nzc19ATiRYj6oOaCgrmX+ZgxW4+M38foCL/hVLBdtBuQKZHo/6BGgAkDQPyJKYElG4NeWTQYLHLsImq7Ock6VGTk4uHyrbJSZ8YMfkUA/Tf4+GNo1vP0Gn30Obd9p5Tzw/i6iaNysjQuAlYAE9JHAvr+dYX78+IkhoiQstncFwFi/vV692j2wb7a3z+vChdRuPC9tVDMAeJ77BgGAT3u7nqN5YPyc0Wh8QhBERPEzla2mfrMQZI6FAI5rCOPH/YNkHczbgX/aaNZ8nmDsS9roWhSBQCNABYBAI073owiYEdjcssnjIsd+Zw34s9P+7QWBipUYsT00/vtJqV7VDC+zYvBM7hAY5iy9nl/cunVrl0x41669v6NPQDut8MDzuglJSY1dtrg9fvz4YlgOhihmeiVMUdGguZ8hBAzEz4I3D/nixYsTkQHwgSYDYBjM/wu9WcvRnDt37nQHY0cHP/YBNcZAoduG+a8TRf5Ng4Hdr10DAgCpDAjwLdcTmLvIV7TRdSgCRYEAFQCKAnW65z2PwCZo/qh1t0gO+CNoFBDcJ0XHiFKr9pz0ALHWc0ovAEVTzYWhfJlOx87q2LHjbndB3bnzYGeOM26xq/y3u1mzpm0duQrs10W3voh//rm6Q2KkRvktAcxXCArUds1zlywGKYDz4V4YpqzJMMj/T0QBoBS3F3AyED7+xniR2v3d7M5sqXaIqcRNAsZvINX/8l14TuvxYQ/NDRILQboW0osiUGwRoAJAsX10lPDiisAvzZsO5Xg11c/6J2gvCEgVonPFjl1CpHr1ofETxq9mArCXdLxujiQJX3ft2jXTUxyg/W9DY6D2qh+fZAfA/J8E0/8pd9c6e/Zslbs5OftZUaposQTI9MnSycd169ae6CiOoKD1L6WkHEHp4oaKWZ75Kz4+njTm8fpCs6IqMPe/jfM9jkVkyUmRncwBkoqFZUNISMh/8dmugjZyIAB0wpytXhNHJ1IEggABKgAEwUOgJNw7CGxo3fQRRhRhQofPX7Ggmy/Nn2LZyNtih66lxQaNSfF9mWGBiUkoDvQbw+hmhYayqzp16mTyBrUdO3Z0Qqe/X23jBtixzZs3n+3peidOnG4vScZNKFiEtDmrK0Chl/2yVq1aY9yxKJB9SerdpUsptzFeXgvn/Qrmf68sCTdu3IjCkq9yHD8OK4fa+/llLCVpjU6newca/z53zo3xmzGui2ZsEtb1SeaDO/vTMRQBfyBABQB/oErXpAg4QGB9i8YDwc1/sAn4I+PMggAbGn7D1LlLhNC4uZ6Y+uXPWfY20gPnm0xhs/r06XCyMMCCibE7du/Zg5WbazThdS1aNO/jqbau0nHs2LGHYZ34EWIKaheoxYTU8kXc9+npKSPcEVZSU1MbIzDvkOreYCRuWGKiZ/5/ZCmEwmUwDvn8r4KCKHs/P4QSETT+ZGb8f3iCJbAj2n4HzRzSrvgvT9agYykCwYYAFQCC7YlQekokAr+0bPIwzOU/oIi+Xj2g+seHtr1XhI49WCGpWQWWRPXjf7D4E2Y/KzIycn7btm1v+wKU33fuHAI7OCL4FTM4/nO5dKmIhmjv67EbQUsPggKHQttW0hjtLAEIVtwUFho6xFX3QAQAknr7c9UMAJBXJyEh4bQ75yaR/devX38MZ3oH49HC1zaiH8IUGD+zBOPeLV269HF31rQf4yALIAb7FQo3b+igcygCvkSACgC+RJOuRRFwgABh/mjQ+wOC5vTKH5yi8qMM71Vj8+b/CO271mFIZz6zDx0Ma3WfPg+SILN8ufjeArxu3bqQ0mWiTrKMWE3V1HU6vh9M/yTPvdDX8ePJIxDXQBrn8JasAMWCQfL5z6CvQP8qVaqccLYRugB+BiY71iwAXEtIiK/gzvlh7u8GjX865jYyCzXmrATZjUDcJIvxeq9MmTJuxzc4ohHrH8bnD2juhWM/l9kWhQaWLkAR8CMCVADwI7h0aYrA6lYPDNCZuB8lVrJo/hwr5bClyn6aNebFFxleF2I29VsEAJ2OG9CrVy9U3fPdtX379pcRSfihqv1LPD+nbcsWz/luB4ZJTk5+CGb8RWCM4ZYzmVMEIQfcgul9VLVq1X50tOeFCxd2AoDWivDAb4D5v2dBtEHjb4QAP0T2c5aywar1AKZ+UrVvPl5T0UXQaU0DT84OAeACxlc2zzGSWAVP5tOxFIFgRIAKAMH4VChNJQKBta2a9GFM4nIcxqBG+Escu1mUpOeZ/3s73GgUDtszf7zPy83JLj948OA7vgLh999/R6Q+h5a+DPzisp8++U6N6kk9YmLQCdC314kTJ1rCHbAK1o6Kmnx+c7qdbJpfEBUVNQ6++lvqzmCu/MVLl24iAyCC0AfLxNsIAHTYahcafzVU8Psv4g4ew3hO9fPLeYMSl4v4vm/CwsKm4UUYts8u0EjoLW1e8DLojPbZ4nQhikARIUAFgCICnm5bshHY0KRhZ0HHrkXBnFCzT/qayHL/7r330FeEVf3889r2JiFvm2qOlxPUZJM5c6B/v37NfIkOtP9vQMdIeS8UAGBRux+XTaEbX+535syZmug7sAKnaaCY5bUZAviZ4y7goxerV68u59GnpaXVy8sznlCwQC9Evb5P1djYtVqaUMQHZYjvvIbPRmEQBCo1lU92M2Tj9RWY9PQKFSqk+vIsZC2sS6w3uXip35dHsZ/WHeDrLel6FIGAIEAFgIDATDe5lxDYkNSwhRHBb9BQS4OhQU9lFoabdC91OnjwHxWHZctW92U50yqr35+wFzA1nvuhf58+aAnsm2vbtm2tof2TMrYyd+V1/P+1adXK721s0UI4HH73WbB2PJm/WJAlD391WFjoFGj0yHdkF6oZAOWioiohWE/uRIjI/rJ6fQia9XBo1iPJFgLlKPJx7qCJzxfI4/+wVKlSfgvIgwBQCa9MZW/52oSfu/vmCdFVKAJFhwAVAIoOe7pzCURgbVKDBhLHbQXbR6ce9i+9JD7X49BRUkbW5lq6YsXDiMhfbh8wh/fv9O/f9z++gGbJkiV8pUrRB8CsGhFuCd/4jvS0tI5wL3hVqtcbmk6fPj0S1ocZoKG0fVwAea80LWIu4X4VswBwrkrlytXBcMNRGfAFWAsmAxNLSp98Dpa7g6IIn4aHh38MIcMiVHlDnztzQEsdvE5pBIAF+Hm4O3PpGIpAMCNABYBgfjqUtmKFwOpGjWqxOul3FMaJBGebzl+7NbXXmTPEdJzvggDQHwLAT1bTv6LV8hz/bN++vb/2xcF/3br1RexBmC8xu9+SRKFRhw4dzvlibU/WOHnyZFUw+m9AQyfHcQGK6d9cqW85tPotYLj/wftYG1M/x93lWH5WWFjIB4Fg/OoZQUtLvHZrBIAP8PMkTzCgYykCwYgAFQCC8alQmoodAhvaN0vMu5u3nWHFcwbJMKbHwYMFpp1BAOjDSexq+yBASc+PHNC797eFBWDLli1V0NznGNaB5k0EC3YEugOSyPgiuUgRIpQPfg7WgPdgyi9rzffXMn+54iHaFkvmsr1qFUQ2Cwz3C5j5p8E1cDnQBwDtvfCSYxLMQgApc/xRoOmg+1EEfI0AFQB8jShd755DYEPDhpVydcxSVsfM7bPv6AIS5OcKhJ9//rmn0ST8Yh8EyOj4Zwb06UPy6b2+CLPdunXrL2BXPRSTOb+kQ4e2j3q9oA8nZmZmRt++fXs64hKGWfippf6BrTCgBPcxc4xly06rVqpUhg/J8GgpBDQ+Q4IM1WeFybQToEcI0sHBigAVAIL1yVC6igUCS5KSIg1s3lORkmGBNsjPFfFLlqxuzvHGvfZBgDqeG9W3b9+vXM0v6P5vv/32JDTteQrzZ1MQQNcQ2v/1wqzpq7nIEKiEM78K+kifAIN9hoDZMpAH4WVOeHjo+xUrVkzz1d7ermMUhDdRPvkNjQDQFT9v8XY9Oo8iECwIUAEgWJ4EpaNYIgDtP6LH0aMe59OvXbu2SnZO7nn7IEDEALzWr18fmMm9u8D8Y8BcT8AEEYWMAlEyMd26dOmQLwjRu9W9n3X58uVS127fHssrdfrLWNIDHWj/CPJDnSLuU9QCeAXjIAwU7SUIArHIPKURAO7Hz38WLVV0d4pA4RGgAkDhMaQrUAQ8RgAR+mEcr8uyDwJE87/5/fv3H+HxguYJ8P2jCA/blzArHc9/2KFD+1e8XcsX80g6IHz3L8hBcyxbzkEQIOkASNIlNcWCFFcAPt+Hbn2PRUdH+6San7fngQtgA0n7U4MA8W9ZvG56ux6dRxEIFgSoABAsT4LScc8hsGLFyivIkyc17y1lgJGqt6d//36tvAEDzP9ZaP9fmk3/R3JyslugpLDDLARv1vdkzpUrV0pfu3ZtLOiZgHmVtKZ+nJHESGzAaybKAzdGLf93zaZ/UmIXnRC1wgBzC1kB42ANIM2GiuRCyeE/EZx4H9kc/14FjRWKhBC6KUXAxwhQAcDHgNLlKALuIrBs2crfGFbqqMYBmPPib0WWKV3enRa62n3A/GuA2R4GZy0FJpUTYtA3RRfBgJupjx49GqXX618QRWk8zlXOYupXivfchmn/O9D3GaoAktLEDDIDloHmgbIlhGFR8Ifl8f4tvA9RBCNFGIBbYJMoCmPRVTDgLXjhArgJbOG2kAUAUlfBp5Ua3f19oeMoAr5GgAoAvkaUrkcRcBOB5cuXfwpz/Tj7OABJZDs+/HC/bW4uw5CCP2XLRm0Do2xDmCZS/sZ37tx5prvzfTGOBPfl5hrHS4w4DjkQso9fZf5g3ijPK82EYDCnRo0aFtO5nBp47lwqxsfKLgtdSLPKleMOoDXw/ejwO59lxcaK2d1S+S8HFoP3K1Wq9D4+D4hlAzSWMUEAUOQQ+etyCSwSQZFR4YvnRte4txGgAsC9/fzp6V0gQJgUGYIvf5epfZ6CCQFgNJb/wj4gDkxuOooBTXZ3vU2btrwmSuI7iiWB2dC1a5cH/UGvI3qg8dcVRWYCNPvhAChU9t2rDJtjj+PtR3Xr1v3eUTAfWgA3zM3LO0LGQ7O+cf78uYqq5QOxA3pkAPwfigf9G/dlt4CCk2wNOAs3wlsQBEjnQb9WNUSZ4vqg7bhFoGGY9yEA/NvdZ0PHUQSCGQEqAATz06G0FSkC8+fPjxg2bBgpQuNz5i+rkkuW3Mdxuj/tiwGBuZ3q16/vfe7su2HDhvYo80dS0nRgVP/A9N+wffv26f4G7vjx452gGb8E5tzbrKIrgXtKO9+tej33Qe3atUmdA6fYwWqAAEUWNQHI15D0A6wD+XogECEB9+dgQEsHxYNOoWbQGzExFZdhDAoI+f6CAPggggDXqQIAMB6Nn7/0/U50RYpA4BGgAuF2x8IAACAASURBVEDgMac7FgMEZs9eUKdUKSll+PDhHqf4eXK8pUtXpLIcE6eNAyA/IxvgQWQDrC9oLTD/SnAh/IEx8nzMeaRbt26k/bBfLjDDkCNHjgwWBGYCMvUaW10Xsq9egPNhhcHAT4fGf8AdAk6f/nsfxzHNFMs68zgEgO8dzcO+3KWMjDGcwLwLeSLSQcbAMZx/BiwGxNKQ7c7e7o7Jy8sjDF+x0hAxRZK6wZWx2d35dBxFIJgRoAJAMD8dSlvAESD+9Js3b3ZGZPrO0aNHZ/mbAAQCLkAg4BP50wH53/r379PZ2f6EKa5fv/4XaP9yehqY/7Lu3bsP8ge9YPrVEAkPRsg9BXW+oo2Zn2WBkTQPmvHHDRs2POvu/tDsa+bk5P4lCz4cmLYkxWrjAxytg8yCOGjjM5A58YhNjwBLnABzFXTMjYiImB0WFnbBXVoKGgcXwLtYk9QukC0cMP/XAM1un9MXNNA1KAL+QoAKAP5Clq5b7BCYN29eaFZubv+K5cotC1THvJUrV0Kjln6UzdtmP7fC3GR3d1tYAXY6AnLdunWvgXPKfn/4xK8ier5+165dfdYSlwgY+/bt6wWWNwZaek/QgKKCClHkSwNuiitwX8wyGnNnNW3a1OOOfMnJf72FNV6XF5O4RbVqVX/C3V+Y9PT0TqDvE9DzgJUmDX4cbAUSsw2k/lCuXLkVGHPV3bXtx8ECAAGNhYAmZwCY8ArHekZv16PzKALBhAAVAILpaVBaigyBTz75pGxoaOhIkqIGzT9gX/ByQSBOlw5GCNO2zPo10fNscm5uTmMIIzZmbTD/DjD9b8F4noyHVjqse/euC30BHtH2797NHgbmPBKEVNVq+2Yh5W9G0n3MMMZvwfi9spCgWqEuPj7hPEiPJ2c26PVdq1Sp4lFpXQgAPASBZxAk+DYwUKwSFgHFRhgwQsDYrNOxK5DOtzkqKuq8JzjB8rENe7U3uwCSYf6v68l8OpYiEMwIUAEgmJ8OpS0gCHz66adxOp1hfJUqia8XReEcZAN8DYb+tH0cAHmPlL6Z6A0wXgWC+P2NovgHQutkvz8jsWt69erRtzBA7dmzpwwknkd4kR0BH3s7rCVzUFtTP78fcXYfIG9/RWGtI8nJyQNA+wqyAc9x51ETgJjVvQriO3fuetlSpUz/hstmHNYLt1pPVGuFVRgwF0g6g/NtBiPfAjfBPux7sSDs4AI4hzEQhGTBbDkyNB4pDNZ0LkUgmBCgAkAwPQ1KS8AR+PLLL2vn5QkfVapUfigY252AE4ANlyxZ0Zbjme32cQAyMyNV8yR2OOIBFhKz/Lp1v6yHH76b2fR/R5KEehBaUjylm6TZQbvtajJJwxCE+BDmh5EvA4sWLbsWWBGWgDUmhvmkVbNmWz3dw9l4CAA7sVFrxXqhe7NGjWpvFXbtu3fvxuL1GiB6luMkNBlSrSnKmRQNXmMZsL7/B1afQ7Ci/IGUzKPA8xwEg/MYn06sDMCIWF+Qhih/Vb4FweHNwtJK51MEggUBKgAEy5OgdAQcgY8/+6y+TuJWhobo+owaNep0wAnQbLhs2XKFKZqZlY0wwHNGHcuOhhc6Hvn+b1tdBdIUMP9p7tJN6vLfzcnpiQZBA8AkSfpelKLpK359DfO/DrM5gulCZj/wwAPn3F3fnXGnTp3qjI22kB3BeEWTia9Rr1618+7MdWcM3AJVwczf5Dj+cYwHbGoBH4fM36lwgIDHHMwl1oHaqvAAYWgwLABL3aGDjqEIFAcEqABQHJ4SpdHnCHwGzV/Iyd2K6PnnXnjhhVU+38DDBZctW92XYY2r7OMArO9lDi3iPUgmzJM5fefOnQawWhTYLQ/+9gqiqHuQ54UBmNwD9gSLmdye+cOffgwuh8/A5BZ66993dexTyclbEKDXWXZv8NxPNWvWHOBqjjf309OvVw0JkV6CFv+0Y9eAxjKgEYCscQT570P7J7UZTnpDD51DEQhGBKgAEIxPhdLkVwQQ8FcVnfhgcudXv/ji88/7dTM3FycVB5evWHkYzJ0UviHWarNmbg0K1AoDer2uV48ePX6xX37v3r3lIRi0R2ZBR4gKnaBl348UO7NP36rtq8wf97MhUSwXBPbr9u1bb3OTXK+GnTx5sjX23akGOkKjbl2rVq3dXi3m5qRbt25VgBl/HM45FlMq2LsGHL+3Mn+z6Z9YK3IhGJXCe3hE6EURKBkIUAGgZDxHego3EZg6e3ZUiNG0g2fY8qJoqjthwoQbbk71+7BVq1Z1NhqFLfaVAfO959nVfXv16kdM+pmZ1+7jebGxxPONWFFsC+ZKetVzTkz7FlM/GNpBRBDORWT8YpTfDQgGJ5KT17Ki1Ethqty2unVrdfQ7qOYNSBEjCAMP499R2L8DPsY/TuMCHLkGjqI18QOBopfuQxEIBAJUAAgEynSPoEAAKXeG1LRMtKGVOvJ6/okXx45dFBSEaYhYtnLljzDTD1a1fUfCAJj3adwvrTTRkVmZxlrg/D2C+v5BV7vFej0/t127dkcCefYTJ060hFyyS2W8Oh3fC+b/fBaMQNCUk5NTB6+nQM8jgK66iyBBVRj4HgIAiSugF0WgxCBABYAS8yjpQVwh8OH/ZnzOScxzCG/fNeHFF9rii98vNf5d0VHQfaT5Jd65m3OaZSQ01rF3BbjP7NV0OAgQ6eiztxI9c5ZfvXp1W2FT+Lw5G3FvnDx5ijB/CAFyZsOROrVrk05/RY4/3CUPgL4BiH/oC7QbgkYEDqophFZXAKfTvarn+anenJ/OoQgEKwJUAAjWJ0Pp8ikCH8yYMZITpG/k4DOOf3j8+HErfbpBIRaDZaImMs06I7CvC8oCd1IK27iOA3Cu+fPnGUb8CestR3XAXVjLqxz7QhzJZioi/x8XBHGh5Uyo+1+vXj2Hdf99tac360AQiECp4aZ5gjAF7pSelowMkhLJcT0RBAjrEb0oAiUHASoAlJxnSU/iBIGZM2fel2eUDkLhDEWU+99xcbF1ikITVslbsGB5LG8wdeEZprPE8Z1hlaji0u+vBgWa89u14xHEhzoA/G6eZ37FHlvQE+CvYPllIHEKoaFhyWCmCYrAwpyoV7cuCXT0axtfT89//fr1siEhIU+CrudEUaqjpg+ahQAJ5v8K+Pmap+vS8RSBYEaACgDB/HQobYVGYM6cOfpbd7P2wNjchHypSzz34sTx4z8t9MIeLLBo0aIojtN3ZFixM/z2XVD1r56FwcicXBN17sF7+PQvYJ223hQC8oD8Qg09duzYm/C1v6Fq/6gv8FD9+nV/LtSiPpx848aNptDu0e+AG4Jlwx0VC0K2wl8QDmr7cFu6FEUgKBCgAkBQPAZKhL8Q+PDj/70uieJbCsOFE0A0xUycONHj5jWe0AehIzwkJLKtTid2EZHzDlN8Y8yX6/abtWBL0J7r9y6EA4Z/pk+fHnM9oS9QY8H8E0H9KTD/cLNcs7N+/fptA7W/s31g6tfD9z8Q5YMnYExzV0GAGLMI1QHdblZU1Oej+1ME3EWACgDuIkXHFTsEpk+fXoNh+eP4gg8lxMOTu3vixH+19vVBiJVBpyvdgtcTDV/oAkGjJTR9pRytJp/fxftriI7bzXBMAscwD6i58rb1AMghbCP+Ebx2Tcdz9VAT4LKvz1XY9Y4fP74KWQcocCTr1QxqF7SrU6fOjsKu6+18YubH78IoCACkb0Bi/r4BTosD/QuNomZ4uy+dRxEIVgSoABCsT4bSVWgEpk//aDX4Th+Z+YNx6nj+9QkTxr9d2IVJTf65c+ciepztzPFsF/gV2iF4jxSJURi+RdO3f6/Qgfa94ItSMn7Yjfc7EQuwe9CgQSe3bt3KX7t2/SxuJnoSBIheAYv69HkwqDTUP//88zEE/i1ShR64K1ZB++9fWOy9mX/z5s2aoGW8JInEx1/KRTGgoxiThn0sQYB43q3Dw8P9WrDIm3PRORSBwiJABYDCIkjnByUC0P7bSAy3Q/4FN2vNPMc0e+mllw54Q/Ds2Qvq8HwWzPlcZ5HlOiGmoLyq3St+Y6u27+B9Fu7uR+77TkHgdgsCv3vEiIfz9ahftmzZQ4gPWGnTB0AO+uOOYINcBDEq5moHcQI8z47o2bPnfG/O5us5Z86cqXT3bs6fEIoQOEfQ4AX0HngAAsCfvt6roPUyMzNboy/AK6CgH6I/IIOo6X2aZ6UIZHkQDlbg/qwyZcrsyMrKmgWm/7wsrHGcEf5/0qrZpiVzIM9B96II+AsBKgD4C1m6bpEi8P4HH25hJamzyozxRS5UTowPd1U7XyX6q68WJuTlZaNmvdCFMH0krCcQ/uGK2Zu1/0v4dyeY3m6kju2KiYk5jGp7LkvILlm6dCNYTjf7oEBJ0vVBJP1xo5h1CAl95ZwEDWYxktiyd+/ex4oUeGx+5MiRHyDIPGqxhjD8rIYN7xsXCLpIzYF//vmnD/6dhGdGKiNa3DD2mj+YegoEhDn49+tSpUplqPRBANiO+aROBD7iD4WHhyQFgna6B0Ug0AhQASDQiNP9/I7A1KkzG7Nc7iFF+Ve0c6h/5yZOfKm6s82/++471NDP7oQa+p2RTgeGL9WxMnuFidi/NzN7I3z+f/Bg9qLI7goJKb3riScGetyed8WKFbWx9ykwLbOiqmj6KOq74+EBA9qR3desWdNbEKXVyrHM920rAaKjodgMWQG3/A6ykw3++OOPh4DHStXvjwj6TOTW123cuLFfyw2DYRuuXLkyFIF90PiZ+grzzm+ZgTCHoeKv+Hd22bJlSfMlG8GMCBBoK3wdn0fKtgue+xz+/6DoF1FUz5TuW3IRoAJAyX229+zJpk2b9rUosU+rzF9mBhKzadKkl7uroKD4TqnU1H/AWCX48YUu+N5/AONkM3FBfnxSTheMATn33G4TI+5kBeHA6NGjswoL9g8/LP8UoQHj7IMGpRB9+0F9+mxX11+1Zs2rkii9q2q2+YICWWbj7du3+7pr6Sgs3dr5hw4dQgEj2V0Rq8glxITODm/QoMECX+6jXQtMv3Rubu6z2HcC9pOtNI5M/QiWvAlT/3y4YWbDzH/KGT0IFKwKq805xVogr/UY/P+L/UU/XZciUJQIUAGgKNGne/scATD2sDN/n7tMgr1UAUDehOfmhvCG+SZTHonS7wxW3wKf6hVNWv6mt1gLNO/RQZc7ybEiAsD4nZIUtvv554cl+5ron3/+OS4nJ+9vECKX/1WYO3lx6wYOfKi3/X4//7xmLm4/5SxDgGP5JT16dB2KNQJWAZBozocOHVkNi0VvVYCClr2tQYP7O4EOn5f8hX8/OjfX+CJSLMcAqKgCTP3HsP/sChUqkEqEd1w9O5j/BwqiuEwVYMD8IVSwqa7m0fsUgeKIABUAiuNTozQ7RQDa/0OCyKD2vZmJOmfuCpPV3AfDuoMa/PtE+O/1PLsbmuXuQHQL/OGHJZ+CEGj/Ks1y5Jxg0Oua9O/f/6j9YefMOaCPic9YB7baVRUYbOMCYNdg+S969ew2JlC/KgcOHBnPcuL/VOYPuoxI+2vs68C/y5cv10Qjn5cBECL6mVCrX9/splEEqDz8s5KY+StVqvS7JxigY+AHELwmKi4f5i/EBtACQJ4ASMcWKwSoAFCsHhcl1hUC702b9iUjMjAJK8xU4e9WX7DWjw/t8bzEsrs4id0dEqLfWbdu3WPuBOu5osGT+8uXL0/IMwp/EWamZeYoWfz5wIEDnfqe0TQoItdk2gAdv42ToEDEPTCfoywwESz8agk4fPhwY8QmwEoihVitF8z0Ro0aTfYEi4LGXrx4sSkJ7MPzexjjeMXFr7WWyO9Tkeo5B0z764iIiHRv9ob7hLhb5ABAvMg6z3qzDp1DESgOCFABoDg8JUqj2wi8N/WDkwiEq5uf+bN5UIsPwSm9GyX5dppM/O7Jk18g+d5Fei1avPQzuBjGWpm/bPq/HhYaVbtv304FVixct25dGUFgNiPdrpnVdWBmjGbmiPTAJfBrD/NXTAA08lIXLl5EnwWutmo2R3zEKQTSNWndunWhU+fOnj1L4jYmAZQuGuHCwvxJUB8Ej98kaPsJsbE/AweX2RbOHri5QuBN3A8jeCJDYBgqAC4s0l8QujlFwI8IUAHAj+DSpQOLwPvvvx+J3P/rxB9NdrZq/iQIUN918uTxWwJLUcG7kS6A0JyPY5SsOStxCOhHi34F0P7d6leAzIAoTFyPF2oE2DJ/63tmU0R4+MC2bdve9vX50eznO6T8DVeZP2HAYoihbdP69fd6u9dvv/2mq1y56iCEDkxCUaRGakaBxaoje0jYWwgwnA8mPTsuLg5CX+Ev+P+bI2Nhryw8EgGA4yojBuBS4VemK1AEghMBKgAE53OhVHmBwDvTpjXlRGa/OlXrBjDo+YdRBChoWgATGhcuXryGY9jeqmZLGB2yDE5cv36tETILjO5CQNwBgiCsQN+B7s5iH7DuafC0AWgPfMLddV2N279//zgw/081fn8igbyXlNT4NVdzHd2H4BZy+vTpR8HUXwPjr62cxSzUWFP6SGfBeUj3m1OtWjWfphaiMdBrsCi8Y84AOFu6dOka3pyDzqEIFBcEqABQXJ4UpdMlAtOmffiwIArLbQQA8gZchGN1IydNmvCty0UCNODHH3/saxJEkoduqexHzNkiy3QeOmjQVk/JgNYcmp2dvRgM+SHFmqCxgJgxwF63GIN+WPcOHVZ5ur79+H379nVAkYJNxLRiFWDYY0lNGhN3RK4n66elpVWAy2AsmDqp0V/BganfCG1/pU6nm52YmLjNk7U9GQsBYCueQQdz/v88+P+f8mQ+HUsRKG4IUAGguD0xSq9TBN5774ORaLn7jVYAUHgfzLk6bsIrL7/8v2CAb968eaEGQwhK5bLVtaZ//Dx3yJDBz3hLI1wKPLTWT2AJeEGbUaB1DcASIMFHPw358294Gxewc+fOKnq9YT+c7xU1pn8jcuxbIPDvD3fpP3nyZFUw3JdEUXoK9EY4MPWnIajvS9z7smrVql4F9blLC6wPpRAAeBWWBwPBC3SNQDBhUJRWdvcMdBxFwFMEqADgKWJ0fNAigBTA55ECOEtLoNVvzP53yqSJbwQD8YsWL34DxXzetGH+LJuJyP/7wJSvFZbGtWs3juV46X8ofqQrIC7gj9CQkGGIC/CoPj98/uFGUdyBFMTGKvM3V056pXnTph+6Q3tycvID8LWTiP7BeD6g0WyxMJv5wXy3wrIwG018fmratKnbrhB39nY2Bnv1BvNfY2b+Eph/POjyq9BRGHrpXIqALxCgAoAvUKRrBAUCU6dOfxIlfOc5EgA4Vlo8adKkx4qa0Pnz598PnncAjCZEDfojDBApe0OHDBnyg6/oW79+PelmtxjWANIC11xcSDaHmOsfyFX6csBoX0Pt/BkQPARXe5Pgyr179xI3w6MazZ+02fm5eVLSAOxTYMGfU6dOdcrLEyZxPNMDwgmGm1M1ldiH2xzHo1gPM6tWrVoeCSWu6HbnPjIlZiCT4UVZYGKYPyIjI5u4M4+OoQgUZwSoAFCcnx6l3QaBqVM/HiAxxhX2AoD8nmOP/nvSKw8UJWQw0RtycnP3gPU21jJ/vF/32GOP5qv4V1hakSZYg+N5xESgzDFZTGX+skBgfQ9B4IAkis917tz5YEF77tq16wP4/eUiORq//7m80JCkdg0bXnc0l7glatWt+zDU/FegYTeznNus7eOfk1huVnR09ILy5csXWQ8DWABOQMCpZ07/mwoLwKuFxZ/OpwgEOwJUAAj2J0TpcxuB6dM/aWIS8myYmKLRyW1dc5s3SyoV6EI/WuK/nT//HdSjf83W9M/fQB2AhkOHDvVLuhkJDjQajZ/BEmDtjSDzfjXtUBEGEBcgChK3KCLMMKFFixb5WhXD7/88mP8sxZqg1vnnckVRaNOyZct8ggOp0X8xPX0oL0kvQ9uXI/pV5g8MUJiIW2cw8DOg7W9xZTlw+xfAy4FI/0tA1cdLmrTR9ugXYOm/4OWydBpFIOgRoAJA0D8iSqC7CCAGoDRiAEhqGKedo36x63i23sSJE502gnF3H2/GwfTfAgx0B/HL22n/Tzz++JBF3qzpyZyNGzc+g/0/wf7okWDV/rV+fMUVwaKPAvMm0gq/UoUlMP8hmEtohKfCKjygXsFzzZo1m6Ol48iRU9VEMecFUZIgcDBlrBH9+IljM9Cn4Cu9np9Tp06doKmvD/M/ifZHfwX5dDcjI8ugqREbkNgDT54hHUsR8DUCVADwNaJ0vSJF4L2p04/Ar93QkQAAZ/WoKVNe/irQBJLOg9k5OQdRibC2rd+fXwrmPzhQ9CAuoCZy7BfA/d7ScVyAxjKAan4w20+BIHCH43XrQKNBy/x5Hf9xi2bNUJNfuVAToA3sCOjIJ6EdMMubc+llSwNcDDuw7yz0BViB93mBOq+7+yD9bxnM/wOVMtHMcrQJfsTduXQcRaA4I0AFgOL89Cjt+RB47733Z+Jb/AV7AUB+zzGr/j1pUv9AwkYC575dsOBHVOMfZKv5Mxlly0Y26Nu3b4Hlfn1NK6myZzQKr8Il8h8ISmZrhOMgQbOlQCAMXRv0hxJ5S1s1bz4EHfnCzp9PfZzjRNJ0qJEm44JYEu6C8S8ShNBZSUl18zU08vW5vF0PzycCFoDLeDbhBAW4Qp6F+f9rb9ej8ygCxQkBKgAUp6dFaXWJwLvvTuuElrS/2g9UNFHubqWK5SuMHDkS0e+BuebOn/8yJ0gfWgPwiB2dQ+l6ps/jjz9ONOsiuX7//ffmeXnGBaBLqbhHqLALErSPE1BM5NwO+O5fNJmYkahbNBxh/5F2QYHJ6Kj4OQZ+ixQ+Ulc/qC9o/4+g/e9SxVWBmswhIYko/5sS1ERT4igCPkKACgA+ApIuExwIkKjzM3+fvQBuFq+lyKKdGnS9pkyY8EsgqIXfv4NJkjajO6Gc667Ewckpf58MGzbspUDQUNAepIQwpwv9kGfF0YT9W1ME8wcJqsIApKijPMM0sI6XJwrQnFdDm54Npr+5qIP6PMH1yrVrP6Cd0KPmZ3MsKirKxn3kyVp0LEWguCFABYDi9sQovS4RmDbtg/9Aq/uvIwEAzOqHyZMnDnW5SCEHQBCJv33n7kHsF601/aPBzP4QNMvxtgpfIclyOH3r1q3T0JRokjbC3x1hAOMFaPsfoETv52D8F/1Bmz/XhMASdvXqNRL0iMBIuSbB2xAAXvfnnnRtikAwIUAFgGB6GpQWnyDwwQcfVDKaxL+xWCl1QcV8LWu2eSgKVAVFgTJ8spmDRaD5R5hMwm82ee+ymZ29AdN/k+HDh5/z197urrtp06ZIjtMNQxzAczDj13cZFKhJ/7MVDvhNOh07AgJAsauaB9//Q4IgrlQtM8CgCQQAt0sZu4s1HUcRCFYEqAAQrE+G0lUoBN5778OpsExPcWQFQIDaR5MmTZxYqA2cTCYuiFu37qLroNRX6/cn7J/T84NGPPHEMn/s6+6aW7ZsaWIyic+B2T0Gxof6+9bKgLbpgew/eF/B3hJgiQtQhCm1nsBlWAImNG/efHFxMv+jAuJCHONx+Rwcd75cVFQ1d3Gk4ygCJQEBKgCUhKdIz5APgU8++aRsTq7xJMy8MVorgNkSkBVZplTtMWPG+DwXfc5X8z7jGHGsPfNnGN3Mp556YnxRPKo1a9ZE6fX6oaLIjkSAZNMCgv4u8LxuMfL0v8/NNQ5EFP8bjl0BNpUAldgGpdjSVsQC/KtJkyZIxQzui7Qevnr1aiaojFRSFnWflC8fWeRxGcGNGqWupCFABYCS9kTpeSwIoDDQ4ygMRLQ8+VID8czsawliAR71JVxff/31RFTc+0CJp7MG/Uksu13Iy+0yevTogBWXMXcG7IrzPYnI/YfQIyFU1dhtiv/w3BUWUfBg3t+j8M8uVYPfunXbbhzCXC/AjB3C/mUYzVg6Eg4gNGAraSXWeyspKSlo0/+uXbvWBzUOVivMX65V0L5cuXK0+p8v/yDoWkGPABUAgv4RUQILgwAaBH0PjiQH/WniAJSfOWbA5IkTfyrM+urcL7/+egg6/KFaHurd2UT8c6mCYEx69tlnibbp9wvFfuoLgvQ4zgz/PpOgprdpTf1gdndw+J8kA/+9QZI22ZdH3r59e5RJEK/gHJb8f7OWPFqng+4sMa9DEkgoKGgQJnVUQGB+ZUX2s7Nn/1rtTrMhv4Oj2QA1DBZBSEFzKFlYyyxfvhzp/ueyIVIgaaR7UQT8jQAVAPyNMF2/SBGYNWtWqZu3svYzjFjXagUw+64Z5mqpiLDGY8eOLVQd/jlz5jwERrIEL72d6T+X59mOqDuwx58grFy5sirLGoagIA8RdBo68esj+JFZDya3GE13ViFoL8sZTdu27RgsSsKPWk0fzPJCWGhILdKel/QXMBgixgLTKQhqdCdOAAGC7HKdzrC0QYN6O0ADegEU3QUJphR6FSAIlI0gQgzcFl9B+x9VdBTRnSkCRYMAFQCKBne6awARePfdD+5H/5m92DLcErhmtgggLe8INPR2kydPvu0NSbNnz32Q44WfUGPfYO/3l3TcqFEjR/ql9PDy5ctjkX43EHUGhvIs10ptr0sq+qgR/dD0cxGMuBklepfzPPNzz549r7lzxt9++3095vWwDQqUnm/fvj0p8GO59uzZUwbM9EWG1Y1hGTFOExRoiQuwBA2a4wRgVJCFAQgry+CD31kUzZnA/B9Hr4KFqnXEYDD0QvvfgNSGcAd/OoYiECgEqAAQKKTpPkWKwPTpHw41CQL6zSMMzsz8LQxLYrZERpbqBx+9U63YEfGfffZFF17HrgHzDbVn/tAqZz799FM+DfqDX78yauo/jCMMhBm+NXFdW/36MoclzD8bn65HrcHloaH6Nd26dfOoGt/GPXtq6XNyk+HHx1LygmSb1Lt3b9Xo1asXBIr814EDB/RGo/gwrP7j4AFpa1cZ0Kkw+ZXyRgAAIABJREFUAKvCHYzdyfL8NtFk2oaOfPuJhcHfvyiXL19eB/welL1AHHcTFpFKOGvQ9SjwNw50fYoAFQDo78A9g8DUqR+OQhXeL0h9fgvjVGrgkv9tE4S8/lOmTHGLYc6cPbsdz/C/oPlNhH3QH7jyOnSU6+cLvzeYfh2Q+xDDSojK55vKsovM6a1peHgPRsqthWUdTD90XY8ePe56+1B//fXXj7EymvqYmT8xkXPs6Hbt2n3pzpqHDx9ubDKZRoHBkt4H5d0VBszP4y7G78Z5D8B1cggleQ8lJiaeVQMT3dnf1Zjbt29XysrKJtkfqM6I//L8t5XKlx/pah69TxEoiQhQAaAkPlV6JqcIvDv1wwkcK35s7wowm82ToTX3Gzdu3OmCIPzii6+6mQQjCsiwGuZvjvpn2GMREfFtn3ii1y1vHsO8efNCUY++I8fzvWBZ6AVmXEOxLlhN+4T5Q3O9AU1/NSvql9+8Gb5h5MhOhe5vAN9+KTBuUtEvSrVoQJg5IYrCA56a6olVADR2FUVxCIQTCDBsGa0woAgY1nRCZ+/RN+EmXBmkOM9hvP4kL7g+TlarVo20ffb4Sk9PHwd6PlXxlCRDj+joshs9XohOoAiUAASoAFACHiI9gmcITPvgo9ckUXyHzLJaApQ/BWKWlnh2wsTx4x12hJs9e85Dgij8AAYSomji1pQ/MKtMI8+2GPfMMxc8oQj+/CrZ2dkwSet6I7q+M6wKSqyCZX2FTqyfIjLsWtbA/8Tk5v7q63LCmzZtedM+9x9dgPt26tR6jSfnsR9LggbLlKnYjeOMOCPXE/erucP8FR+9Wmwon7CQCuHkJO6fwDMjr1M6XdkTsbGlrxREa0ZG5i7EN7SSBQ6GzaxUqSKN/i/Mw6VzizUCVAAo1o+PEu8tAmZ3wCwwArlRj70wILHcZkOYYfyLzz13Qt3jf7NnP4HOfvMwXJef+bNZ+Lwz4ghIsGGBF2nJC020TV4e04vjRWj5zP32zF5mfhwnwAqwj+GkNTzcCmD4RAv2ywWaYkRR+gsCiFIXX26Ny/7aoUOHLr7e8MiRI3WQBvAgztQdAkEb7GljHdAGMlosA2aaHL23BCsqxYiugsETgeAkeSFm4gTy/ZPj4uIuIPWvBtw/fxHOL5tUJH5mTEwFn8Zp+Boruh5FwJ8IUAHAn+jStYMagfff/7AHw7NLkLFexqrJy6xY1uzBQIxIc1ug48OnimJ2V1FiicCAbDrlvqKdytzEpNNxA0aNGuVUU16wYEFN+MY7wencDRp+N4lhy1rmKxxM0fI5NhNldUnk/vrSpcPX9+3b959AgLhx469fID5itDWokMtD5cDGXbu2twhA/qCDFCxq1KhRA6NRaAdc2gIHCARSvKr92wsDWmav4qdERVifh6P3sJ6g9gFzHUMT1fs6Hd+yQoUKLgU2f5ybrkkRCAYEqAAQDE+B0lBkCLz//qcNOD5vLQhItDAUjelZ8RVzAmH8MttXgwZtBADu2eefH23jMli4cGECoto7SxLXGRpuJwyvbOvHt/j1s8D2tyOCfhMEjk1Dhw495sugN3eA3bx583042hHQqbQtliex73bp0un/3Jnv6zHJycnxJpOEksVMM6DeDBSR8sXlvGX+joQDYP03zP+1Ao21r7Gi61EECoMAFQAKgx6dWyIQIN0DoXF/B85H/NOauAD5XYHveY5/c8yY0W+hAyCiy7M6wWzfSZJ44scHc1H81togPmiiiNBnoXVK2xFr8HtMhQo7naXXBQJcooFHRpbbDkYr+8XJ/2D1+BvZBA1at26dHQga3Nnj5MmTVdHPoBGqHDaCa6IxaG0EgaWyK83f2X3g/3ZsbCxt/esO+HRMiUWACgAl9tHSg3mCAEkNnP7JjJc4UXwPzMWQPy4gvzAA5nIa49bDKQCGz9YnxXjs6wHg/T9Io9slMtLvOo7bmZeXdzCQPQFcYQDt/yVBlD6yMn9WghuiO6L+4YYI7uvmzZvlbty40RiPrpHISo3QqaAJKL7PkaXAHPRncdvged+HuICTwX1CSh1FwL8IUAHAv/jS1YsZAh9++GESg454jEg0eI32r5gGtH5/R+9vQcM/hgDCgzqOOShJwkH0ADgRrGZm1PyvnpWdjYY9KIlrjotD0Nyszp07jStOjw0VBcvcuXNnCJj6v3CWegW7CmQLzyFo/0nF6YyUVoqAPxCgAoA/UKVrFmsE0EWwNMzN7zAsj3r3CBO0Yf7WIEFrwBwMyiz/6dgxz44PVmZv/0BIJkJObu5vCG1A5T71TMwZpEc2KkwhoUA++L/++qs+fPnj4HYZBuuLXNffrTgBhnkJ2v8ngaSV7kURCEYEqAAQjE+F0hQUCMycObO5IIpziInZag2QpQGHcQEMx2/iJNPIMWPGkEpzQX2t37jxfXQvnKya/sE4BZQvbt+lSxfkyQfvBS2fP336736IA4CVQursPAOAuQ1rxnrU/B9kFweQV6Z06YTSpQuuFxC8CFDKKAK+Q4AKAL7Dkq5UAhEgmvKRY8cmQMV/Ewwn3FVQIDTqa9BGIQOMQnfA4LzWr9/UX2LElUSSUU3/+PGtHj264YzBeZ09e7ZOrtH4JGoHoM0xS4r3kEdhk/6n1E3gNqMk8oIqVaqsvHjxYm88jyVaywDur0hIiB0YnKekVFEEAosAFQACizfdrZgi8Nlnn1UxiuK7rMQOJSmBthH+lnoAlrgAjpVWQwN94RkPqwL6G57169fXFER2P7IUyqrMX+LYX2/fuNHdF70LfEn/33//HYmgyUeB9whE/Le2avL2zJ89LrHM/MjSpRdVrFgxTaXh/PmUxUivRCliNX9Tbv3bB/5/kvZJL4rAPY8AFQDu+V8BCoAnCMyYMSNJ4vjpiDhXzM/WYkD5ggKhkd5FTf+3RFPe/4Ih8n/Hjh2lb926vQPMtKFF82fZDL2Ob9S1a9dMT3Dw11iSllivXr0uyEUcjjbHD2OfMEeVAeH7vwwpbDF6DcyvVavWIXt6zp07F0rGQFYrrYkLSIuPj6uCZ2byF/10XYpAcUKACgDF6WlRWoMGgZkz5/RmOdM0cP36tsWBrNqmKhyAUf0pSfopo0aNKFRN/cIcnjTnyci4shpdBXtY/P4ca0LVwe49e/b8rTBrF3YucbOgJW9HxFsOQg2Ch1EJsIK1EqDVugKGnosURWJZmX/t2rX1BbUOTk1N7WcyCT9rgwJR+W8atP8phaWXzqcIlBQEqABQUp4kPUfAEUBAGjd79uxBAsO+yjFsQ4uv2VnxILQcDgnRTR4+fHjAy8+uWbNmLsoUPKUyf6JV63juJUT8F0k0PGH6KMPbiQTpIRhxAOiqkN+vD+bPsYIksr/DlP+j0Whc0rBhw+vuPOhz5y5+hznD1SBBCA9SSIihHlwEye7Mp2MoAvcCAlQAuBeeMj2jXxEgRYRmzfq6H8sK/wfGSsrWOnUNoE4A+Jn0E0zc7z775JMH/UqYefFVq1a9Dk76libiH/Tx83v16jEiEPurexAXRHh4aTQAknoDs77AyqLp2zJ/npReJuWRl6Ii4fLq1at75J7A2gYEAGbA1RFlsSQw0s7KlSuj1wC9KAIUARUBKgDQ3wWKgA8R+OKLL3pKDD+ZYcSO1jLA+YMEiWkaXYU28HzI1OHDH9vmQxJslvrpp7VjOV76FB9aI/5ZZl9EeHgHVPvL8de+6rq7dh2sGRLC9EFjIUTkS+3xuVJl0Vx7QBWW8F5AxcTtosgvLVMmbEW1atUyvKXt/PnzpK3yGpv0P4Z5GgLAN96uSedRBEoiAlQAKIlPlZ6pyBGYO3fuA7lG8QUwtceRPhhaoDAg9wbgZ0VHRy3xZV8AaP6jYfb/3Mr88efOs5cYQWiFLoN+qVWQkZERgZS9drxe3w3VFHtj7zqWXghm14j6HtYQdAXmtuO1tGzZiOWFYfraB37hwoX5cC0M02j/t8H84yBskI6A9KIIUATMCFABgP4qUAT8iMCcOXMqcDrdKFEQn0dEOvLX8wcJaurUX8Htb6Apz0GcwLnCkLVixZqn0MTwKyVlUWnyg//fMOjD2/bs2fnPwqytnUuCC3NyclrCC9IFAXqdkfnQEvf15IvFoulr8/U5ToTlYzvuLTUYDMvr16/vtabv6Aww/4edO38+A+cto8ZkSCz7edXKlZ/31ZnpOhSBkoIAFQBKypOk5whqBCAI6FlW14fhmac5hiNdB1HTxtx5MH/HQPAsZjuK3i0wmbKXjRw58oYnh/vpp59GihLztZb5QwzIZSSxR79+/QrlblgC/3qlbduSdDpdWzBbtDpm2+EYchleS1qkDfOXRY/bEA42Inp/HUosr23QoIFHPn1Pzg7z/8OiKC3XFv8JDQlpGBMTc8yTdehYisC9gAAVAO6Fp0zPGFQIfL5kSbwuK+dJVhJHop5ADW27YKurwCIc5HAcj8I1wnIw3XUo1nOzoMOA+U8A8/9I4cEWzV9Erv/Q3r17e1ydcNOmTZFg2q3RhrcNq+Pagd5mWBu5+eZAx/zMXgmA5Ni/0Cp5LYIN1zZt2vh3fJYXiIcA9wPOyA5S0//gZthRpUrldoHYm+5BEShuCFABoLg9MUpviUGAZA/Mn/99RxSzGQE1+SHk5EcWJAyAmeVJHPMbJ0kr9aVLrx/Yu/cFFQyy1sqVK9/BP6/aF86RdNyEAX36/M8VcCSt8ZdfttQNCWGb42cwepZEzd8PmixuBEtevSaIj9CMNDsjTPu/I4hvrV7PrG3RosVpV/v5+v6VK1dK3759h7gUwq0YME9UrVp1ka/3outRBEoCAlQAKAlPkZ6h2CMwb968UGjaDyJafiiK9fRBPwGrlm32odsLBzCrJ4sMt0nHSRvBuxFlz4zOVzWPYT4eMKD/y44AgnZfOS9PaIZ5zWFlaI7MhSTsgcp5Vu3eWu3QURdELhOpeuuw9zqDgd/YsmXLW0X5IFA6eAyEltma4j+Xq1atUhnnyS1KuujeFIFgRYAKAMH6ZChd9ywCP//8MzTZu/0liRkMYaAbGJgmi0AbN2D+2Wrqt3YphCSAqno/9u/f/zEAKaEQUE1o6Y1hbWiMWITGWLsxShJUsjJ7c339Apg/5mdj2Z1ojLQFgYpbOnTocBDzEckfHBcEAOLnJxYLOeiR53XvV6mS+O/goI5SQREIPgSoABB8z4RSRBGwIIDa+KVMJqkHGPdDLMdAy2fl4jYu4gaIDz4LVoQFsBLchzmNkBev0eyVugRWP77T9wLEiANooLNFkoQtEAB2BaJ2gDePH77/9gj+26Z2CAStIs5YE+b/QmVTeEMLnUMRKC4IUAGguDwpSuc9jwApn4s8+w5ItYN1QCKtbqu7JQy4x+yJ9SAPzv4DMBiQoL3tJpNpB+oSFKlZ392HfubMmR8h5AzWFP9ZiwqCfdydT8dRBO5FBKgAcC8+dXrmEoHAokXLaun1Yg+o8j3BvUnlQXM6ntVNYCmxazaL27+HheAK3AFzJZ7dmHWrzJ7Bg1tnFzdwTpw4EavT6y/gbKg/oMQvQIjpW6NGjSJrvlTcMKT03psIUAHg3nzu9NQlDIF169aF3L17ty3P6yEQkPx8phFYIW8JCnQSJ0Duw1xuQl3i48guOICfSX+CAzdu3DiKlMOApO4V9lFA+/8vKv/9R6P9/w3tv3YwxScU9ox0PkXAHwhQAcAfqNI1KQJFjACJHUClvZaiyHSFDx9Fe7jmDCuiGJEa4W8f9Gf7HimHJgxFKp90EFWJDrKSdBDd+Pb7slSxLyA6d+5cWaPJdA7xDmUtxX8YZnzNmjVn+mJ9ugZFoCQjQAWAkvx06dkoAmYEkAUQhR/bmUSxNcfwrRDF3xS28nC1WJA7QYGIPchBBsBJrJOs13MnEJh4CkLGKVgLTheVYHDq1Kl3EAvxmkWw4dibkWXKJKLt72314ZcrV65MmMEAy4jtJTDMn+g2aBCzsxMuZmZa3AUQHkKy79zph/tbEXNxhf4SUQRKKgJUACipT5aeiyJQAAIkoDArK6sRCge1QrpgS5T0bQkmKgcVuiMM2FUCFDDtHHwJJ+FGgICgh4DAnMjW6c50atr0H389CLT8jcvKyk4G3aUssQ2M7pNataq9pN0zOjq6Euouy5/hbCM5RlopSOwNnYHfhAyLfqjIOFYfEloTZYTPkzFxcXHks58MOn3Hc5cu/e4v+um6FIGiRoAKAEX9BOj+FIEgQQBxBGVQjKghMgySkEOXhACCJPxc12klQHM1QPtiQXZNgFCEh0tFzYF0ZBikQeBIRx2CNIYXz/IMkw4LQhp6A5z3xl8P7X8hWPrjKvNH/IJg0OtrV6lS5awzSOPjov/gdSEDITzIY8DsZ3CS2BDlk9emZWR8SD5LjIv7XpLEGnqd/hUqAATJLyclwy8IUAHAL7DSRSkCJQMB0gsAJ2mMjob3S4LQAG6A+8F064PpRtp2/FMqBTpvCkSaEZoj9OU4BJv3OSgjnIJProCJX0VWwjWeZ68hfuEahIWr4Ou30QchC82EbmL9uxBKsgVBSITp/2d1S6X4D7Oydu3aDxeEvCMBAONPY+5jqWlpbZKSksIz09KWSZx0x8DpP6MCQMn4PaancIwAFQDobwZFgCLgMQKkjDCsBfU5Tne/yEq10CSoNhapA0Yco8QVFCQM2N8vUDiwERaspn5zMKMiScjChV6v64Do/wJN9o4FAGEX6gY+zfH8GEHIa8aLbJTIM52oAODxrwWdUMwQoAJAMXtgwUZuQkJCWCjHVTcZjQkmqG3Qzm7gS/p0SkrKtWCjldLjfwT27NlTBtkCtXjeUFsUhVq8jquKL5mq6HFQhePZRFCAXH3HwkFBzF0N8lOZvf17uBkO1a1bK8nVCZ0JAOiFUBoWhyhUNm6GuIBxOh37GRUAXKFJ7xd3BNjE2FhU/rK9kFOblpqR0a8wh4uPifkBPr+a2jWQm/xJSnp6vs5ccXHRK3iJqyyP5dnfLqWkvVKYvelc/yOAb1p9Rmzs+/hCfo6RpHD7HQ2hYVWRonVB+/mgQYMMS5cuLRa55f5H8N7bAamJPErzxsGUXxUm/Cow90dDYEwAM4/Gz/FIVcS/TAKQsRY0MrsNXAsHzIg6derMd4WqcwFAv4kVhI1Ilbx0KS1zQHx8zBIqALhCk94v7giw8bEx4Mv5r1BRavB3ZuZxbw5YuXLl6oIx7wwR9LXzIWW/fCk19WP7NePjYpPBRIgJEVlG0sq0tMwC/Xje0ETn+BQBFl+QqxiRcVZq9XZqegbxHcu/W8RKwDHiZEFiKqWmpj3vU0roYiUOgV27doVFRESUF0JDy4eYTOVxwApIOSyPOISyrMRGQlNHXwMhHIJEBIQG5P+LEph/X1LK2BUYcoAfx70CC1UqGRsXE/M6y/MHU1NT1ybExs4XWXEdvn9+SEyI+UxidPMxbp+rNel9ikBxRcCpAICUnrfxZf26NweLj41GBy72Pfu5VADwBs3gmwPrziMQ7Zbme74Mcwut4UqB7e+FBak1uV85OrqPyLEzIAlUx+fz8PlTwXciShFFgCJAEbj3EHAuALDsqdS09HreQJIQE3NEYpmGVADwBr3gn4PUqUXIkyZtZuULPeH/V75i7FuHDx++gbd89aioUmevX79J7iXERacg9SteHuiBAACrQXNofQMYRqjDiiw8RNx5nc605uLFy5vllehFEaAIUAQoAoVCwF4AINWzSqsrsryuIUxgpMe221dMTMx9PMv8aZ5AvqgtbgBnFgAwFKItyn7kkBDT5XPnLh91e0M6MOAIwFS6T2KkZvLGLHsRgmJ1/ITCafkvTwWARo0alf0nM3MuTLH4veG/DQkJOZKXlyfwPFMHwVlDiKsoJDR0uH18QcBBoBtSBCgCFIFijoCtACAxq5GP2wFm3DLyubxwA1ROiHtLEETFdSAxu8H+W6kYORMAijmG9xz5iNk4CUZcV37ELLshLS29pzMQPBEASMnW8BDDJp7XTWf4vDQpj28g/xaJYjpCtA/8eeVKRnx8fEsEa83Rh4X1o0LAPferRw9MEaAI+BABWwGAY5ZC8cqBdjfMrN157AbQBvTxvDReENgZVADw4RMLgqUS4mPOSCJTwyzk/QC//lBfCAAkCAu52BsvpqQsjI+N/QjV44YiI2UPR1wILNuQE6XnLmZkfEcsRjwjvX8pLb2DLCDQiyJAEaAIUAQ8RiCfAMCbpPkCx65WVzKEig+4a5JHCc4mprxc0k6UVA/9C5aEJ+Er3ulHAYCHr/g+lBStLTBiCGqCoEoYdxZuixPY06FJ2hVCqBteLVSvb2wUxVtRRuNxonW6mgO3R0VekhpIPFMRAhQpR3o5JCLiT5QqvepqrrP7ciaFINSDfx3WGD7bZDJdjYyMPFGYNbGXDng1gW89Bib1CM4o3oDP5fyFCxdOecJItQIAusYtvpSWZokHsD+PuxaAxMTEGoxgmgem3p6sQQQAhpNqp6Zm9CXvKyfETBdEdgjcDXK6KAIRv0Frux/Pp6dv8BZjOo8iQBGgCNzLCOQTAFq3bvfE7p07MpCfS7qHEb7wTmp65n/cAUn+khYYJYcf7gOU9FzvjgCAL/PNYN7V5N0YdmNqevqYgvarVq1aFZMx+xUUF3kUpugK9mORDnQd+34bVjryvdOnTztsRhIfF7cTY2LIXNT8HomSnzsSY2JmwPNM9oZMIV94y67g9PrJau1wdS+SB385Pv5xURJfAA2N8bl9USWB5Zj90GBnIK3oR/loLi4Ez0Xmhoe9jPWexIsUTbG/RI5h/xAk6Zs27dp97W5OfbVqlRoac9hXgG1/LGiJ8VAXB53pLCP9mGuU3r98+XKmIzJh2TmFKj965dkyibAAKD8zzB0c/LJlLYnZKnDcIdRXl5uv4NCEYevM929jrKW7miFM1/Ps2ZS/yL2EhLhxkNnYlJTMT8n7/AJA9BRRYJ9NSc+QLQ9VY2N75ElSb9Rvf9EVrvQ+RYAiQBGgCORHIJ8AAI1rMBghgrAYJV2LZZOhdcn+XhcX1oo9h6/8KmSczhByHyqCRbklAHhQB0BmFKI0HQJKmCuCSG1xWCEGpqenb7cfmxAXe4kUIZGPyOseFE2mXhBCXnC0psRyddPS0pLVezBB1wHD/B5MuolrGsgG3K4yeXmPnPznn3Rn42tWrlw/22T8xQnjd/Dk2NOGkNDuLvzgOqRkvgkCpmABVagpiOQ7nI4bhUooix3glQu8DK7OC4FpHerF70YVuLddjQ3TG+4/c/GiHDCamBD3gcRwW2C9WU/em10A/UWBWYb6gmUlju0nMfyzJF+b3CeWGh3LzihswSpXNNL7FAGKAEWgpCLgUAAg2pWRkeQvYnK54wYgflmV2cP8fyQlLa2R9jOyTmHrAIApvAoB413twyDaK7TsX5F5cEUSuQTEL7Qj/EEz5i4YfCv7bAatAAC6poJhESaZrzQy1t+TkpphCWRErfHauTnZO+0sDyZM3AGhIFlgGcRRMvchOo7M4Sx0sOwlMOx2jhi2rPmHhR7Fmko1REIIXCh4f5RUZQQDNMCcUBWLtdcKPmRMqzZt7ndiCWATYqPnQ+t/wu6X9zzo3IGCKjcQwBeDE3fGmuU0Y6C0sy/BCvM/7Tx/WwDwuzJVJwg71b7sqgDACswvoHE4y/HPXkxNXaLSVL16Qq2cHOM0WjSqpH410XNRBCgC/kbAoQCATXX4wk+3MjnpXbgB/q8gYlBRa6aqQfM8N+ViSto0XwoAVRMSOhoF0xaVqcLMn4MCYC9dysj4Ep9Z/P3QDCN0Ov4tRI6/rGG+h2DFaIr3FjO8jQWAY4zEpI01r3Ec+ylqGPzBmqRoiRUHMqxuJaoXfkHWIlHqESGGw7AqyO4K+eKYNSEh4WPPnj17UYsPERTysrO/hEBCAtUUps6w+0MjItqdOXMGLVKtl1yNjGXeMn+CPiTscxfT07+yx5v0Ndfx/EpGEuUiO+TC2NEYSzCwuezWJLtfwfN8HhrzMu1AUp537+6dE+DKeFtj1hd4Pd/j4sVUgne+yx8xAPhdGclKQgx+z6aSDbUuAET+j+ZEYbrE6+5TK7hVSUgYiDiNprDMoOgUvSgCFAGKAEXAUwScCQBMYmz0FyKYi7wgmruAgdYpYHE+LjYmBZov8alL+pDQ6udx+VIAiIuN3Q/NlTBxcqE0jK63ai52RJcN/RigZ9ie2oAxrQBA5kMyyOB1+raXLl3629k54Rr5D1wj/1XvmwPgSMaEw4BDwlx379jxE4SAB9U5YNj/AsO2ZEaQzxPi4g6j//gDMh0s9z2Y2uPOaCABhzqOTVZjNKDhr09LT7esT+bVq1Ah9rZB/7dqLSAxEXDJtMYjIcF+Di8E4T0kmozLcVO2WhDrAqw4pBBUvrP5QwCoVKlStF7Hrk9NyyT1BUx2MQAc9jwNIWn9pZQMxAoAs/iYNQaBeetsRsZ+Z2ein1MEKAIUAYqAcwScCgDx0dGdYcy2aoAc3wj+1yOOlrIZC3836atNxvlKAKgeE9Msl2UsNbk5RppzKT3zuYIeLLTGBEYUSDMamaHZz8knALDcODDeWc7W7NixY+iZ0yfTUdWurDwGJv1SpcvUT05OJsWTnF5mhn3KYmbHPHPhHJM6CbSgB7pqhncddBkfHzeLkQS4XLi/4SI4ikA4i1BC1rQJxpQPzw/Hs1vg6g+B1D+Hz32sZZzEDLK3GJiZryUN0FdZAGTdxPj4d1lWMsJ69Ga+IMDY2PEQvt4vnWesfifM0JFUCSTxKq7ORO9TBCgCFAGKgGMEnAoAGK7V6vHWuRsA3fy+hE/5WZkv8tKLaiS3rwQABLK9g5VfU4/gboVCwkQ4BK5BhT1pkKSD5zMz92qYriUIkHxW1iTEFpTyl08gYqRXVXO1q18uEuAmCuJEyziObwWGvEd9T/zrMM8rFhYICByvawlLRJqrdZ3dT4iNOQaLxv3KcgisT0uvih9dpkWiU1u/WcbIAAAgAElEQVRVY24OsYDIQpMza4Q/LADms+iQEbIcLWQP38nK+QjNXsQrV67cMd8jKZ+RrMn0KFwww7Lz8npeu3btlrcY0XkUAYoAReBeR6AgAQCR2RqN0IkbgKTDZcbFkrRBEkgmgJEmqIzUZwIA0gThQO8iMyWY6tPSM2IL++BsYgAY5qyaXuZsXWjd/0VcgSUd0pNuibGxse1ggfjdKsBwk8GVp1sEgPi42VjbkvpIYhFEUfoKQXprkcGwG+Ms1gJX55bjBDiW1C6QAxrhNvkyJT1TceW4cUEYOWROa4TwIKWmpGXKmRLay48CANmGRzXJ19HxrT+0/BW8njuCegginD51OJ4ZKInsYZMoTszMzLzrxnHoEIoARYAiQBFwgkCBAoA944JvvzH8yIe1a8HU3hum9jXyZyy3Geb/bup9nwkAsbEo7CMpjYlYbhP26F7YJ2rjApCYLTB1dy1oTVg5FsLKIfvmwaCzoVWTfHqXWjUZX7FixVIGHW9xFdgzZbkIjsl4yFKCWUMI8d+jRfImjuF/QSrheleFiapGR7cwcqzFuoAMhzFqEKM7mNmkgGJCrTp1w7Zu3ZoTQAFA3qpu3brl79y82ZPj2VpoI8yh/SvcOfr1ahCgO2ehYygCFAGKAEXAOQIFCgCYxqGS20W1mxuYyXtgJhZTPFmWlG9VSweDUT2NtKxvfC4AxMX+A62U9AUnJoACS8+6+7BtLQDsspT09EEFCgCxsb+Accs1751pxgXNj4+NIabsCHk+wy7Hfo9ox1euXKmbaOJ/sEvJs18StZXYgzzHLUZO5Q+O3ARVYmJ6ISdRzpUnl47XDbyQkrLCXVxIOh7SOUlKpHxxOn28/T5+tgC4SyodRxGgCFAEKAKFQMCVAIDArOhPUHHvXwrjkyPDa6v7wScbxgqmDKK5QlPNBbOIRcW86+p9H1kAODBPYgJXcvQ9aClbEC52AsACMOThBY2Hb3qXpbGR66yIfEshHgHV8qSKMo4M+wv262U/qH7FijG3dNwkZF8QS0OlgugheON5fASB7A2Ms7gIYKkYAkuFpZCPffaDq98V+0wHlhdqpaRcOaOdRwUAVyjS+xQBigBFIPgRcCkAkO5rMPETP7R8ad0AJBfbJJjkvHJEg/+MmvAPaY/sIwEAaXKxWZYCOP6xALgWAOLiNiL/XnZvmAPrHJXqdfrEcYZsnCHULADkswBoJ8plhhMTO6E6YQ9YV3pA8qnvbGGUBp5/KT19hHq/cnR0H20vB08tAJVjYqahmNEkdT1qAQj+P2JKIUWAIkAR8AYBlwIA4XfQwM/i36oyo9e4AeLjY5YwIiObzmH+Hwrz/w9+EQDiY9JQpEYO/ONYaeOltMwe3hxWO8djC0B8zI84q5x25mkMgFzpLzTkhoWpupHGaIdjIsf9f3tXAudGVf/nzUz2aOkFbTfJZrfdtvTgrFTRXlARkFNQKCgoqICAHAoooHLfyB8EOZRDLhWVS0AOUYQCraCAVORoS2m7u8kmuy1H2+12d5OZ9/++NFm2aTLvzWSS3bS/9xGhnd+7vm8y7/t+73doX9YsXEEw7eAskcjKVJmBvZHLIG1kiCRCs61k78K++rpxCjwOblfFqyEUus/WeFYbYsMGYOhA2ACojpfkCAFCgBAgBLwhoEIANvcrz+QGmDFjxpBEW0wkgRH32htSNq/Ltcz2SwMAy/SXYQMwJ735cq0tmkjUq0wXVxQHcMs6DNb0K5htr6zdbru/ZKPwuScAm3sB9I9jLxtLJorhC1k5ZmzuBSCr3//55MmTR2/YsO4ekJFDPt3k9V/FYm3fF3/O9QJQiZmwGTGqD74FsrVrhugIF8ItNB10BeBmxUiWECAECIHBiYASAYA3wAxsJK9npyA2P/hhT8Np9CHxd4WCwfhFAHLV0tW1Q6Yg9O4yGaQN4fBdCHF7Qnoz07W1iOkvXBVhsiCi7/VLBqQx6RVAbn6EbLhj2RjE83RQG42ns+OJ0v/ELpIAdfX2HgjDPiRc4pO5bnwZlu4bndrNaBRElsN0lr1cm4LcuAIIPCRCF0s9FtIJdnQm7vs3RQPMY6yYxq4+WJJAQCpYkgwhQAgQAoSAPwgoEYD0Rz8YfB8x8ieJ/9a5dhEC1u+SVYlD/f8VqP//kjskvwhAU0PDXr2p5It97ev69TjxfhpYJw8WwkCR21ZLNp8Brg4ew9XBV7OibgmA0Hi0x9tE8KBM4hzWDH/0nWX+6MKdbf26tUv7vBgYWzNr9pz6bAKfXKM9w+aHZhPiOC1xf6PCXAKWGwkQGf6OyZfhb4v16pfPIb3OuvEdGBnemyvnigCEgh8gdsOEdBu69hBF7/Pnh0utEAKEACFQLALKBECEaUXGPGTjE99x9i7uiUXa36HCT33m7DnBfBnp/CIAos/NAtQgeQ+S9MzBSbkvPHAuEBjvVRjvp4lidOOQbCrZNKFxqQEQdfpjkNnQ7sWGJtIm9yUZyhmHiQ3+QVjl9xGP3IiKQqXf1bleEIu0gSDc/F6fPWfO7AIZ/tLNA9d94ar392xfuVcKeN6gM/uDvuQ+IB2Z6IIF8xxkNBxPp5d3U2kPhusnvPHGG1252LokAH1RCTG3l5C3oC85UrEvL9UnBAgBQoAQ8I6AMgFoahq7W2+3vkUuAISLvQsx9NNhgHOLnwQAGoi9oYEQuQnSee2FSp9b2on5ststevnl85E45hIhlpbVtAWI9LdPen/NFC8EYPr06SPXrE68jo11Yt/mq7GHR6RSZ+QG6EE2wMbujRtvz8YOyIxjRU/K2r1feNt0M8DpTmzoJ/Zr85lhyeQJ761ZE8/FdFOgHx3alk0uhSgbho0YOW7JkiUf9pdFNsCLMxik/1qkTTaAV3MiITb5/sVA/6fgiud6kJDq7IN8Rp192Lm4AmgIh15CvgKRolmUlMG1E80hQ17QU6lhI8aMWZmPYOTOmf5MCBAChAAh4D8CygRAdI1T+HtQZeOu+tOCtLH7Fkob6ycBED0iROx5iAp7zWYwMLZE5/aLFvLbM0OrQ/74/UEUwlkZYTRo1tTMFtkJ+9fzQgBEfczpM7pmPd+XFEhsrkhNjA3zOYSrXabj/yxNn6YzbR9sqFV9feIUXmPZX/ygvf3t3GVMR7375JO3Nhs3Y70wVngBbb9twILRtlgQRGYnaF7gJdhXeCYd8BapgyGhwwbiUdhAHNa/v03aG+0ljG0tNAdBpODdNxvoKSuXL+DTZti5IADA6yaQmzPzvbom1w4CIXnG/9eaWiQECAFCgBCQIeCKAGADvgQbsAg8ky7iVAnDOmElntfAzG8CIPpEoJpTuc5u3GxzLThL9p5ZVXVEc3Pze7kiXgmAaAc5c6Yme3se60vgI0EZxnSvaUbqmNyAOv2rAasp2Cj/KpqXLVoae4Qj1nQbOQXab3aQNyL19dfDFkJswJsCKTmXDdj8fyQLHezmCmDcuHHT4Jb4n1zXRTEM2JL8qDWRgIEkFUKAECAECIFyI8CwEX6U7RSn2Mdxp/2dQoPIfMwXZZ/rOr+rJZroCxqzxSYbieyJIEJiU0sXJLi5AKlrb8uVC4dCr+HEvEmtzu2nkLzmW05AwNd9gmWlLmKafTjU8SNyZcWpH3O5JRiO3FRIxRwOBd9GgPm0pgAb74Oy9MK5fcyfP79q0aJFJ0H7cEo2816ODG5HtH/jmuI2XFM8gGfShD6wwh9qMHYOVPdiDcbnxQCaBM3mfzGqqq5A1EURn0FasG57JJPdFzBN/zJIy5A8FTqwlg9Y3LgB1zmtsgahCXoDbEJ4FsAOlD1S6Aoo2w4MMvfkdvIGBIuYJeDO/j3TjZuisVg6yiQVQoAQIAQIgfIioHIqLO+IXPQmIuYl6utn6Loe5NwajUA5H9YEAsuWt7QgeVBBwzwXPaiJIlpiJACPANswxljQp+O/O7osa3FHR0e7WgtbSgkbgp6enl2Rd2AE9P81pqV1pAwDeZDa3oK01KUvX7/z5s2rWbZs2R5IkVynGWwHQ9M/QkPvw5hS4OWpTTfzEzYUiUQijPWyYPzYnBtgyE1bJEsIEAKEACFQHAIVTQCKmzrVJgQIAUKAECAEtl0EiABsu2tPMycECAFCgBDYhhEgArANLz5NnRAgBAgBQmDbRYAIwLa79jRzQoAQIAQIgW0YASIA2/Di09QJAUKAECAEtl0EiABsu2tPMycECAFCgBDYhhEgArANLz5NnRAgBAgBQmDbRYAIwLa79jRzQoAQIAQIgW0YASIA2/Di09QJAUKAECAEtl0EiABsu2tPMycECAFCgBDYhhHwnQCI8LztkcjYqlQqbDO2fZLz4QJfwzCYZVk8wNi6XsYsJLPpxJ/X4Z+W3PS4Fb4eRlNTU4R3dQV7DWMYIuzWMpvViDlhzilgsj4QSCHpztC2lStXirj7SM5HhRDIj0Am50Qd3p16/DOSI41y9rckauiBwFr8hmyEV15nmua6HXbYoYVSLNPbRAgQAioIFEsAdGTG2y3Z0zMPqd1mITHPTrquTca/AyqdZ2UQ7/4TJIqJMqZ/gF3yNSTEWbQxmXytvb19g5t2yi2LePajOzvXzjSY+QXkvN8TSYUmaLrWoDp/fNB7kUhoJdfsd9HGwoBlvbwikXgT85AmDirnXJHMpxYbTEjW55iWltY3NC0pk6PnBREwgfUeSP68N/I1fAHpoXdB8qYJkDZdYcbYh8hAGUXdD0A4XwUxeAW5JV6n3AuuUCRhQmCrR8ATAUDymy9wyzpG17Qj+uew9xmtFPINv4AUgncEE4nHB8vGEomMmcQt8yhs3kdxbu/u85xFiuW1yCD4KFQmv43FYi8OBg3B+EhkXtJKvSCbK9IfTkWyoqUyOXq+GQIM+O7dayePQbbGr2LTHl0KfNJk0+Z/xXt1B94rkaGz5MmfSjEPapMQIAT8Q8ANAdDD4bqjdK6fzTX+Of+GIG8Jm2I8GkukU/cOUDEbGsLzecr+IU7se5ZtDIy1GFy7YUw4fOdAqnWJAJRkxXHarztes5h4p3YpSQ8FGoWm7b/Rtrbp5eyT+iIECIHBh4ASAQiHw/syzboOavqB+mjYsXjCKDd8m+wZwidzyz4HfY8vd//9+mvXuXbd2ETilwOhCSEC4O/KNzQ0HG5bqWtw2p/ib8tqrQ0CQq02UJIiBAiBkiLgSAC233774TU1NdfjbvsEjEKJLJRotGUnAJFgcG+oTW+zNb5TiebkulkswNtcN06CCvdV15WLqEAEoAjw+lUNBoNjDEO7FWaf8/1p0VsrRAC84Ua1CIGtDYGCmzo+VjuZuv4Y7rl3HASTLhsBGDNmzHZVVcbN+EgfP8CkpxDstqbrv4jF2s6HQFmMBYkAFP8LGF9X9/mUoT3COasvvrXiWiACUBx+VJsQ2FoQyEsAYOT3Rc22Hsck4cY2KEpZCAA8GqbCo+FRTePTBsWsHQaBj/gLKUs7OpFIrC71WIkAFIfwuEjka5ZtPcA5ry6uJX9qEwHwB0dqhRCodAS2IABNDQ179aaST2NiQ32aHGycNOHOt10R7ZWcAMDI7zA7Zf92EJEeBbhYc6C6+oBVq1YtURD2LEIEwDN0mnivuG0/pOoaqtCTiBuxsZjfJxEABZRJhBDYBhDYjAAggM243p7uN2CctIPbuTOutSEaydNw23vTrKp6a9jGjcs7NK2zX5AfvbGxcQTaHZVKpUZUcT4WDuPTOGM7G5zPwl27OHUXupIoKQGAd8PRjLPfoX93/tb9QIK9QDdwe9Xm2r90k78fYFXva2bPJ5ZV04mTXzee1yBgyzAEQhqV0pITGTcn2pa1p6azmag3xC3eWXmwq0Sgqnqf5ubm97y2IatHBECGUP7n8OnfldvWqx7XdxWuep4xbL5Yt+3/dnG+CsaD6/t5g5hTp04d0dXVNUIECMJvKgTX3GnM0Hdhlj0b7rmTCo2aCIC39aRahMDWhkD/DVeP1Af/iZPK511M0obv9x+rdP3OVdHoS6jnOapdXV3d2EBAO1Sz9CPgZrg/2upv9V8yAhAJhY5Ff/fl9KcEAT68PfCtfoyZ5r2TJk1CnJUF3UoV+wkJT4PVjfV7gRx8E+gdgUderl3aLa7tg+uAd932ryJPBEAFpc1l5s2bV/P+sqX/xeY/2UXtFGf8HsbMu2Ho+S/UE9ozTwXXeBEQgq/ohnYkftPz0Ejfb50IgCdIqRIhsNUh0PdRaAyFvmdp/HbVGaLiApvpZyPwi4hc52tB1LLG7q6u7zOmnYaGxdVBSQjAuGDwwBTT/uJ682esCyezW2qGD79u2bJla/yavPC6GFpbewYML8+G1mB7d+2yZovzz5XCJoAIgLuVENINweCFNtMuU67Jtb9wXf9xKQIp4fc0Gb+n03WdnYT3qoYIgPKqkCAhsFUjkCYAOL1Wd23oXIU/BJVmq+vXwwr9PMiWNJpYOtTuunUX4RRzCgIBVSmNTVFo3Lhx06xUzys4HYlrCeWCEKuPDEsmz3hvzZq4ciWXgtOnTx/Z0dFxnVv3S52xl78we86+Dz30UK/LLh3FiQC4QxNXXaOsZG9LhrzKKkNrxi+IxduvgaDnE7+sE/FcaAXQxRW4ItgvmkgMuDeCyphJhhAgBEqHQJoA4MPwLVj936/WDftZLB6/Sk3WH6lQKDQjHo8jBo4/RXyg7d7efzvdk+bpaT3uV0+JRtse8GcU8lZw57s/AsY84MYmA2Tp1tZo4nR56+oSRADUsRKS4WDwR9BeXadSixn8xGi0/Tcqsn7J+P178mtc1A4hQAiUF4FNBCAc/pvG7f1kXeuM/621rf1AyHm+65f1UY7n9fXhe2GsKPz81QpjrVXV1iErV3a8pVbBP6l07gHbfNJF1Di4muv7Q5X8nF+jIALgDkkEkfovyOVuslpM47+Lxtu/JZOj54QAIUAIlAIBBuO7oQFD/1DBR1lsLNNKcUdZiokVajNz7y/cHNUKY8uG9ybnlVLlLxuIMJA0Df1FkICpMtnM81XbDR+x29KlS9cryjuKEQFQRzGtZrctof53jJwpkvOkbB4phc2G+mhJkhAgBLZlBFjG719knXMujC+KtbXPkYkN5uciyl91wHwPZAd3oQoFyXiqa2rnrlixQnzQB7Rs2ljshbjDHacyEF3jv2iNt5+tIiuTIQIgQ+jT5/XB4Hxs/Q/KasCW5NFoPC68PqgQAoQAITAgCDBsLCfjxPJrWe+6blzQGotdKZMbzM8b6usvsG3rcsUxdsK17vOlcq1THMNmYrAJ+Cy3UgsVtDWacFGsqqmd7Ad5IQKgvlq4/78I9/+XymrAnuQk2JPcJZOj54QAIUAIlAoBhk3xSmyKP5V2wLXjY4mEoqGgtLWyC6QN/1I9K3CPMVKlc/hjf72trf1PKrLllIlEwqcjO+HNKn0ig+DdrYmESORUVCECoA5fQzh8l70peZZjCWjsgFXx+LMyOXpOCBAChECpEGA4sfwSJ5YzZB1U+gdLmegACGz+d2Lz/54MkwF6zqBmXgQ180yF/lO4Z57c3t6+UkG2oAgRAHX06uuDf4KJ7FGyGoHqms8ghPNimRw9JwQIAUKgVAiw+lDoV9jyTpF1YOjG0S2xmPRuU9bOQDwXUdmWL1saUwyu024Eqqa1tLR8PBBjVekTMQz2SPX2/Buy/aMl5q2Kq5urcXUj1/A4dEwEQGVVNskgrPSjCCv9VVkNhM6eB198ue2NrCF6TggQAoSARwRYOBy+GgFnRGpZx2Jo7Ict8fhNMrnB+Bxq82OgNv+90tgq5KoDWoA/QgtwtMKc2mfNmdtYTHAgIgAKKGdEsC53Y12+I6sBLdM3oGX6o0xua3w+f/78qjf/9a8dk7Y9JWVZjfAqrsXVHHIa8KRhGJ2axT/WAtbKnh62vFjt1WDATxgf67o+Bv9sj0PIxkAg8MnEiRM/8hI6fDDMZ7CMYezYsXVDqqqm9drJCaZujIHN1lB856tg/7QOWHcj10qrHgis7O3tfQ/vkUhIV8nF3HnMmNE9tbU7bEgma/AOiQPqx8UeVMUVgFLQEsQAeAwxAKQnm8GIMHIc/AMR//aRjo2xpbG2+M6QK2mEQ+k4FAREMBdY+r+uICriy82H/cbDSrJ5hIgAqCPXEAlfZ1v2j2Q1sHa3w0tDqnmTtVMpz2HAGraSyWOYriPPB5/tIkFSOzwmFmGej/akUo/3Sy5WkqmLMOQ9XV2O+VCQMayzOZF4xmkAQktnWz3f1Sz2RSQ62ymPbAq/y9eQCO2qlvb2J3Ofp7OTJm1p9NMU50+Xe3NLuyUztrdsAbD5/qe1tfUDmZyL5wbcuPe3GD8cSdS+hG/6RMW6iPjO3sS79xySz/0hGo3+T7GeZzGM86CUJKMuQn+/Crf61kKdCOKIjf54nfODkK9mLuS2yBMjkvBpjD/vFE9ExJLRNf0gy9LGIj7JiuHDRz2+ZMmSD0W/rLG+/ijkKlcxduuEb3nYL99yz8i6rKjql51uVjeOQxIWkRK4Iko4FHoRwWT2kg222IAzRABkCH/6PBKpO4Nb7JeyGjilROva4hMQ3hJJMbfeMm7c2JmpHv0n0IochFlKr6wkSGxALBIRNfH/nD6cxaCZSQ4mMoMWLIzp70fb2vImeYJGdQqz7Vsx3y+pjYNfgTDQF+bKYhwP46MvdRPFxvZNuJOqaTfVBiSVwqHxYtiNXSIR5NW1Q6bCC2mZtEGJwJQpU4Z1dXaeiRwppyi7cDu0yTX2esAwrm6ORh+DWEmC2jWEgivQcJPT1Byu1Y3GSPhHts3Pw3xHKeDHY/GEnk9OeL7h7zkzjD+Y69d/2F1bOwFrd6Kua39rbW17nCFlaT1cy6IKnWiGoV/WEm27WEV2sMioJzliq4PxeH0lfZCV58bYh9Bs1GFNPGk2iACov80Z+wylsNXw0vg+vDRgg7P1FXjdTLCs3pvweT3E79mJ1NvM5ld9Ye7ca4u52so3rmIIAOw/vss0/WYX2g3xbc5LABrr6g6xdCYSlTkXXXsyFkscKhPz83kkHF6GzXhHpzZFsrhoPPHFIvvVcX37fWRcvRiYji6yrS2qY4z/DtTYJ5UiwqtXAjBt9OjQuqrAg5ivm5g7eQlAY6TuTJZi71smD0MT9T1NRyQZrr89ZMiQ03u7u35qa/pT6WhlkVDwA2QhmaAA8IaqGntWKQBT6NuTSEO47s/IWXy4rLKu8xtbY+1nyeQG03OQt+0RwyEOlihVFcKwcS7uixBIyH0hAuAKMwM//o/A/ofLa7HVgerqPeENsEouWzESwq7o+7AruhYjHlrSUTO+OFBV+1U/8fNKAEDGf4Bsqr/AfB0jQG6JR34CADkzHAq2yhK0iYiSuhkIFnsXrLpO+ObsiQOjSFXtWBDn4thi8qYIAslTyXttnlZ9l6wgM2aS2+xc5Le50c9OvBAAcU2G3C8vuEwhLoa9BQEQdjb/XLjwJszrVGQmPYebeg/W45a07ZimPTxr7twnXln40s3pl7UxEvw57gd+rAQAouNBhTKnVCo4pTEoCm0C4WVx1yFSCjsWs6p6RnNz839kcoPtOewbnsddmJRpFxPIiQiAu1VvCIXuw73vcSq1QLzfGT5i5N7ZOzmVOoNVRnjbID32b7D5H1O2MTK2RmP6obi6e9WPPr0QgEwytfvQv8vNP/3tzqsBEE9U7UlgUHoCDErv9mP+sjZA7m7C+p7pKAeN446Tp0S8Gjk2NtZ/yU7ZDyp6bcmGrPQ8EzNFuH570pLmduKWAIiQ/FW6/u8C9iKyOWxBALBOn8FUPiPeC0EA8GKO1U3zGRjeXlldU/MdcTWDv99EANB5k6mz5fjPvPcIub3jo5UACTgKGfpelo1sIJ+LyHl2KvmabAyZ/OgiPWpJ07HKxuHluWrkOXwk/oyX4Wte+iAC4A411VNStlX86FbauvFVbGL/ddfT4JGeMGrUiJ7q6mcU41P4OnD8ftcyPbAvDM7UjGIdendLACZMiOzYszElDg7SQ0b+bgsTgIl1dbt060xqsJZJ0vZlX0HN35hZHwqK62JxnViwFKNNxQn1OLxDws4DtpZlLrp2L65TRBCvou0C3BIAbMa/sZn2XY8z3oIATAgGP9djGFOFTZsgALau4/2wxmCDuyYb4C4dAyjboar/clZeqE6YZlw2Nha7drDem0MtdxLUcndIQd208FLXLWk7AyCgnsuBtcIOAC5X7gsRAPeYIcPmImTYnKVck7EuptvnIzXwrX58gJT79UFQGGl1rl37rNfNX9zpYxhrcOITUTo9bqRaB4x4Z+CDp2TPVGjabglAfTj0ssv72pyuCxMAIYjx/BvGgJ+TLFMKLnDhUieWArE9AOp/R+8HMU6MZWcvIdQz2AtNikdjUbYaWFnY1MZ4bkPXL4/F2i4q9mfhhgC4TlC35eC2IADpJH+meWU0Fvth9grAtrXHdWa/MGnHqbtAO9ODPf/2PgKQ1gIY+tvuDFig8+LaW7iAPnFFIiE9aRcLqtv6SPt7G8weTpXVM7j27ZZEQrx4FVfSH991a9di4FL1I36YY718JIgAuH8tMsaA4q7U3UmG6f+0bPskLx9Q96P0pYaJU9tf1a3eRZ+sGfZIj8L3//HRSJ28ePHiT7IjwSZTa5rmuGRPzwH4Fh2CdoX7rvTdTreqa6/WxRJ7FXMgcUMA0q56KVtYkhdRnAkAVLmnQeV+i6wDXPGdioBf0pwusnacnkdCdb+F5vebjm14TBqX2QSfUP29iAOoZrO/Q3v2mF5d/fcdVq2K9Vt3FgwGR1dx/nlL1w8GKThcZkvRb062ybVD4eapnjE2DyAuCMDDSB/+pkr6cAfc8xoB1ofqLtd082EQ6zmw+hc2AHeJwH+IkfAvqDiqTcRJ2OyHBYvLcxFIQRjvuC0W3HPuGZVMXvjO6tUJt5VLJY8P0z9VTiUwbNy9kgwbc/HCoq5SyRLIDPPz8IEVEQRdFSIAruDqE8a6XI91cZ2RUaqFj6YAACAASURBVBh24aN/KwtUX14u4y5vM8Q9Ne4Robo8XbF+B+5aL4Hnw52Qh5u0vAhVZlJn16sag+E7dC7sk66Tt5xfwgUBmAIjvf/hAyrihmxRhG0H/M4fNVLWv5O6HkeAo178bzu4REZwatqdMeMQWNLv7mQDIBrNGPq2yRKA+WR1XxA2caLENbH4tjtqaLwcpoTrpK5Zr7rI0/LnmprAeStWRN9XWecZM2YMicdiIt7NuZCXGqYiIFVs6LCR04pxeVclADbjZsEgddAKajZ/gpn8OcPg75rdbH2Xrlfj+zAKG/pUZmuzkHdEeIAMzecGOEPTAh2hupu5Ybw0c+bsh4XHzPTp00d+mEicgTbXtkTbP70CyABphsOhJxnnXu+TOsFEr0GwhRuw0WxUWZxSyuC+SrywjvdVImse/LGHFXNqKOUcVNrGR+spsFzhZ+1YTMM8Er6vj8jkcp8TAXCL2CZ5cZrVLOtFBRVu3g7wbn6EDfOyMfH4bYPx/YQK8WiEPVaKZogT21NVXT3Hrvj4Y6Gtcl2gzbsM2rwt/OXzNLQBVwHi7tPTVYAqAcA3TmRRfT63f8zzA5CVs3DPKoL7ONoUZWIkRBCk6yEnQJBf4kHcSs+XgGbDG6ABdhBtrsFVqKASTRUb5yd1oUj9G2+80aXQZFpk0qRJ1V0bOt8oRKRy2lkPW6Zjga3cPTLPABDkaXLPxo1/UzksQZ90Ayzoz1GdR66cKgGwOP9BnqtCG7/72xAg5DKZxlYEC6qtDvzYyT1/09WNtR8IKfgZX1drmH9a3tLyjhjzFqo1YczTW1P9N7y5e3qdvGBQts2umj137l1+++mqjinjASBIiMSwkb2Hhc4XqUu1qwGXU73qwIfxbHwYhauSq0IEwBVcmwkjfGfwk4ApXHumem1FbCrc0i7DRiECvvhipex1LNl6ULGOMRjDR4SL+1bHgo/ZLTj1/7DYsaeNmZj2f7L+oAX4JbQAP5DJ5XuuTABs+w18Pb/evw0RLbXX0r7pd2S+dFQ5pj0lm08pw7WrHDJ0Q7u1NZpQ1QalpwM19RXYhn4mm5sInIV1PaRYQ1kRGA4H3OelcQwY29ibspo6OjraZWPL91yJACCujmXZm9kbZAxajwKRA1Epfcl7t5ax6H3E3b1evsGyZmawK+qibfeV+wQzHiXZ0y3Pgsf052JtbfuVHurS9aDqCWAY2nUt0YRQg7kqRABcwbWFsCABa03zCa+agL4GEapaN9ilOOSJyJ1FWyoXMytVV0dEobwDYUpPLqav/nWVsi1CdTp0u2Hj4JK4xm2/KgRAEwabsO3oH38DGoFn29riIuiR0tWGy3EZuCduwT1x2LEe114BSVQ3PFUcRDr0r85iEHe2Z9GN6W42aJDInQymCc8Xx3ax+X9sa2wmSN1SxSE7ign7HCvV8yrcpwNOgsUkUlMhAGJe/SP9iau/gGHut7K19SU/5qnShpNxjQE/1GsQ11yoQZSMcAp1mD7BaMaleDkegExZTjAIJDHHSvbK3RR1/T5YfX5bBazBKqMcEVDXb8NcT3M7DyIAbhHbUl74yH+wZMmtRbj6fMoDNO1t/CQvQghYYYBWdtdVqBR3hTW4SGXsqF0T99J18cT+fpL/yZMnj96wfh3m73y1hzvTH4g7Trcrp0QAchrVNfZuoLt7ltfrDZUxNgaD18K8XUbeeVVNbdPKlSubVdpUlYH6/3TcU9/sJC+i6iHyn2MOhdz6ip5nKSNgH9TS0vF31fGqyCHU7qW5p+/cehn38AYve5YKAcjtDxqO74Lk3KMyfr9kpBt7JleA8Mv06p7Tb6zsPahCL84kpinphwuqnoNxR7dFko0tgNP167EpSpO3+AV4KdqBseORoGiO94jpfrl2D7B37WtKBMC/VcN7eTIM/G6SGXWp9IiN5w0kCrmoWItllb76y6hE1xSqzN6kPcWrCtVpTDCuRHprfqWTjIj33haPy9zntmjCAwEQLni7l9prA6fWaUgB/q5srYo1gszXPoKNvYLT8hccCYChnySszGXjyz7PxGgRBsmSPcjZS0K1v1w5cXdeYxoxWcTOgMYOWBWPP+u2H7cEAL/l+1vj8ePd9lOsvJQAiA6amprGJbu7b1MxNFMaEEJ4GpZ2Yb4sWEr1FYTGRSJHpKyUQga80rxgCkP0TQRM+lAYYwkXGufCtT+BAGx2bymrIp4TAVBBSV0m/TFP9t5RnP94v/7gehXQAxesikYXqI/Cm2Tmak1keHM8/UN9eg7c0m7w1otzLZEGtso0WiQhsDmM4iJujeLcEoCMfcMZpZhnbpvYiIXa2vmUzdh/EO8DBuD+FJFJjluGSOjjtFesx3152E2mRpUrJHHvn7TsqX7bVGSRaYgEb7EtzVkj6lFr6pIAbICH1hQYzotrlrIWJQKQHRE2mq9joxExkx0t61VngExWTyM04emlyPndGIl807JS0sx+xYTIVZ1nqeUaG8fuZyV1qdGI12iARABKsoJMBKqymX2tqvuTdBRc++PwVOrs99asiUtlPQogu9iVtm3hBF64IDbI8plz5+5cSgNgaL0ex5b0FadxGIb5rZZo1DGz3xabbCh0LA46SnWE1ft2w0dNKlcYZ2B/CrCXJo+qrjUnq7rIyV4DFfsit3YeGdfGKAhcrWP/Jc7Omo6WxzRnt+hNKeJdG/C6IQCcaxe3JRKXydaiFM9dEQAxANytj8LGegXT7JNkRhRKAxa+jty+Ytacva7384OBe6sTcW8l/I0dC5JWnAfV1c9lcoP5OQyE9oaB0ALpGEkDIIWo3AIi+1dnIHANYoCLACtKobgdN1+o3pHx62e4SxQbhe+GgnCtFYa1453GgA/aj/FBk1rrF4O1SswSEN474TIm4rsrFzcaAC9W78oDySMofLjXdLSL5F81Tu3gUHMhtC+wri++INLhUllyGmhaPucmDLPat5mtnjVnTsTPPSEPGibmt1YW/C5l8zocUjvcoOmCAJQlimOhsbsmANmG0qqhlHE5WPjR+DvP7WTbE4Y0RnX1scjsJYyLii6qhnFQ4V0EF6XLi+5wABtQ1QBoHg0eSQNQ+sUVhnUaT10NUn2wH71Bu/ZaVa1xrF8nQTGmjPHfWxICksTdf0Mp7v7796tCekVkwGgsMdMNnm4IADJszkGgpkVu2i9WFpqPP+S6H+a2iY/x2zDI27XYvhRPyG/ihLyHm75UtDc6Miu2xttdB9FyMw4hqxLKGXYV+4FQP+embVUCgN/pMzDmlcZwcdO3G9miN27hUmEnu69Gyt393XScTxZ3PhttzT7dj8xWmQxd98vGBLZ8Fdiy1A9V1s5APle1AXCrqsvOiQhA+VY3FArN1Rm7xlUegQLDE4Z4BjO/i+BPj/oxA1hOnwfL6WscCQCu9fBB84XEOPWT1kQmez+SzKsTEdJEWmZlg2MXBGAV2hYp1JXb9mMNxodCX05q/K+ytmoDVbtkg73IZAs9j9TX38htyzGeAg5Q38cBSnotke0jHZ9l0cKPZafucmVnRQyVWxFg6vvOGLGz3KYLViUAiM1ynEjY43WNiq1XNAHYbJOwrct9MWyCtTozzdOKiSaoagRYLqZZ7EI51Qejno9TwYOyPhAG6ufIeXCeTC73OREAt4gVL99YV3eIhUAh+D0hrWdRhUPzcwM8Xc5HK0X5qKu4bRmGfj6iknkJJ+52kgzXEQiW5pw4Zuiw4WPcxANQJQCZ9LEic1y5ixEJh1bhGiDi2HHxSW1UMv9tqO7uqXfj/giCOwPfXMesjbgHW9caT4zC/Hy/wsrFTMUd0Et2Q1UCgOuTereGqn6+cL4RgOyghP+9nUxeAUOavYsaKGMLe5OpA91YlvbvTzV6FtQ7D0C9c2xRYx3gyoiQdir8y2+TDoMiAUohGmwCiJO+LzQ314IIuFKz5s5DGICG2tqPLsYnHxtPq2zjQcCWvcqVJhzq29XAZbTTmsG6ejccJKQpdbNtqBIAZvAzkbnR0Te+VO8SjAGvgjHgTxznjdgruP6Y5HUMSpn/PLgVqxgyljG9MSIRhhChkjtHR9W1B5EtVlx1KxdFAtABLZIvBvXKA8sR9J0AZNtP++FzW5xgPH+4oMJ8vi5Yf6ib2NJ9P+RIZE8EKxHZ2BwL7mBehMpynkxuMD9XjZOOuX4TcxXhZF0V0gC4gqsUwjpO3/MZ1y/Gx2qa1w6w/o9g/YUbqGtNgDBAW92e+FjeNzsLuVyVY8HL2yssgcA4V8oIgNv7W1UCUGUG9i5nxLb+KIjkOYglsUSGXTFqdOBwPw5x33Lqw6yyZzU3d7wiG0f/50rJo5j+d4NzBRduNz3nl8X9zWwY4B7n1JKXREsqBKCcRKfQ/EpGADIdMgR8OMy2UrjT5FO8LFcGJGEk4SqCYDoGu2lI3aFElMJimLKXOfldBx+EO/FBOFHarm7sg/umF6RyOQJEANwiVjJ5A8T6GOE1g99To5devGq8mprG7tbbrYuwrRVVMN/DoOGTx8jIzEqVALi9WvAbtPpweJHMTsTrlZ/Inpdoi4kY+AWDv3k1NFQxAPQbq2LbEwa1IM6ucuMoEQCd39gaaz+r2PEVU7/UBCA9NpGWcHUo9B0Vxp5vMh4t9RlUll0ylxlBLILh+uFetAzFAO9nXXy0FqhcuQxPpsJefMSJAPi5WsW3JbIM6pp9JgzyhPHqMLctImnMyS3x+B1u6qVtEnTmKQubm378ljV04+iWWExqH5PtV5EAiPzrIo68q0OJn3NT8nJirAUW+uPRrytDRZXMf55DLYfDizelQa6cgrgWb0UTCVdjViEAA+n/n0W/LAQg25lIKoGENFcgmJAwnnHj85wK2HzOqvZ2qUq//2ul4sMq5Ku5tueKROK1ynklNx+p0l0oLMKh6RjpZY5EALygVvo60Pw0MNv+ucwtLM9INuBkPMNNchWc3I5DP/eVflY+9+DSylqRAGwAAfAhNLr3uaazttbWiJgAsmA6M6H1e9VNT4g4+KSTOyq8tbphvV4P2wqZF8YW3eJb1QLtlYivXzmFsWUgUq402CoEAN7zrr0L/AatrAQgO3gY6B2I08Tv+2dCkk0Mqvr/YQMTLEyZzSrm0YYZsfsTkWy85XouAsmsC5jSHOBefKKzcyACUK7V9NZPQ0P4G3YqHfRqqGoLwr4Gv6cvqcqrGG+ptlVWOa4dj/DXUnfg7JhUCEAmSYxzZr4yTBJ2Ib/DYcrRgNmtBbtI82waWswpyBuMUn+HDI+O9gGFpq9yWCkDdO66KBEBGIjkP7kTHxACIAYB24CJPJl8FBHsdlNdDd3UD0cq1MdV5XFC+jHuxuVR/jxGyFMdRynl4O74NeQ8eETWB9ONm6KxmMjJ7roQAXANWdkriDv6ZK/+KD7cE5U71w3l0yFsD85Ccq2SxPZXHq8XwVIQAIQ6hkp4Ry/D8bNO2kOE245Z8hCuOBZtaxf2IkoudWjzNLR5i9M4izGAhOtmpxui6identsqEQFwez3lefwOFQeMAIgxbb/99sOHVlc/DytMpeQVblNOqm5cyO/9IVQ8Y1V/JKVYCK9tqgWyQOtcOwonIXnGwDwDUcURjHaqG7Wy1zlTvfwIpPO2G/pLyga3XHsC78RhKngSAfgUJcb096NtbZNVcCuxjI4T9UqZQSjusOeBsLyoMhZp5r9NsfGFJ4qyJrZ/v0QAPkVjmycAAoqMCvtN/KeSP2SgumYawgVLXWBE2yLlY3XAXKOSehWb12xsXv9U+ZEMJhlVOwfc2TXgLjDqZexEALygNjB1JkyI7NizMQV3fyXjQHvYiJFjVZLZ0BXAoCQA8GOvQ8x/5hzJVNd/hUBQkmh3m7Sydir5PmZa8GAIg+wfIfLf9V7fbnyv1oCw7OC1/oDUIw1AaWFXDWUrRuE2AEc4FHoGd1YHyGfAfo1wj6fK5QaPBFKzTk/2dAvy5Fi8WLH2b5AIgAzhwfVcLdnKpjGrnkJAAL6N4DP3yGaKxCnblSp9q6xvP54r2QAMHg0A8jMopesVAWfqgY9j/Af46F+IgGIFs9LB+K8X6xtJJBKrvWIdCdchCyATYylYtobw7CpGgKq/Pa9Yq9Qb0CuA/gOE6ul53F9+UTpoXXsSUZkOlcplBFSj5OHl/njS5CnhBQsWdKu2PdByiGIFJs7lCTOKDAtKBGCgV9p1/zp+T4vxe5ImhNGZ/pvWtjZpDAkYGh4GQ8PHZCNBgpyJSJCzQiY3WJ9XGgEQOKoktDEC9v4tLR2O9gJoZ4nj9ZEPtlKRUPB/uDvYxZEAcO1uaBkGIsyyb68lEQCXUKrGswdjWYFMV8qGTri7jMB4qRnDkbodgnmeisRAv3Y59AERF77giHS4Cp0L2wXHguuNPXC9IdUUFGqECIAM4cH3HFqA05EOWx6qlmuvwA5glmwGSpnh0EilXqVl51+JBCASqTuBW+wux01VQvSg/v8s1P+OrtBuoyrmG09DuO5ZWeI4BN4pS0Ip2TtfzHMiAC7Ry4Qa/VBhoxYZvlwFP8GP+ikEypGmXARDWDk2nphSTLx0l9P2LK5irSsaL1b9L9ogAuB5mQasYsYWYJlsAKqRMEE460E4pTYkpmEe4Vf2QdnYS/G8EgnAlClThnWuWyuinhZ0AxUazpmz5wQfeuih3rwbc33dL2ybFfQSyrwnwvPBk/Fftk+4Zt8Df4RvO64dY/+BoaGSYXgp3gE/2iQC4AFFWIiuFPuNrCoi9w11E7nPjY2B2/SWsrGW4vmkSZOqN27YsBS/xXGy9pmhnxGNtjm69cjaIAIgQ2hQPheRMDdIA8Vo2vpMylzZJHT8PtdCyDEADrRoF0CLdqWsscH6vBIJgMBSJXa/YfNDW9rbn8yDvREOBaPQrgYLrwv/aSzefnWx64Zry5/iuyV7P8QhTwQtG7BIi8XOkwiABwRxB/WGSvKgMXXBUYsXL/7ERRcGXrwPlDZMMOWkZU+FIVOHi/bLKgqDrAtgkHW5QqedwKrBJVZbNEsEQAHpQSiiYnCFk2FPtC1eozJ8qYuYaMSljY5Kv+WUqVQCUF9Xt4+ms384YVUogA/U//tD/f9sobo4/SdH9FqN76xenSh2LVRDSlfV2LuvXNnxVrH9DVR9IgAekFd1acvE4XaV0UwpdnZmzDCM+gMMo47xMIWSV0kHULJS/1M42Wlek4HkToIIQMmXtSQdYMP+BIaAIxwb3xQDwzGlbrZ+Q6ju10j3e7JksJ21Q7cbvXz58p6STKrEjVYqARDUCxoaHHIKa1BxxbmOG2YQIXw39oexIRS6zykjnkgl3dbW/jU/oE+Hr+Z2i6wt2BucC7ul62Ryg/U5EQAPKwPQ1iJc1XBJVVWVZW4zJgjGO9AwKAXwGIzhgYXqv3tD50u4hFPJTLXB4lpTMS47WQCJAHh4mQe4SsZIVJqWFzYiylHtcJX2dYSe/YNsatgwvoINo+ISB4l5VTAB0Boj4UuRIOoip/XJtdHIZP4TJ/uCdlUm1w5qTiSeka276nMQ0+WyiJXFhC5XHUcp5YgAuERXNX0vovZ5NhBprK8/yrKtP6kMTSS8MC17ntsERCpte5VRjvqX7oBfgTu7C7321b8eEQA/UCxvG/B+2R3eL4tlvXKN/bUtHj9QJieeizjxBtPEZuHsUVPB1wAVTQAaGydYyd7lWJ/C7t269iDcqI/Orrec1LFmxEeZAHmlUMIq7xGuY3+F79MpMtlKvgYgAiBb3ZznqpHGvOYzz3TH4IbyV5kbSt/QoB6tNQN7L29pecfldHwXBz4/w70/on6pFNYcDId3cmMo6dQqEQAVzAeXTDgYvJgx7RLZqHSN/6I13i6PJZFpSCUPfXqz0I09EHnyv7L+B9vzSiYAAkuF1ODrcUUzJntFI0uYVoqUtUgGd1CKaU9J196HuAPSPkokUDEEAGqjSxDe6UGoit8tERZKzdaH6xbCiXi2TLhY1fyECRMakxu7/qdw1ZAeClSkbTVVVfsPJAlQtJztg85t0iQZ5kQAZAh9+hxamv+rqqq+eeXKlSL2xEAVcd31tkpOALfvCjQLJ0OzII+VwbV/IL7AfgCgKLexcgNY6QRAJWJjQGMHrIrHhdGfCUPR1YjMVyhNuAUiN95rCHGHtTPhddDq7HWQrs0RWGouAkstKvd7UGx/FUMAEIDnj1AYHQz3t3MRfen2NHsvc2kMBo+3mHavQrccuQAmIBfAKgXZgiIwCDzJ0vgdqm3gPmqtzfUjYZTynGodP+TEnX9PZ+dtCM/5XeX2uHYPPrzq8goNEwFQACkjkj6BMW0XprMz4X4p7svLvgEiCNC5CAJ0rWzUwgOgq7tn7EcffbROJpt93tjYOMpKJaMgF0NkdXB6PK0tkbhNJufn8/nz51cV8nVX6afSCYDIf1JlGiImQEF3TXzrb8G3/oxQKDQXGqCXCuJSwqucxkjw55al/Vi6JojD35tMzVi9erXIIliuwhCEwCwmHkylEYD0nRDuA1/H1+rseDz+crmQntTYuPPGVPJFlQQRYIwLEAVQHi5YYfA4qd2r2fbxCqJZkZSm61cHY22XF/NiqPYHI65dNcv6DQIYfU61DuwjlqQs+7N+x2InAqC8ApupYMX7alRVn9Pc3Pwf9RaKkxw3buxMK2n8Q8VLBD/4P4Esft1tj/AGuAHeAGfJ6onY8aZufHlVNLpAJuvHc7F54/yyF3LVyzwVCnZX6QRATEwh2M4qeFI1yYwGcd16GA49T/ixNrltwJspDG+mD/Ceyl1QufYXvKdfRRsljwsgktOtDQTurqk1zlyxIioSI3kqFUkAsjPVGXtZt/k1sPz8K/6uZBqBzMfqSbwE26ug7GfyhHnz5tUsf3/JAlijfl6l7z4Zxt5kNj9LNb2mq7YhjI1/e9u2f6wz+xyMLaBaX0T6QqKOOaW4yiECoLoK+e9gEdr0GdMwfo6NUKRkLZlGAO/OAfioPow+CkaE6z8TN2li+9dz9fHWtE7N5ofF2tufV0fRnWRTU9O4VE/XjbDtOdwrqcn2uDUQgEgwuDe0UI6kixlmhNn2rTa386aDZozHom3t44GLK3drNyvnxqgZv6GHZ86Zc2wx2h3J2HRohk+AJvpqcRitrjUnb7MEoN9m16px+75Ade3vVVPwqrwAY8eOrQsEzItxAj8J8qZKHaGdgLWycH/z7QMqPmQIgCHul8SL7qpwxp41Tet6JNgQwTeKJknCv9+yrBPhI3sa2nMV6liocgOGuf/K1tbC6jxXs9tcmAiAOnhORlgijzzW6r7eVOoBaGlE1EtfirBr6d248Qpoi3AClue8EJ0KUhKNx6XhsQsN0EUwKk0EkrEt7ae4DrjBj99KdkyTJ08e3dnZeQ4C3JzZdyXhUauxNREAsbxIurMcH0phvZ+3gAAcqKVSN4MoTMov4Z8XUaExiPXb0Ln+PaydUhwKvLOvMdP8Rmtrq4h34FsRRolJxi7Fe/TZbKNEAHLgFf7CYIV/Ybb2fC9j/3LrXy78Tde0tx+I0+0RYJ0im59jSNGc7qF+N+bCGOVV31Y90xBS6o5P9vQsUIkSWOCn1Gxw/ietyn5uzJiGRaqW9+J+v7e393NWsmcu7osPc62JyAxGbP7MYEe3trY97jc22faUCQBcypjO15dqHPnaZcw8C4FNYuXs06kvBSvsdHV8nBGTQntSN80Fuq7/C4ZOH7uZw4RRo0b0Dq09WLP4EdjND1JSpX7awQaod2dAvYtw0t6KuGtftPDl/+CaY2flFuDCa5jW+SDNwpbGM5FPp8FO9n4PB4hvbfEdIQKQXg54gVwEL5BLC62NsO7H84vxPJ9Lpw1bq4nF2lqpvBewQTsO7+99KrJCBt+7jZzbNwwbMeoXS5YsEbljPBVhK1FdHfg6t/mp+aLPEgGQwCqy8mE5ljDOVzCTxzRL/0gzjC58iEyL86Gmrm2HX/hoWAxP4pqxMxZNsFHD02pp/sShLtR3XV1dk2noC/AiNHob36Za4qQDi9qVUHkuxZsaAxZrDcNYD+JUpaXsmpSub69zHgbrngD8JuB5VTH9oW6nETAOb2mJOYYALbIP5WRAxfbjpb5ZVb0T7tjf81K3FHVUCUBO31Ao6QiOYi9hhrECridtusU/sQ3Wadtata5rQ/GVHsotq87W2Y4g4TvhtzW+wMdbOi0E6jkBgXrulgpKBNL2O8leQcrdkHnhpP42040/4jvxNEjI/1DfUc0srsUgs6eeSn3RYgyHBz6t4NCIAKSh2XSw6RYn5fwxGxhbU+jkLbSbbW3xA4p9P1TrR0J1v4WG95uq8ps+tqwLh9JH8H19rHrIkJeWLVu2RlLfwHu0E765s2BbdRDCJu/rZMhKBMDVapROOJOvXFwVeD4xqIwufa+ZSv5ZMcqeSpMllREEzGZpzwTPaX5VB6iqAVBtz0+5rYQA+AmJY1tI1nM1kvUgIYs/BSe4I7Gji+Ba0nTbeXsUH3KbC3V1M4iySDbUxXVWxWy2HWd2CO/5eJDqeuXREgHogwoR9/4BzeI+ythlBBEt8EhkdHzEbT2v8umolbYFN3C+h9c2QAhaoNVYBQ1kOzb5T+DpgH+x4czQhoFEj4fmoEnFcyXbPxEAzyvhX8XM5i8sektu/SlGnTYMXLr0Drw7QrU4eAvXnhgD18lik/yoTpAIgCpSSoFY1BvzWRJq/2tAGH/ic7MwXA2fCLdD4ULsjQT4OSAiAH1oulWvZyq2B+OJhnJ4OvVfdhFl0jQ0QVh29fN18NoWEQCvyPlQT6jSmaX9BL6q1/vQnOsmRFwCqFpvUPVOcN2Bxwo4JSV0Qz8H/uUPeGzCUzUiAOqwebwCUO/Ag6S4N4Xb3mnY/O/xUF2pighAg2u+23241lLqr6AQEYA+aHC1iatYJmICKBsV4xR9LYw1zy9uEbzVxnjHBkz2hFd7KG+95q+1zRCAhkjwFljoCsvzwVEYXwybge+WQ7XtNGGRm2Ctad4MbcCR8MvHIwAACsdJREFUgwCYTmT2u83s6blqxccfCzVpWQsRAHW4QQAexjtzhHqN0koKl95ATe2JK1asWFbanjQt7dbboz8MG5dwqfvK2z5jCy2bn1yMK+zW4AbYH5uGYPA3LgKJcWZYk6PR1SKfwICUdPCzri7hnnjCgAxA0zbA4PxCGJz/Ev171jxXTBwATJI1RiLHpqzU+a4sen1fHdYMa+hLcD/522KA93tYCH36BRhnXQwXkbIZxfSbQztMH+4aOmzEjQpGLn5Pva89IgCuoDXx0T2JG5qI4zDRVU0/hREUCsaoFyKAirjLLan9TP9hT58+feSH7fFroHEQdjtluRIQHkrwpri0JRr9fbFz3doIgDTaX7/Fg+b1+Wgs8SU/X0OvbeG7ezAMyG9B/fFe23BZL4Ur5/uw41+Kw2ery7pbiFcSAegbvHhZTM6Pgvr7K8VaxCsCiDTU2guQ/XUwkXi83PdOimNMi8FQZU+WSp0Mg6cjVfMIuGm/n+x6+Lv+zWbs/lBb2zODARMiAJ5WUodh6b6W1XskclwcqhD33FMnOZVS+D09A2+c23GCEelbi45P4XVQm1z1un+CEQgNWimIAEwatAU257fDo0GQHF8C1mxtBAC4MAQGWlbY3//TFYZ3yDeA5R+9rrnf9YTr+Oq2tpMQnOcc7EcNfrefaa8D1x73wCPldj9jc1QkAegP8Lhx46ZZVnI2wJkD8HfDB2yaS1/jvOslkuvAYvMVfBGe7basJzo6OnDKrZwiLFZtO3mYwfUDoVqb5xtRghWrZtnfmbXXXgtLGO3KE9Bpdy+rV/gMD7oy2OIAFABIx3uzs51KzUU46dmI8rgrSMEUX+7L8d7oGlsEwvgM7vqfQkyEjwbTIgl3NDu18euWrR+F38p0sSF5HZ+IdgmC8wrm+jTaeMKPk1ruWJDrYA5I25lOY+Rcj6PvH3idR7nr4TQNo2ZLxF4pWHSup+BO951slsByj9Gpv3TMiUWLhAb2aPx2DoZmbUQR44PzlPYOcru8YMLeAC7UIjqnL+Sx/5jSV+tcG+s0TtO0f9Hc3PFKEXMpuqqbHyP8KMc0MVazi53qnQZG2YSXZhQ+YqNwzzgS956jxGjgQ5qCC8Z6/Hk9yEMCusfVJmMf2IaxNBAIvDfAWdKKBiy3gXQMAcZmGKY+MWVbUPnqjfD1H4WgANWIojgM8x+HOkrxD/x20fJ9stSgnwiY2BsnJbu7dwEZngZiME78ljSdj4T70ijE10h/5PB76sXvaQPXuUhIlcBvbTVOve+bZmoZ59XvICpam5+DKmVb6URCljUL8/0MfLGbcE3SBHe/4ZjjcPxWNv1GdNzB4h6WW9pqyK3GZv8BiMOyQE3N2whMIwIXle06o5RYUNueETCamsbu3NsbmIlAUJPhKop9CG6iulYLbdOmENhMt/D7WYffzDqG3wx+L3H8vpYxy1rS1dv7ppvkV55HWSEV3RCACpnS4Bpmmn3bloh0pYQ1SMCFsIO4YnDNgkZDCBAChAAhsLUhoLQpbW2TLvd86kN18L1mV6n2i8vNc6FivE5VnuQIAUKAECAECAG3CBABcIuYR/n6UAgxDfjZqtUH0h9XdYwkRwgQAoQAIVC5CBABKN/aMeTpvhv3VN9W7lLXfxWLtZ0O+QGz5lYeKwkSAoQAIUAIVBQCRADKuFwzNC0QD4WecBNTQGf8sSHDRh63dOnSsmbZKyMs1BUhQAgQAoTAACBABKDMoKfDcxraszDvnq3aNdy83g3U1n61HNHcVMdEcoQAIUAIEAKVjQARgAFYP5GLuiZgPg33lLmq3cMlah1CVJ4HDwGRdIVcoVSBIzlCgBAgBAiBvAgQARigF0OQgGrTfBLxEvZ2MwRECXyRmeaP4P/9upt6JEsIEAKEACFACPRHgAjAAL4P4jogoDOQAEQUdFkQPOVZ07JvqRo27O8uo3exCRMm7EjXCS4BJ3FCgBAgBLYyBIgADPCCinjXiVjsCYQJ8pSEA2Et14JA/M1g+hu6xRcbth3baBhIZGh2Dtu4sXrjsGHDe3p66hGgcQKzjZmIuLYP19iaaDy+5wBPnbonBAgBQoAQGEAEiAAMIPjZrkWs61cXLrwTmZGOK8dwcI3wGhGAciBNfRAChAAhMHgRIAIwiNamMRT6gaXxGzCkUmRP65spEYBBtOg0FEKAECAEBggBIgADBHyhbuuDwSOZzu5HYpjaUg2NCECpkKV2CQFCgBCoHASIAAzCtUIe+c9yy3qAc3vHUgyPCEApUKU2CQFCgBCoLASIAAzS9RJuglVVgWuR8vIUv68EiAAM0kWnYREChAAhUEYEiACUEWwvXYVCoRm6zi9BNoCDUd+X9SIC4GUlqA4hQAgQAlsXAr5sKFsXJINzNhPr6nbp0fVzQQGOLNY+gAjA4FxjGhUhQAgQAuVEgAhAOdH2oa90LgHGDkJTR4AMfBH/HuumWcQNiNuWdn9bInG+m3okSwgQAoQAIbB1IUAEoMLXMxKJ1EMjMF23rKk24yM5ZyMMTRtqG3oPkgh9whhfq1n8Y8Z5VK+tfWflypXNFT5lGj4hQAgQAoSADwgQAfABRGqCECAECAFCgBCoNASIAFTaitF4CQFCgBAgBAgBHxAgAuADiNQEIUAIEAKEACFQaQgQAai0FaPxEgKEACFACBACPiBABMAHEKkJQoAQIAQIAUKg0hAgAlBpK0bjJQQIAUKAECAEfECACIAPIFIThAAhQAgQAoRApSFABKDSVozGSwgQAoQAIUAI+IAAEQAfQKQmCAFCgBAgBAiBSkOACEClrRiNlxAgBAgBQoAQ8AEBIgA+gEhNEAKEACFACBAClYYAEYBKWzEaLyFACBAChAAh4AMCRAB8AJGaIAQIAUKAECAEKg0BIgCVtmI0XkKAECAECAFCwAcEiAD4ACI1QQgQAoQAIUAIVBoCRAAqbcVovIQAIUAIEAKEgA8IEAHwAURqghAgBAgBQoAQqDQEiABU2orReAkBQoAQIAQIAR8QIALgA4jUBCFACBAChAAhUGkIEAGotBWj8RIChAAhQAgQAj4gQATABxCpCUKAECAECAFCoNIQIAJQaStG4yUECAFCgBAgBHxAgAiADyBSE4QAIUAIEAKEQKUhQASg0laMxksIEAKEACFACPiAABEAH0CkJggBQoAQIAQIgUpDgAhApa0YjZcQIAQIAUKAEPABASIAPoBITRAChAAhQAgQApWGABGASlsxGi8hQAgQAoQAIeADAkQAfACRmiAECAFCgBAgBCoNASIAlbZiNF5CgBAgBAgBQsAHBIgA+AAiNUEIEAKEACFACFQaAkQAKm3FaLyEACFACBAChIAPCBAB8AFEaoIQIAQIAUKAEKg0BIgAVNqK0XgJAUKAECAECAEfECAC4AOI1AQhQAgQAoQAIVBpCBABqLQVo/ESAoQAIUAIEAI+IEAEwAcQqQlCgBAgBAgBQqDSECACUGkrRuMlBAgBQoAQIAR8QIAIgA8gUhOEACFACBAChEClIUAEoNJWjMZLCBAChAAhQAj4gAARAB9ApCYIAUKAECAECIFKQ4AIQKWtGI2XECAECAFCgBDwAQEiAD6ASE0QAoQAIUAIEAKVhgARgEpbMRovIUAIEAKEACHgAwJEAHwAkZogBAgBQoAQIAQqDQEiAJW2YjReQoAQIAQIAULABwT+HzlCSVnIfY6iAAAAAElFTkSuQmCC;" vertex="1" parent="1">
          <mxGeometry x="260" y="20" width="50" height="50" as="geometry" />
        </mxCell>
      </root>
    </mxGraphModel>
  </diagram>
</mxfile>
